<?xml version="1.0" encoding="UTF-8"?>
<!DOCTYPE svg PUBLIC "-//W3C//DTD SVG 1.1//EN" "http://www.w3.org/Graphics/SVG/1.1/DTD/svg11.dtd">
<svg xmlns="http://www.w3.org/2000/svg" version="1.1" width="177px" height="52px" style="shape-rendering:geometricPrecision; text-rendering:geometricPrecision; image-rendering:optimizeQuality; fill-rule:evenodd; clip-rule:evenodd" xmlns:xlink="http://www.w3.org/1999/xlink">
<g><path style="opacity:0.999" fill="#fa7ddc" d="M -0.5,-0.5 C 5.5,-0.5 11.5,-0.5 17.5,-0.5C 16.3998,0.558465 15.0664,1.3918 13.5,2C 14.2714,3.99791 13.6048,5.66457 11.5,7C 12.4506,7.71752 12.6172,8.55085 12,9.5C 9.70799,10.7899 7.70799,12.4565 6,14.5C 7.08184,17.9904 5.74851,20.3237 2,21.5C 2.56967,23.6928 2.23634,25.6928 1,27.5C 0.721579,26.5842 0.221579,25.9175 -0.5,25.5C -0.5,16.8333 -0.5,8.16667 -0.5,-0.5 Z"/></g>
<g><path style="opacity:0.999" fill="#f979db" d="M 17.5,-0.5 C 25.5,-0.5 33.5,-0.5 41.5,-0.5C 41.4924,5.20761 41.9924,5.54095 43,0.5C 45.5434,2.32881 45.2101,4.32881 42,6.5C 41.1072,5.28882 40.2739,5.28882 39.5,6.5C 40.6302,7.62235 41.2969,8.95568 41.5,10.5C 40.141,11.4832 38.641,12.4832 37,13.5C 35.9433,12.3726 34.7766,11.8726 33.5,12C 33.8333,13 34.1667,14 34.5,15C 31.7895,17.3244 29.7895,19.6577 28.5,22C 29.1667,22.6667 29.8333,23.3333 30.5,24C 26.5634,25.6028 23.5634,28.2694 21.5,32C 21.8333,32.3333 22.1667,32.6667 22.5,33C 20.913,33.8624 19.2464,34.5291 17.5,35C 22.6513,37.7668 21.9846,39.4335 15.5,40C 16.756,40.4169 17.4226,41.2502 17.5,42.5C 16.6618,42.8417 16.3284,43.5084 16.5,44.5C 15.8826,44.3893 15.3826,44.056 15,43.5C 14.1964,45.9442 12.6964,47.7775 10.5,49C 11.2524,49.6708 11.5858,50.5041 11.5,51.5C 7.5,51.5 3.5,51.5 -0.5,51.5C -0.5,42.8333 -0.5,34.1667 -0.5,25.5C 0.221579,25.9175 0.721579,26.5842 1,27.5C 2.23634,25.6928 2.56967,23.6928 2,21.5C 5.74851,20.3237 7.08184,17.9904 6,14.5C 7.70799,12.4565 9.70799,10.7899 12,9.5C 12.6172,8.55085 12.4506,7.71752 11.5,7C 13.6048,5.66457 14.2714,3.99791 13.5,2C 15.0664,1.3918 16.3998,0.558465 17.5,-0.5 Z"/></g>
<g><path style="opacity:1" fill="#f972d9" d="M 61.5,-0.5 C 65.1667,-0.5 68.8333,-0.5 72.5,-0.5C 72.6309,0.376442 72.2975,1.04311 71.5,1.5C 69.9938,2.2301 68.6605,2.56344 67.5,2.5C 67.9767,3.47758 68.6433,4.31091 69.5,5C 69.1667,5.33333 68.8333,5.66667 68.5,6C 69.8412,7.2948 71.1745,7.7948 72.5,7.5C 71.5,8.33333 70.5,9.16667 69.5,10C 70.5981,10.7697 70.5981,11.603 69.5,12.5C 68.8386,11.2825 68.1719,9.94916 67.5,8.5C 66.6667,9.5 65.8333,10.5 65,11.5C 64.5017,9.45559 63.335,8.12225 61.5,7.5C 59.04,5.48309 59.3733,3.64976 62.5,2C 61.7476,1.32924 61.4142,0.495904 61.5,-0.5 Z"/></g>
<g><path style="opacity:1" fill="#f96dd8" d="M 77.5,-0.5 C 85.8333,-0.5 94.1667,-0.5 102.5,-0.5C 104.476,0.492703 105.809,2.15937 106.5,4.5C 104.097,6.27011 102.43,8.60344 101.5,11.5C 101.5,11.8333 101.5,12.1667 101.5,12.5C 99.3484,13.0768 99.015,14.2435 100.5,16C 97.3413,17.327 95.008,19.4936 93.5,22.5C 92.8333,23.1667 92.1667,23.8333 91.5,24.5C 90.3741,26.4995 90.2075,28.4995 91,30.5C 90.0853,29.6721 89.4186,28.6721 89,27.5C 88.6824,29.0609 87.8491,30.2276 86.5,31C 87.6537,31.9138 87.487,32.7471 86,33.5C 82.8897,32.3266 82.723,32.8266 85.5,35C 83.3647,35.8702 82.3647,37.0369 82.5,38.5C 80.5503,41.5614 78.0503,43.5614 75,44.5C 74.3123,45.3317 74.479,45.9984 75.5,46.5C 76.5272,45.2086 77.5272,45.2086 78.5,46.5C 76.31,47.3745 75.31,49.0411 75.5,51.5C 65.5,51.5 55.5,51.5 45.5,51.5C 46.723,49.228 48.723,48.0614 51.5,48C 52.0606,46.4345 51.3939,45.1011 49.5,44C 51.8333,43.6667 54.1667,43.3333 56.5,43C 54.3823,41.6546 52.3823,41.1546 50.5,41.5C 53.6186,40.3064 53.9519,38.8064 51.5,37C 52.7839,36.3162 53.9505,36.4829 55,37.5C 56.3342,36.1221 56.5009,34.7887 55.5,33.5C 57.7957,33.1959 58.129,32.1959 56.5,30.5C 57.7942,29.7101 58.9609,28.7101 60,27.5C 60.3333,27.8333 60.6667,28.1667 61,28.5C 61.4828,27.552 61.6495,26.552 61.5,25.5C 61.369,24.7611 61.5357,24.0944 62,23.5C 62.4186,24.6721 63.0853,25.6721 64,26.5C 65.0349,24.1089 65.2015,21.7756 64.5,19.5C 65.5,18.5 66.5,17.5 67.5,16.5C 69.5294,17.6293 69.8627,17.1293 68.5,15C 70.6192,14.6582 70.9526,13.8249 69.5,12.5C 72.4535,11.3746 74.4535,9.37455 75.5,6.5C 76.6826,3.99844 77.3493,1.66511 77.5,-0.5 Z"/></g>
<g><path style="opacity:1" fill="#f96ad7" d="M 102.5,-0.5 C 105.167,-0.5 107.833,-0.5 110.5,-0.5C 110.511,1.01739 111.177,2.18405 112.5,3C 110.939,3.31762 109.772,4.15095 109,5.5C 108.658,3.38077 107.825,3.04744 106.5,4.5C 105.809,2.15937 104.476,0.492703 102.5,-0.5 Z"/></g>
<g><path style="opacity:0.999" fill="#f966d6" d="M 110.5,-0.5 C 122.5,-0.5 134.5,-0.5 146.5,-0.5C 145.064,0.428572 143.731,1.59524 142.5,3C 142.833,3.33333 143.167,3.66667 143.5,4C 142.299,4.90252 141.465,6.06919 141,7.5C 139.989,8.33663 138.822,8.66997 137.5,8.5C 137.703,10.3904 137.037,11.8904 135.5,13C 136.34,14.6665 135.84,14.8331 134,13.5C 133.5,14 133,14.5 132.5,15C 131.678,16.7957 131.678,19.129 132.5,22C 128.23,23.2704 125.73,26.1037 125,30.5C 124.667,29.8333 124.333,29.1667 124,28.5C 123.667,30.5 123.333,32.5 123,34.5C 122.08,34.9302 121.247,35.2635 120.5,35.5C 120.709,36.086 121.043,36.586 121.5,37C 120.256,37.4561 119.423,36.9561 119,35.5C 117.568,38.0023 117.402,40.5023 118.5,43C 118,43.5 117.5,44 117,44.5C 116.71,42.9559 116.044,41.6226 115,40.5C 114.316,41.7839 114.483,42.9505 115.5,44C 114.809,45.0674 114.309,46.2341 114,47.5C 113.086,46.3463 112.253,46.513 111.5,48C 111.201,49.073 111.201,50.2397 111.5,51.5C 99.5,51.5 87.5,51.5 75.5,51.5C 75.31,49.0411 76.31,47.3745 78.5,46.5C 79.5498,46.0954 79.5498,45.4288 78.5,44.5C 80.482,43.7838 82.1487,42.6171 83.5,41C 81.3808,40.6582 81.0474,39.8249 82.5,38.5C 82.3647,37.0369 83.3647,35.8702 85.5,35C 82.723,32.8266 82.8897,32.3266 86,33.5C 87.487,32.7471 87.6537,31.9138 86.5,31C 87.8491,30.2276 88.6824,29.0609 89,27.5C 89.4186,28.6721 90.0853,29.6721 91,30.5C 90.2075,28.4995 90.3741,26.4995 91.5,24.5C 92.2216,24.9175 92.7216,25.5842 93,26.5C 94.298,25.0544 94.4646,23.7211 93.5,22.5C 95.008,19.4936 97.3413,17.327 100.5,16C 99.015,14.2435 99.3484,13.0768 101.5,12.5C 101.976,14.0664 102.643,14.3998 103.5,13.5C 103.145,12.4777 102.478,11.811 101.5,11.5C 102.43,8.60344 104.097,6.27011 106.5,4.5C 107.825,3.04744 108.658,3.38077 109,5.5C 109.772,4.15095 110.939,3.31762 112.5,3C 111.177,2.18405 110.511,1.01739 110.5,-0.5 Z"/></g>
<g><path style="opacity:0.999" fill="#f861d4" d="M 146.5,-0.5 C 150.833,-0.5 155.167,-0.5 159.5,-0.5C 159.458,2.58523 158.125,4.91856 155.5,6.5C 156.025,7.19238 156.692,7.69238 157.5,8C 155.865,8.53963 154.532,8.03963 153.5,6.5C 153.167,6.83333 152.833,7.16667 152.5,7.5C 155.738,9.64574 156.238,12.3124 154,15.5C 153.311,14.6433 152.478,13.9767 151.5,13.5C 150,15.8333 148.5,18.1667 147,20.5C 146.667,19.8333 146.333,19.1667 146,18.5C 144.933,19.1905 143.766,19.6905 142.5,20C 143.833,21 143.833,22 142.5,23C 143.833,23.6667 144.833,24.6667 145.5,26C 143.926,26.353 142.259,27.0196 140.5,28C 141.833,29 141.833,30 140.5,31C 143.277,33.1734 143.11,33.6734 140,32.5C 139.009,33.9389 137.676,34.9389 136,35.5C 135.64,37.6079 134.973,39.6079 134,41.5C 132.869,40.3961 132.035,40.7295 131.5,42.5C 131.977,43.4776 132.643,44.3109 133.5,45C 132.457,46.9756 131.123,47.4756 129.5,46.5C 128.205,47.0983 126.872,47.5983 125.5,48C 126.624,48.2492 127.624,48.7492 128.5,49.5C 128.062,50.5063 127.396,50.5063 126.5,49.5C 125.702,49.9569 125.369,50.6236 125.5,51.5C 120.833,51.5 116.167,51.5 111.5,51.5C 111.201,50.2397 111.201,49.073 111.5,48C 112.253,46.513 113.086,46.3463 114,47.5C 114.309,46.2341 114.809,45.0674 115.5,44C 114.483,42.9505 114.316,41.7839 115,40.5C 116.044,41.6226 116.71,42.9559 117,44.5C 117.5,44 118,43.5 118.5,43C 117.402,40.5023 117.568,38.0023 119,35.5C 119.423,36.9561 120.256,37.4561 121.5,37C 121.043,36.586 120.709,36.086 120.5,35.5C 121.247,35.2635 122.08,34.9302 123,34.5C 123.333,32.5 123.667,30.5 124,28.5C 124.333,29.1667 124.667,29.8333 125,30.5C 125.73,26.1037 128.23,23.2704 132.5,22C 131.678,19.129 131.678,16.7957 132.5,15C 133,14.5 133.5,14 134,13.5C 135.84,14.8331 136.34,14.6665 135.5,13C 137.037,11.8904 137.703,10.3904 137.5,8.5C 138.822,8.66997 139.989,8.33663 141,7.5C 141.465,6.06919 142.299,4.90252 143.5,4C 143.167,3.66667 142.833,3.33333 142.5,3C 143.731,1.59524 145.064,0.428572 146.5,-0.5 Z"/></g>
<g><path style="opacity:1" fill="#f85fd4" d="M 159.5,-0.5 C 165.167,-0.5 170.833,-0.5 176.5,-0.5C 176.5,0.833333 176.5,2.16667 176.5,3.5C 175.542,3.9528 174.708,4.61947 174,5.5C 173.667,5.16667 173.333,4.83333 173,4.5C 170.616,6.82242 168.783,9.15575 167.5,11.5C 167.709,12.086 168.043,12.586 168.5,13C 165.359,13.6311 164.359,15.2978 165.5,18C 162.536,18.8403 162.203,19.8403 164.5,21C 163.552,21.4828 162.552,21.6495 161.5,21.5C 161.64,23.1238 160.973,24.2904 159.5,25C 160.167,25.3333 160.833,25.6667 161.5,26C 160.062,26.2189 158.729,26.7189 157.5,27.5C 158.855,28.6753 158.688,29.6753 157,30.5C 156.282,29.5494 155.449,29.3828 154.5,30C 154.854,31.6255 154.854,33.4588 154.5,35.5C 153.448,35.3505 152.448,35.5172 151.5,36C 151.833,36.3333 152.167,36.6667 152.5,37C 150.321,37.4419 149.655,38.4419 150.5,40C 149.809,41.0674 149.309,42.2341 149,43.5C 148.667,42.5 148.333,41.5 148,40.5C 147.167,42 146,43.1667 144.5,44C 144.833,44.3333 145.167,44.6667 145.5,45C 144.999,47.0623 143.999,49.229 142.5,51.5C 136.833,51.5 131.167,51.5 125.5,51.5C 125.369,50.6236 125.702,49.9569 126.5,49.5C 127.396,50.5063 128.062,50.5063 128.5,49.5C 127.624,48.7492 126.624,48.2492 125.5,48C 126.872,47.5983 128.205,47.0983 129.5,46.5C 131.123,47.4756 132.457,46.9756 133.5,45C 132.643,44.3109 131.977,43.4776 131.5,42.5C 132.035,40.7295 132.869,40.3961 134,41.5C 134.973,39.6079 135.64,37.6079 136,35.5C 137.676,34.9389 139.009,33.9389 140,32.5C 143.11,33.6734 143.277,33.1734 140.5,31C 141.833,30 141.833,29 140.5,28C 142.259,27.0196 143.926,26.353 145.5,26C 144.833,24.6667 143.833,23.6667 142.5,23C 143.833,22 143.833,21 142.5,20C 143.766,19.6905 144.933,19.1905 146,18.5C 146.333,19.1667 146.667,19.8333 147,20.5C 148.5,18.1667 150,15.8333 151.5,13.5C 152.478,13.9767 153.311,14.6433 154,15.5C 156.238,12.3124 155.738,9.64574 152.5,7.5C 152.833,7.16667 153.167,6.83333 153.5,6.5C 154.532,8.03963 155.865,8.53963 157.5,8C 156.692,7.69238 156.025,7.19238 155.5,6.5C 158.125,4.91856 159.458,2.58523 159.5,-0.5 Z"/></g>
<g><path style="opacity:1" fill="#f970d9" d="M 72.5,-0.5 C 74.1667,-0.5 75.8333,-0.5 77.5,-0.5C 77.3493,1.66511 76.6826,3.99844 75.5,6.5C 74.4535,9.37455 72.4535,11.3746 69.5,12.5C 70.5981,11.603 70.5981,10.7697 69.5,10C 70.5,9.16667 71.5,8.33333 72.5,7.5C 71.1745,7.7948 69.8412,7.2948 68.5,6C 68.8333,5.66667 69.1667,5.33333 69.5,5C 68.6433,4.31091 67.9767,3.47758 67.5,2.5C 68.6605,2.56344 69.9938,2.2301 71.5,1.5C 72.2975,1.04311 72.6309,0.376442 72.5,-0.5 Z"/></g>
<g><path style="opacity:0.999" fill="#f85bd3" d="M 176.5,3.5 C 176.5,17.5 176.5,31.5 176.5,45.5C 175.585,48.0857 173.918,50.0857 171.5,51.5C 161.833,51.5 152.167,51.5 142.5,51.5C 143.999,49.229 144.999,47.0623 145.5,45C 145.167,44.6667 144.833,44.3333 144.5,44C 146,43.1667 147.167,42 148,40.5C 148.333,41.5 148.667,42.5 149,43.5C 149.309,42.2341 149.809,41.0674 150.5,40C 149.655,38.4419 150.321,37.4419 152.5,37C 152.167,36.6667 151.833,36.3333 151.5,36C 152.448,35.5172 153.448,35.3505 154.5,35.5C 154.854,33.4588 154.854,31.6255 154.5,30C 155.449,29.3828 156.282,29.5494 157,30.5C 158.688,29.6753 158.855,28.6753 157.5,27.5C 158.729,26.7189 160.062,26.2189 161.5,26C 160.833,25.6667 160.167,25.3333 159.5,25C 160.973,24.2904 161.64,23.1238 161.5,21.5C 162.552,21.6495 163.552,21.4828 164.5,21C 162.203,19.8403 162.536,18.8403 165.5,18C 164.359,15.2978 165.359,13.6311 168.5,13C 168.043,12.586 167.709,12.086 167.5,11.5C 168.783,9.15575 170.616,6.82242 173,4.5C 173.333,4.83333 173.667,5.16667 174,5.5C 174.708,4.61947 175.542,3.9528 176.5,3.5 Z"/></g>
<g><path style="opacity:0.998" fill="#f96fd8" d="M 75.5,6.5 C 76.4959,6.41423 77.3292,6.74756 78,7.5C 78.3333,6.83333 78.6667,6.16667 79,5.5C 80.6469,7.63128 80.3136,9.63128 78,11.5C 77.1667,10.6667 76.3333,9.83333 75.5,9C 76.5981,8.23029 76.5981,7.39695 75.5,6.5 Z"/></g>
<g><path style="opacity:0.996" fill="#f975da" d="M 41.5,-0.5 C 46.1667,-0.5 50.8333,-0.5 55.5,-0.5C 54.4288,1.37705 53.0955,2.04372 51.5,1.5C 52.0253,2.19238 52.6919,2.69238 53.5,3C 53.3068,4.64534 53.1402,6.47868 53,8.5C 52.7508,7.37598 52.2508,6.37598 51.5,5.5C 50.2888,6.2739 50.2888,7.10723 51.5,8C 49.1747,10.1378 46.8413,11.4712 44.5,12C 43.0956,14.193 42.5956,16.3597 43,18.5C 41.6072,15.8749 40.4405,15.8749 39.5,18.5C 38.5222,18.189 37.8555,17.5223 37.5,16.5C 39.3479,15.5833 41.3479,14.0833 43.5,12C 42.9558,11.2828 42.2891,10.7828 41.5,10.5C 41.2969,8.95568 40.6302,7.62235 39.5,6.5C 40.2739,5.28882 41.1072,5.28882 42,6.5C 45.2101,4.32881 45.5434,2.32881 43,0.5C 41.9924,5.54095 41.4924,5.20761 41.5,-0.5 Z"/></g>
<g><path style="opacity:1" fill="#f972d9" d="M 58.5,-0.5 C 59.5,-0.5 60.5,-0.5 61.5,-0.5C 61.4142,0.495904 61.7476,1.32924 62.5,2C 59.3733,3.64976 59.04,5.48309 61.5,7.5C 61.2267,9.45101 61.8934,10.951 63.5,12C 60.1394,15.5745 56.3061,18.7412 52,21.5C 52.1953,23.1261 52.1953,24.7928 52,26.5C 51.5,25.5 51,24.5 50.5,23.5C 48.5896,22.2879 48.2563,22.6212 49.5,24.5C 45.3659,27.2321 45.6993,29.3987 50.5,31C 49.6721,31.9147 48.6721,32.5814 47.5,33C 48.6467,34.2811 48.3134,34.6144 46.5,34C 45.8971,31.9286 44.5638,30.7619 42.5,30.5C 43.1888,29.2928 43.3554,27.9594 43,26.5C 44.6095,25.8534 46.1095,25.02 47.5,24C 46.3961,22.8687 46.7295,22.0354 48.5,21.5C 49.4287,20.3112 49.762,18.9778 49.5,17.5C 52.5983,17.5875 52.9316,17.0875 50.5,16C 51.7282,15.221 52.7282,14.221 53.5,13C 54.9475,8.34589 56.6141,3.84589 58.5,-0.5 Z"/></g>
<g><path style="opacity:1" fill="#f96ad7" d="M 101.5,11.5 C 102.478,11.811 103.145,12.4777 103.5,13.5C 102.643,14.3998 101.976,14.0664 101.5,12.5C 101.5,12.1667 101.5,11.8333 101.5,11.5 Z"/></g>
<g><path style="opacity:0.999" fill="#f974da" d="M 55.5,-0.5 C 56.5,-0.5 57.5,-0.5 58.5,-0.5C 56.6141,3.84589 54.9475,8.34589 53.5,13C 52.7282,14.221 51.7282,15.221 50.5,16C 52.9316,17.0875 52.5983,17.5875 49.5,17.5C 49.762,18.9778 49.4287,20.3112 48.5,21.5C 46.7295,22.0354 46.3961,22.8687 47.5,24C 46.1095,25.02 44.6095,25.8534 43,26.5C 43.3554,27.9594 43.1888,29.2928 42.5,30.5C 40.6075,31.7017 38.7742,33.035 37,34.5C 36.6667,34.1667 36.3333,33.8333 36,33.5C 34.3542,35.0548 34.0209,36.7215 35,38.5C 33.794,35.6987 31.9607,34.6987 29.5,35.5C 30.4646,32.7022 30.9646,30.0356 31,27.5C 31.3333,27.8333 31.6667,28.1667 32,28.5C 32.5,27.3333 33.3333,26.5 34.5,26C 33.5,25.6667 32.5,25.3333 31.5,25C 34.7846,24.2411 37.7846,22.9078 40.5,21C 39.5,20.6667 38.5,20.3333 37.5,20C 38.4158,19.7216 39.0825,19.2216 39.5,18.5C 40.4405,15.8749 41.6072,15.8749 43,18.5C 42.5956,16.3597 43.0956,14.193 44.5,12C 46.8413,11.4712 49.1747,10.1378 51.5,8C 50.2888,7.10723 50.2888,6.2739 51.5,5.5C 52.2508,6.37598 52.7508,7.37598 53,8.5C 53.1402,6.47868 53.3068,4.64534 53.5,3C 52.6919,2.69238 52.0253,2.19238 51.5,1.5C 53.0955,2.04372 54.4288,1.37705 55.5,-0.5 Z"/></g>
<g><path style="opacity:1" fill="#f976da" d="M 41.5,10.5 C 42.2891,10.7828 42.9558,11.2828 43.5,12C 41.3479,14.0833 39.3479,15.5833 37.5,16.5C 37.8555,17.5223 38.5222,18.189 39.5,18.5C 39.0825,19.2216 38.4158,19.7216 37.5,20C 38.5,20.3333 39.5,20.6667 40.5,21C 37.7846,22.9078 34.7846,24.2411 31.5,25C 32.5,25.3333 33.5,25.6667 34.5,26C 33.3333,26.5 32.5,27.3333 32,28.5C 31.6667,28.1667 31.3333,27.8333 31,27.5C 30.9646,30.0356 30.4646,32.7022 29.5,35.5C 30.9538,37.2633 30.6204,38.5967 28.5,39.5C 27.1779,39.67 26.0113,39.3366 25,38.5C 24.6905,39.7659 24.1905,40.9326 23.5,42C 25.9011,42.805 25.7344,43.6383 23,44.5C 21.25,44.4127 19.4167,43.746 17.5,42.5C 17.4226,41.2502 16.756,40.4169 15.5,40C 21.9846,39.4335 22.6513,37.7668 17.5,35C 19.2464,34.5291 20.913,33.8624 22.5,33C 22.1667,32.6667 21.8333,32.3333 21.5,32C 23.5634,28.2694 26.5634,25.6028 30.5,24C 29.8333,23.3333 29.1667,22.6667 28.5,22C 29.7895,19.6577 31.7895,17.3244 34.5,15C 34.1667,14 33.8333,13 33.5,12C 34.7766,11.8726 35.9433,12.3726 37,13.5C 38.641,12.4832 40.141,11.4832 41.5,10.5 Z"/></g>
<g><path style="opacity:1" fill="#f971d9" d="M 61.5,7.5 C 63.335,8.12225 64.5017,9.45559 65,11.5C 65.8333,10.5 66.6667,9.5 67.5,8.5C 68.1719,9.94916 68.8386,11.2825 69.5,12.5C 70.9526,13.8249 70.6192,14.6582 68.5,15C 69.8627,17.1293 69.5294,17.6293 67.5,16.5C 66.5,17.5 65.5,18.5 64.5,19.5C 65.2015,21.7756 65.0349,24.1089 64,26.5C 63.0853,25.6721 62.4186,24.6721 62,23.5C 61.5357,24.0944 61.369,24.7611 61.5,25.5C 60.8826,25.3893 60.3826,25.056 60,24.5C 58.8289,25.8932 57.3289,26.7265 55.5,27C 56.1667,27.3333 56.8333,27.6667 57.5,28C 56.7476,28.6708 56.4142,29.5041 56.5,30.5C 58.129,32.1959 57.7957,33.1959 55.5,33.5C 53.2895,34.1228 51.2895,35.1228 49.5,36.5C 48.4583,35.2089 47.2917,35.2089 46,36.5C 45.0853,35.6721 44.4186,34.6721 44,33.5C 43.2303,34.5981 42.397,34.5981 41.5,33.5C 42.1098,32.609 42.4431,31.609 42.5,30.5C 44.5638,30.7619 45.8971,31.9286 46.5,34C 48.3134,34.6144 48.6467,34.2811 47.5,33C 48.6721,32.5814 49.6721,31.9147 50.5,31C 45.6993,29.3987 45.3659,27.2321 49.5,24.5C 48.2563,22.6212 48.5896,22.2879 50.5,23.5C 51,24.5 51.5,25.5 52,26.5C 52.1953,24.7928 52.1953,23.1261 52,21.5C 56.3061,18.7412 60.1394,15.5745 63.5,12C 61.8934,10.951 61.2267,9.45101 61.5,7.5 Z"/></g>
<g><path style="opacity:0.998" fill="#f96ad7" d="M 93.5,22.5 C 94.4646,23.7211 94.298,25.0544 93,26.5C 92.7216,25.5842 92.2216,24.9175 91.5,24.5C 92.1667,23.8333 92.8333,23.1667 93.5,22.5 Z"/></g>
<g><path style="opacity:0.997" fill="#f970d9" d="M 61.5,25.5 C 61.6495,26.552 61.4828,27.552 61,28.5C 60.6667,28.1667 60.3333,27.8333 60,27.5C 58.9609,28.7101 57.7942,29.7101 56.5,30.5C 56.4142,29.5041 56.7476,28.6708 57.5,28C 56.8333,27.6667 56.1667,27.3333 55.5,27C 57.3289,26.7265 58.8289,25.8932 60,24.5C 60.3826,25.056 60.8826,25.3893 61.5,25.5 Z"/></g>
<g><path style="opacity:1" fill="#f970d8" d="M 55.5,33.5 C 56.5009,34.7887 56.3342,36.1221 55,37.5C 53.9505,36.4829 52.7839,36.3162 51.5,37C 53.9519,38.8064 53.6186,40.3064 50.5,41.5C 52.3823,41.1546 54.3823,41.6546 56.5,43C 54.1667,43.3333 51.8333,43.6667 49.5,44C 51.3939,45.1011 52.0606,46.4345 51.5,48C 48.723,48.0614 46.723,49.228 45.5,51.5C 44.5,51.5 43.5,51.5 42.5,51.5C 41.5401,50.7168 40.8735,49.5502 40.5,48C 42.0146,43.8187 44.8479,40.9854 49,39.5C 49.4828,38.552 49.6495,37.552 49.5,36.5C 51.2895,35.1228 53.2895,34.1228 55.5,33.5 Z"/></g>
<g><path style="opacity:0.996" fill="#f975da" d="M 28.5,39.5 C 31.1945,42.2939 30.6945,43.2939 27,42.5C 26.5348,43.9308 25.7014,45.0975 24.5,46C 25.6734,49.1103 25.1734,49.277 23,46.5C 21.0073,48.4061 21.5073,49.5727 24.5,50C 23.944,50.3826 23.6107,50.8826 23.5,51.5C 21.5,51.5 19.5,51.5 17.5,51.5C 20.8045,50.5934 21.1378,49.0934 18.5,47C 19.1667,46.6667 19.8333,46.3333 20.5,46C 19.3333,45.5 18.5,44.6667 18,43.5C 17.6174,44.056 17.1174,44.3893 16.5,44.5C 16.3284,43.5084 16.6618,42.8417 17.5,42.5C 19.4167,43.746 21.25,44.4127 23,44.5C 25.7344,43.6383 25.9011,42.805 23.5,42C 24.1905,40.9326 24.6905,39.7659 25,38.5C 26.0113,39.3366 27.1779,39.67 28.5,39.5 Z"/></g>
<g><path style="opacity:0.996" fill="#f96ad7" d="M 82.5,38.5 C 81.0474,39.8249 81.3808,40.6582 83.5,41C 82.1487,42.6171 80.482,43.7838 78.5,44.5C 79.5498,45.4288 79.5498,46.0954 78.5,46.5C 77.5272,45.2086 76.5272,45.2086 75.5,46.5C 74.479,45.9984 74.3123,45.3317 75,44.5C 78.0503,43.5614 80.5503,41.5614 82.5,38.5 Z"/></g>
<g><path style="opacity:1" fill="#f972d9" d="M 41.5,33.5 C 42.397,34.5981 43.2303,34.5981 44,33.5C 44.4186,34.6721 45.0853,35.6721 46,36.5C 47.2917,35.2089 48.4583,35.2089 49.5,36.5C 49.6495,37.552 49.4828,38.552 49,39.5C 44.8479,40.9854 42.0146,43.8187 40.5,48C 40.8735,49.5502 41.5401,50.7168 42.5,51.5C 39.1667,51.5 35.8333,51.5 32.5,51.5C 31.4027,48.5127 29.9027,48.1794 28,50.5C 27.5,50 27,49.5 26.5,49C 27.8491,48.2276 28.6824,47.0609 29,45.5C 30.6092,46.1501 32.1092,45.6501 33.5,44C 32.8333,43.6667 32.1667,43.3333 31.5,43C 33.1346,42.4604 34.4679,42.9604 35.5,44.5C 38.2601,42.5444 40.2601,40.0444 41.5,37C 40.3157,35.8545 40.3157,34.6879 41.5,33.5 Z"/></g>
<g><path style="opacity:1" fill="#f976da" d="M 16.5,44.5 C 17.1174,44.3893 17.6174,44.056 18,43.5C 18.5,44.6667 19.3333,45.5 20.5,46C 19.8333,46.3333 19.1667,46.6667 18.5,47C 21.1378,49.0934 20.8045,50.5934 17.5,51.5C 15.5,51.5 13.5,51.5 11.5,51.5C 11.5858,50.5041 11.2524,49.6708 10.5,49C 12.6964,47.7775 14.1964,45.9442 15,43.5C 15.3826,44.056 15.8826,44.3893 16.5,44.5 Z"/></g>
<g><path style="opacity:0.998" fill="#f973d9" d="M 42.5,30.5 C 42.4431,31.609 42.1098,32.609 41.5,33.5C 40.3157,34.6879 40.3157,35.8545 41.5,37C 40.2601,40.0444 38.2601,42.5444 35.5,44.5C 34.4679,42.9604 33.1346,42.4604 31.5,43C 32.1667,43.3333 32.8333,43.6667 33.5,44C 32.1092,45.6501 30.6092,46.1501 29,45.5C 28.6824,47.0609 27.8491,48.2276 26.5,49C 27,49.5 27.5,50 28,50.5C 29.9027,48.1794 31.4027,48.5127 32.5,51.5C 29.5,51.5 26.5,51.5 23.5,51.5C 23.6107,50.8826 23.944,50.3826 24.5,50C 21.5073,49.5727 21.0073,48.4061 23,46.5C 25.1734,49.277 25.6734,49.1103 24.5,46C 25.7014,45.0975 26.5348,43.9308 27,42.5C 30.6945,43.2939 31.1945,42.2939 28.5,39.5C 30.6204,38.5967 30.9538,37.2633 29.5,35.5C 31.9607,34.6987 33.794,35.6987 35,38.5C 34.0209,36.7215 34.3542,35.0548 36,33.5C 36.3333,33.8333 36.6667,34.1667 37,34.5C 38.7742,33.035 40.6075,31.7017 42.5,30.5 Z"/></g>
<g><path style="opacity:0.999" fill="#f857d1" d="M 176.5,45.5 C 176.5,47.5 176.5,49.5 176.5,51.5C 174.833,51.5 173.167,51.5 171.5,51.5C 173.918,50.0857 175.585,48.0857 176.5,45.5 Z"/></g>
</svg>
