<?xml version="1.0" encoding="UTF-8"?>
<!DOCTYPE svg PUBLIC "-//W3C//DTD SVG 1.1//EN" "http://www.w3.org/Graphics/SVG/1.1/DTD/svg11.dtd">
<svg xmlns="http://www.w3.org/2000/svg" version="1.1" width="46px" height="48px" style="shape-rendering:geometricPrecision; text-rendering:geometricPrecision; image-rendering:optimizeQuality; fill-rule:evenodd; clip-rule:evenodd" xmlns:xlink="http://www.w3.org/1999/xlink">
<g><path style="opacity:0.916" fill="#ff7647" d="M 4.5,4.5 C 16.1667,4.5 27.8333,4.5 39.5,4.5C 38.9984,15.853 38.1651,27.1864 37,38.5C 27,43.8333 17,43.8333 7,38.5C 5.83493,27.1864 5.0016,15.853 4.5,4.5 Z"/></g>
<g><path style="opacity:1" fill="#ff945b" d="M 22.5,34.5 C 24.9925,33.2264 27.6592,32.5597 30.5,32.5C 30.5,28.5 30.5,24.5 30.5,20.5C 26.1667,20.5 21.8333,20.5 17.5,20.5C 17.5,19.1667 17.5,17.8333 17.5,16.5C 22.1667,16.5 26.8333,16.5 31.5,16.5C 31.5,15.1667 31.5,13.8333 31.5,12.5C 28.5,12.5 25.5,12.5 22.5,12.5C 22.5,10.8333 22.5,9.16667 22.5,7.5C 26.8333,7.5 31.1667,7.5 35.5,7.5C 35.4651,16.5234 34.9651,25.5234 34,34.5C 30.6205,36.9054 26.7871,38.2387 22.5,38.5C 22.5,37.1667 22.5,35.8333 22.5,34.5 Z"/></g>
<g><path style="opacity:1" fill="#fcf6f2" d="M 22.5,12.5 C 25.5,12.5 28.5,12.5 31.5,12.5C 31.5,13.8333 31.5,15.1667 31.5,16.5C 26.8333,16.5 22.1667,16.5 17.5,16.5C 17.5,17.8333 17.5,19.1667 17.5,20.5C 21.8333,20.5 26.1667,20.5 30.5,20.5C 30.5,24.5 30.5,28.5 30.5,32.5C 27.6592,32.5597 24.9925,33.2264 22.5,34.5C 16.5964,34.9061 13.9297,32.2394 14.5,26.5C 15.8333,26.5 17.1667,26.5 18.5,26.5C 18.2852,28.1788 18.9519,29.1788 20.5,29.5C 22.3093,30.2907 24.3093,30.2907 26.5,29.5C 26.5,27.8333 26.5,26.1667 26.5,24.5C 25.1667,24.5 23.8333,24.5 22.5,24.5C 19.5,24.5 16.5,24.5 13.5,24.5C 13.5,20.5 13.5,16.5 13.5,12.5C 16.5,12.5 19.5,12.5 22.5,12.5 Z"/></g>
<g><path style="opacity:1" fill="#ffa16c" d="M 22.5,24.5 C 23.8333,24.5 25.1667,24.5 26.5,24.5C 26.5,26.1667 26.5,27.8333 26.5,29.5C 24.3093,30.2907 22.3093,30.2907 20.5,29.5C 22.256,28.4479 22.9227,26.7812 22.5,24.5 Z"/></g>
</svg>
