<?xml version="1.0" encoding="UTF-8"?>
<!DOCTYPE svg PUBLIC "-//W3C//DTD SVG 1.1//EN" "http://www.w3.org/Graphics/SVG/1.1/DTD/svg11.dtd">
<svg xmlns="http://www.w3.org/2000/svg" version="1.1" width="48px" height="48px" style="shape-rendering:geometricPrecision; text-rendering:geometricPrecision; image-rendering:optimizeQuality; fill-rule:evenodd; clip-rule:evenodd" xmlns:xlink="http://www.w3.org/1999/xlink">
<g><path style="opacity:0.745" fill="#f44435" d="M 27.5,24.5 C 26.8333,24.5 26.5,24.8333 26.5,25.5C 25.5,25.5 24.5,25.5 23.5,25.5C 23.5,25.1667 23.5,24.8333 23.5,24.5C 19.9992,23.1636 17.6659,20.6636 16.5,17C 19.6814,12.4894 22.8481,7.98942 26,3.5C 26.9907,4.42956 27.4907,5.59622 27.5,7C 27.0495,8.5496 26.8829,10.0496 27,11.5C 28.7261,10.4238 30.5594,10.2571 32.5,11C 30.0243,12.3088 28.0243,14.1421 26.5,16.5C 28.4779,19.0433 28.8113,21.7099 27.5,24.5 Z M 22.5,15.5 C 22.7976,18.2646 23.7976,20.7646 25.5,23C 24.9558,23.7172 24.2891,24.2172 23.5,24.5C 22.914,22.1602 21.914,19.9935 20.5,18C 21.0659,17.0053 21.7326,16.172 22.5,15.5 Z"/></g>
<g><path style="opacity:0.753" fill="#1663c1" d="M 23.5,25.5 C 24.5,25.5 25.5,25.5 26.5,25.5C 27.1667,25.5 27.5,25.1667 27.5,24.5C 30.7383,23.6051 33.9049,23.6051 37,24.5C 37.8972,30.0985 35.7305,32.4318 30.5,31.5C 29.1266,31.3433 27.7932,31.51 26.5,32C 30.2991,33.5529 30.2991,34.8862 26.5,36C 22.0764,36.1801 17.7431,36.3468 13.5,36.5C 21.529,39.2125 29.1957,38.5458 36.5,34.5C 36.7035,36.3904 36.0368,37.8904 34.5,39C 35.9961,39.5074 37.1627,39.0074 38,37.5C 38.7112,39.3668 38.2112,40.8668 36.5,42C 29.9161,43.544 23.2494,43.8773 16.5,43C 13.9139,41.6891 11.4139,40.1891 9,38.5C 8.70099,33.9737 10.701,32.6404 15,34.5C 17.4067,32.1253 16.9067,31.1253 13.5,31.5C 13.33,30.1779 13.6634,29.0113 14.5,28C 13.2341,27.6905 12.0674,27.1905 11,26.5C 10.3123,25.6683 10.479,25.0016 11.5,24.5C 14.1029,23.4383 16.7695,23.2716 19.5,24C 18.5,24.3333 17.5,24.6667 16.5,25C 18.8098,25.4966 21.1432,25.6633 23.5,25.5 Z M 30.5,31.5 C 30.1164,29.7074 28.9497,28.7074 27,28.5C 24.2134,29.5174 21.38,29.6841 18.5,29C 23.2574,28.5853 27.7574,27.4186 32,25.5C 33.0588,25.6301 33.8921,26.1301 34.5,27C 33.6719,28.9923 32.3386,30.4923 30.5,31.5 Z"/></g>
</svg>
