<?xml version="1.0" encoding="UTF-8"?>
<!DOCTYPE svg PUBLIC "-//W3C//DTD SVG 1.1//EN" "http://www.w3.org/Graphics/SVG/1.1/DTD/svg11.dtd">
<svg xmlns="http://www.w3.org/2000/svg" version="1.1" width="125px" height="52px" style="shape-rendering:geometricPrecision; text-rendering:geometricPrecision; image-rendering:optimizeQuality; fill-rule:evenodd; clip-rule:evenodd" xmlns:xlink="http://www.w3.org/1999/xlink">
<g><path style="opacity:0.999" fill="#fa7ddc" d="M -0.5,-0.5 C 3.5,-0.5 7.5,-0.5 11.5,-0.5C 10.7101,0.794229 9.7101,1.9609 8.5,3C 9.16667,3.33333 9.83333,3.66667 10.5,4C 7.52599,5.50572 7.19265,7.17239 9.5,9C 6.83333,10.3333 4.83333,12.3333 3.5,15C 4.16667,15.3333 4.83333,15.6667 5.5,16C 4.03967,17.582 2.373,18.9153 0.5,20C 2.89118,20.6914 2.89118,21.6914 0.5,23C 2.94683,24.2289 3.11349,25.7289 1,27.5C 0.721579,26.5842 0.221579,25.9175 -0.5,25.5C -0.5,16.8333 -0.5,8.16667 -0.5,-0.5 Z"/></g>
<g><path style="opacity:0.999" fill="#f979db" d="M 11.5,-0.5 C 17.5,-0.5 23.5,-0.5 29.5,-0.5C 31.7428,3.01248 31.0762,6.17915 27.5,9C 27.7284,9.39877 28.0618,9.56544 28.5,9.5C 27.9214,11.8671 26.588,13.7005 24.5,15C 25.5814,16.7106 25.248,18.2106 23.5,19.5C 21.9256,19.9371 20.7589,20.9371 20,22.5C 19.043,20.2908 17.8764,20.4575 16.5,23C 18.3373,25.1421 18.6706,27.3087 17.5,29.5C 18.1667,30.1667 18.8333,30.8333 19.5,31.5C 17.6177,31.1546 15.6177,31.6546 13.5,33C 14.5822,34.3297 15.2488,35.8297 15.5,37.5C 14.8333,37.5 14.5,37.8333 14.5,38.5C 11.7237,38.0889 11.057,38.9223 12.5,41C 11.8993,42.605 10.8993,43.9384 9.5,45C 9.83333,45.3333 10.1667,45.6667 10.5,46C 8.11669,46.065 7.45003,46.8983 8.5,48.5C 5.89762,49.1324 3.56429,50.1324 1.5,51.5C 0.833333,51.5 0.166667,51.5 -0.5,51.5C -0.5,42.8333 -0.5,34.1667 -0.5,25.5C 0.221579,25.9175 0.721579,26.5842 1,27.5C 3.11349,25.7289 2.94683,24.2289 0.5,23C 2.89118,21.6914 2.89118,20.6914 0.5,20C 2.373,18.9153 4.03967,17.582 5.5,16C 4.83333,15.6667 4.16667,15.3333 3.5,15C 4.83333,12.3333 6.83333,10.3333 9.5,9C 7.19265,7.17239 7.52599,5.50572 10.5,4C 9.83333,3.66667 9.16667,3.33333 8.5,3C 9.7101,1.9609 10.7101,0.794229 11.5,-0.5 Z"/></g>
<g><path style="opacity:1" fill="#f975da" d="M 32.5,-0.5 C 34.8333,-0.5 37.1667,-0.5 39.5,-0.5C 40.2178,1.13676 40.3845,2.80343 40,4.5C 39.3333,1.83333 38.6667,1.83333 38,4.5C 37.6667,3.83333 37.3333,3.16667 37,2.5C 36.7508,3.62402 36.2508,4.62402 35.5,5.5C 34.8933,5.37642 34.56,5.04309 34.5,4.5C 33.5592,2.95047 32.8925,1.2838 32.5,-0.5 Z"/></g>
<g><path style="opacity:0.998" fill="#f973d9" d="M 39.5,-0.5 C 43.5,-0.5 47.5,-0.5 51.5,-0.5C 50.3998,0.558465 49.0664,1.3918 47.5,2C 48.7932,2.49001 50.1266,2.65668 51.5,2.5C 51.5,3.5 51.5,4.5 51.5,5.5C 49.4279,4.55996 47.4279,4.8933 45.5,6.5C 44.3961,5.36872 44.7295,4.53539 46.5,4C 45.5838,3.62576 44.7504,3.12576 44,2.5C 42.8049,5.1873 42.6382,7.85397 43.5,10.5C 38.3833,12.0187 37.3833,14.852 40.5,19C 40.0433,20.9402 39.0433,22.4402 37.5,23.5C 33.5658,22.8798 32.7324,20.5465 35,16.5C 35.9195,16.0698 36.7528,15.7365 37.5,15.5C 37.0645,13.0034 35.7312,11.8367 33.5,12C 33.9662,13.2988 33.9662,14.7988 33.5,16.5C 32.5,16.5 31.5,16.5 30.5,16.5C 31.1079,15.2003 31.7745,13.8669 32.5,12.5C 32.3918,11.5581 32.0585,10.7247 31.5,10C 35.2054,9.57826 35.8721,8.41159 33.5,6.5C 33.3284,5.50838 33.6618,4.84171 34.5,4.5C 34.56,5.04309 34.8933,5.37642 35.5,5.5C 36.2508,4.62402 36.7508,3.62402 37,2.5C 37.3333,3.16667 37.6667,3.83333 38,4.5C 38.6667,1.83333 39.3333,1.83333 40,4.5C 40.3845,2.80343 40.2178,1.13676 39.5,-0.5 Z"/></g>
<g><path style="opacity:0.998" fill="#f96fd8" d="M 58.5,-0.5 C 59.5,-0.5 60.5,-0.5 61.5,-0.5C 59.1498,1.66039 58.4831,4.16039 59.5,7C 58.1233,8.24098 56.79,8.40765 55.5,7.5C 58.1247,6.46572 58.1247,5.46572 55.5,4.5C 57.2785,3.33026 58.2785,1.6636 58.5,-0.5 Z"/></g>
<g><path style="opacity:1" fill="#f96dd7" d="M 61.5,-0.5 C 66.5,-0.5 71.5,-0.5 76.5,-0.5C 76.5674,0.95875 76.2341,2.29208 75.5,3.5C 74.7611,3.36899 74.0944,3.53566 73.5,4C 73.8836,4.9506 74.2169,5.78393 74.5,6.5C 73.1461,10.0317 71.1461,13.1984 68.5,16C 68.8333,17 69.1667,18 69.5,19C 68.2986,19.9025 67.4652,21.0692 67,22.5C 66.5488,20.0712 65.7155,19.9045 64.5,22C 65.7736,22.9772 65.7736,23.8106 64.5,24.5C 64.2172,23.7109 63.7172,23.0442 63,22.5C 62.4209,23.9285 62.5876,25.2618 63.5,26.5C 62.6827,29.4786 61.8494,32.4786 61,35.5C 60.3292,34.7476 59.4959,34.4142 58.5,34.5C 57.6091,35.2613 56.9424,36.2613 56.5,37.5C 56.9569,38.2975 57.6236,38.6309 58.5,38.5C 58.6107,39.1174 58.944,39.6174 59.5,40C 56.758,41.8864 55.0913,44.3864 54.5,47.5C 53.8826,47.3893 53.3826,47.056 53,46.5C 51.9914,48.0249 51.4914,49.6916 51.5,51.5C 46.1667,51.5 40.8333,51.5 35.5,51.5C 34.1084,48.9746 34.4418,46.8079 36.5,45C 35.244,44.5831 34.5774,43.7498 34.5,42.5C 35.2216,42.0825 35.7216,41.4158 36,40.5C 36.6914,42.8912 37.6914,42.8912 39,40.5C 39.195,39.1807 39.0283,37.8474 38.5,36.5C 38.9175,35.7784 39.5842,35.2784 40.5,35C 39.244,34.5831 38.5774,33.7498 38.5,32.5C 40.1789,32.1077 41.8455,31.6077 43.5,31C 43.2642,29.5491 43.2642,28.0491 43.5,26.5C 43.5,26.1667 43.5,25.8333 43.5,25.5C 44.4584,25.9528 45.2917,26.6195 46,27.5C 46.1667,26.8333 46.3333,26.1667 46.5,25.5C 45.5697,23.8953 45.5697,22.3953 46.5,21C 45.9558,20.2828 45.2891,19.7828 44.5,19.5C 45.209,18.596 46.209,18.2627 47.5,18.5C 48.4853,18.1552 48.8187,17.1552 48.5,15.5C 49.2575,16.8114 50.2575,17.3114 51.5,17C 51.1667,16.6667 50.8333,16.3333 50.5,16C 53.9135,14.0856 54.2469,11.9189 51.5,9.5C 51.5569,8.39105 51.8902,7.39105 52.5,6.5C 53.2279,4.70912 54.2279,4.04245 55.5,4.5C 58.1247,5.46572 58.1247,6.46572 55.5,7.5C 56.79,8.40765 58.1233,8.24098 59.5,7C 58.4831,4.16039 59.1498,1.66039 61.5,-0.5 Z"/></g>
<g><path style="opacity:0.999" fill="#f866d6" d="M 76.5,-0.5 C 84.8333,-0.5 93.1667,-0.5 101.5,-0.5C 100.402,0.396953 100.402,1.23029 101.5,2C 100.692,2.30762 100.025,2.80762 99.5,3.5C 100.167,3.83333 100.833,4.16667 101.5,4.5C 100.5,5.16667 99.5,5.83333 98.5,6.5C 99.0302,8.24381 99.0302,9.74381 98.5,11C 97.2566,13.0338 95.7566,13.8671 94,13.5C 93.3828,14.4491 93.5494,15.2825 94.5,16C 91.4557,16.3589 91.1224,17.0255 93.5,18C 91.6161,19.9891 91.2828,21.9891 92.5,24C 91.1218,25.7134 89.4552,27.0467 87.5,28C 88.8146,29.3946 88.4812,30.3946 86.5,31C 87.2797,32.073 87.113,33.2396 86,34.5C 85.0862,33.3463 84.2529,33.513 83.5,35C 83.3775,36.7891 83.3775,38.6225 83.5,40.5C 81.7227,41.901 80.056,43.401 78.5,45C 79.3279,45.9147 80.3279,46.5814 81.5,47C 79.3563,47.7921 78.023,49.2921 77.5,51.5C 69.5,51.5 61.5,51.5 53.5,51.5C 53.5106,49.9826 54.1772,48.8159 55.5,48C 55.2716,47.6012 54.9382,47.4346 54.5,47.5C 55.0913,44.3864 56.758,41.8864 59.5,40C 58.944,39.6174 58.6107,39.1174 58.5,38.5C 59.6857,37.2946 59.6857,35.9613 58.5,34.5C 59.4959,34.4142 60.3292,34.7476 61,35.5C 61.8494,32.4786 62.6827,29.4786 63.5,26.5C 65.6977,26.5912 66.0311,25.9245 64.5,24.5C 65.7736,23.8106 65.7736,22.9772 64.5,22C 65.7155,19.9045 66.5488,20.0712 67,22.5C 67.4652,21.0692 68.2986,19.9025 69.5,19C 69.1667,18 68.8333,17 68.5,16C 71.1461,13.1984 73.1461,10.0317 74.5,6.5C 76.3818,5.77896 76.7152,4.77896 75.5,3.5C 76.2341,2.29208 76.5674,0.95875 76.5,-0.5 Z"/></g>
<g><path style="opacity:0.999" fill="#f861d5" d="M 101.5,-0.5 C 106.5,-0.5 111.5,-0.5 116.5,-0.5C 115.432,0.434475 114.099,0.767809 112.5,0.5C 112.631,3.32886 111.631,4.66219 109.5,4.5C 109.977,5.47758 110.643,6.31091 111.5,7C 110.049,6.73739 108.716,6.90405 107.5,7.5C 108.811,8.25753 109.311,9.25753 109,10.5C 108.586,10.0426 108.086,9.70931 107.5,9.5C 106.289,10.2739 106.289,11.1072 107.5,12C 102.167,12.6667 102.167,13.3333 107.5,14C 107.167,14.3333 106.833,14.6667 106.5,15C 110.237,15.9991 110.237,17.3325 106.5,19C 106.833,19.3333 107.167,19.6667 107.5,20C 105.741,20.9804 104.074,21.647 102.5,22C 103.28,23.073 103.113,24.2396 102,25.5C 97.709,27.5314 96.8757,30.3647 99.5,34C 98.2068,34.49 96.8734,34.6567 95.5,34.5C 95.3832,36.4835 96.0499,38.1502 97.5,39.5C 98.2575,38.1886 99.2575,37.6886 100.5,38C 98.8071,40.9517 96.9738,41.1183 95,38.5C 93.9326,39.1905 92.7659,39.6905 91.5,40C 92.5,40.3333 93.5,40.6667 94.5,41C 92.2937,42.6839 90.7937,44.8505 90,47.5C 89.5488,45.0712 88.7155,44.9045 87.5,47C 88.3802,48.3561 88.7135,49.8561 88.5,51.5C 84.8333,51.5 81.1667,51.5 77.5,51.5C 78.023,49.2921 79.3563,47.7921 81.5,47C 80.3279,46.5814 79.3279,45.9147 78.5,45C 80.056,43.401 81.7227,41.901 83.5,40.5C 83.3775,38.6225 83.3775,36.7891 83.5,35C 84.2529,33.513 85.0862,33.3463 86,34.5C 87.113,33.2396 87.2797,32.073 86.5,31C 88.4812,30.3946 88.8146,29.3946 87.5,28C 89.4552,27.0467 91.1218,25.7134 92.5,24C 91.2828,21.9891 91.6161,19.9891 93.5,18C 91.1224,17.0255 91.4557,16.3589 94.5,16C 93.5494,15.2825 93.3828,14.4491 94,13.5C 95.7566,13.8671 97.2566,13.0338 98.5,11C 99.0302,9.74381 99.0302,8.24381 98.5,6.5C 99.5,5.83333 100.5,5.16667 101.5,4.5C 100.833,4.16667 100.167,3.83333 99.5,3.5C 100.025,2.80762 100.692,2.30762 101.5,2C 100.402,1.23029 100.402,0.396953 101.5,-0.5 Z"/></g>
<g><path style="opacity:1" fill="#f85fd4" d="M 116.5,-0.5 C 119.167,-0.5 121.833,-0.5 124.5,-0.5C 124.5,0.166667 124.5,0.833333 124.5,1.5C 122.352,1.38937 122.019,2.05604 123.5,3.5C 122.687,4.81386 121.687,5.98052 120.5,7C 120.957,7.41395 121.291,7.91395 121.5,8.5C 120.187,10.9684 118.521,13.1351 116.5,15C 117.792,17.7569 116.792,19.4235 113.5,20C 113.833,21 114.167,22 114.5,23C 111.509,24.6677 110.509,27.0011 111.5,30C 110.552,30.4828 109.552,30.6495 108.5,30.5C 107.377,32.9579 107.377,35.1246 108.5,37C 106.835,38.6583 105.168,40.325 103.5,42C 104.081,44.1671 103.414,46.1671 101.5,48C 101.833,48.3333 102.167,48.6667 102.5,49C 101.244,49.4169 100.577,50.2502 100.5,51.5C 96.5,51.5 92.5,51.5 88.5,51.5C 88.7135,49.8561 88.3802,48.3561 87.5,47C 88.7155,44.9045 89.5488,45.0712 90,47.5C 90.7937,44.8505 92.2937,42.6839 94.5,41C 93.5,40.6667 92.5,40.3333 91.5,40C 92.7659,39.6905 93.9326,39.1905 95,38.5C 96.9738,41.1183 98.8071,40.9517 100.5,38C 99.2575,37.6886 98.2575,38.1886 97.5,39.5C 96.0499,38.1502 95.3832,36.4835 95.5,34.5C 96.8734,34.6567 98.2068,34.49 99.5,34C 96.8757,30.3647 97.709,27.5314 102,25.5C 103.113,24.2396 103.28,23.073 102.5,22C 104.074,21.647 105.741,20.9804 107.5,20C 107.167,19.6667 106.833,19.3333 106.5,19C 110.237,17.3325 110.237,15.9991 106.5,15C 106.833,14.6667 107.167,14.3333 107.5,14C 102.167,13.3333 102.167,12.6667 107.5,12C 106.289,11.1072 106.289,10.2739 107.5,9.5C 108.086,9.70931 108.586,10.0426 109,10.5C 109.311,9.25753 108.811,8.25753 107.5,7.5C 108.716,6.90405 110.049,6.73739 111.5,7C 110.643,6.31091 109.977,5.47758 109.5,4.5C 111.631,4.66219 112.631,3.32886 112.5,0.5C 114.099,0.767809 115.432,0.434475 116.5,-0.5 Z"/></g>
<g><path style="opacity:1" fill="#f970d8" d="M 51.5,-0.5 C 53.8333,-0.5 56.1667,-0.5 58.5,-0.5C 58.2785,1.6636 57.2785,3.33026 55.5,4.5C 54.2279,4.04245 53.2279,4.70912 52.5,6.5C 51.8333,6.5 51.5,6.16667 51.5,5.5C 51.5,4.5 51.5,3.5 51.5,2.5C 50.1266,2.65668 48.7932,2.49001 47.5,2C 49.0664,1.3918 50.3998,0.558465 51.5,-0.5 Z"/></g>
<g><path style="opacity:0.999" fill="#f85bd3" d="M 124.5,1.5 C 124.5,16.1667 124.5,30.8333 124.5,45.5C 122.78,46.7507 122.447,48.2507 123.5,50C 122.551,50.6172 121.718,50.4506 121,49.5C 120.536,50.0944 120.369,50.7611 120.5,51.5C 113.833,51.5 107.167,51.5 100.5,51.5C 100.577,50.2502 101.244,49.4169 102.5,49C 102.167,48.6667 101.833,48.3333 101.5,48C 103.414,46.1671 104.081,44.1671 103.5,42C 105.168,40.325 106.835,38.6583 108.5,37C 107.377,35.1246 107.377,32.9579 108.5,30.5C 109.552,30.6495 110.552,30.4828 111.5,30C 110.509,27.0011 111.509,24.6677 114.5,23C 114.167,22 113.833,21 113.5,20C 116.792,19.4235 117.792,17.7569 116.5,15C 118.521,13.1351 120.187,10.9684 121.5,8.5C 121.291,7.91395 120.957,7.41395 120.5,7C 121.687,5.98052 122.687,4.81386 123.5,3.5C 122.019,2.05604 122.352,1.38937 124.5,1.5 Z"/></g>
<g><path style="opacity:1" fill="#f976da" d="M 29.5,-0.5 C 30.5,-0.5 31.5,-0.5 32.5,-0.5C 32.8925,1.2838 33.5592,2.95047 34.5,4.5C 33.6618,4.84171 33.3284,5.50838 33.5,6.5C 32.8826,6.38929 32.3826,6.05596 32,5.5C 31.5838,7.55029 30.4171,8.88363 28.5,9.5C 28.0618,9.56544 27.7284,9.39877 27.5,9C 31.0762,6.17915 31.7428,3.01248 29.5,-0.5 Z"/></g>
<g><path style="opacity:1" fill="#f96ad7" d="M 75.5,3.5 C 76.7152,4.77896 76.3818,5.77896 74.5,6.5C 74.2169,5.78393 73.8836,4.9506 73.5,4C 74.0944,3.53566 74.7611,3.36899 75.5,3.5 Z"/></g>
<g><path style="opacity:1" fill="#f96fd9" d="M 51.5,9.5 C 54.2469,11.9189 53.9135,14.0856 50.5,16C 50.8333,16.3333 51.1667,16.6667 51.5,17C 50.2575,17.3114 49.2575,16.8114 48.5,15.5C 48.8187,17.1552 48.4853,18.1552 47.5,18.5C 46.9717,17.2794 46.305,16.1127 45.5,15C 48.1716,13.7986 50.1716,11.9652 51.5,9.5 Z"/></g>
<g><path style="opacity:1" fill="#f971d9" d="M 51.5,5.5 C 51.5,6.16667 51.8333,6.5 52.5,6.5C 51.8902,7.39105 51.5569,8.39105 51.5,9.5C 50.1716,11.9652 48.1716,13.7986 45.5,15C 46.305,16.1127 46.9717,17.2794 47.5,18.5C 46.209,18.2627 45.209,18.596 44.5,19.5C 43.7101,20.7942 42.7101,21.9609 41.5,23C 42.0659,23.9947 42.7326,24.828 43.5,25.5C 43.5,25.8333 43.5,26.1667 43.5,26.5C 41.5659,27.1103 39.8993,28.1103 38.5,29.5C 37.234,28.9101 35.9007,28.4101 34.5,28C 35.4158,27.7216 36.0825,27.2216 36.5,26.5C 36.3893,25.8826 36.056,25.3826 35.5,25C 36.4158,24.7216 37.0825,24.2216 37.5,23.5C 39.0433,22.4402 40.0433,20.9402 40.5,19C 37.3833,14.852 38.3833,12.0187 43.5,10.5C 42.6382,7.85397 42.8049,5.1873 44,2.5C 44.7504,3.12576 45.5838,3.62576 46.5,4C 44.7295,4.53539 44.3961,5.36872 45.5,6.5C 47.4279,4.8933 49.4279,4.55996 51.5,5.5 Z"/></g>
<g><path style="opacity:0.998" fill="#f973d9" d="M 37.5,23.5 C 37.0825,24.2216 36.4158,24.7216 35.5,25C 36.056,25.3826 36.3893,25.8826 36.5,26.5C 34.549,26.2267 33.049,26.8934 32,28.5C 30.9563,27.3774 30.2896,26.0441 30,24.5C 29.9942,27.2644 28.8275,29.2644 26.5,30.5C 25.8982,28.6621 25.5649,26.8288 25.5,25C 27.1182,21.9846 28.7849,19.1513 30.5,16.5C 31.5,16.5 32.5,16.5 33.5,16.5C 33.9662,14.7988 33.9662,13.2988 33.5,12C 35.7312,11.8367 37.0645,13.0034 37.5,15.5C 36.7528,15.7365 35.9195,16.0698 35,16.5C 32.7324,20.5465 33.5658,22.8798 37.5,23.5 Z"/></g>
<g><path style="opacity:1" fill="#f975da" d="M 33.5,6.5 C 35.8721,8.41159 35.2054,9.57826 31.5,10C 32.0585,10.7247 32.3918,11.5581 32.5,12.5C 31.7745,13.8669 31.1079,15.2003 30.5,16.5C 28.7849,19.1513 27.1182,21.9846 25.5,25C 25.5649,26.8288 25.8982,28.6621 26.5,30.5C 25.8333,30.5 25.1667,30.5 24.5,30.5C 24.2137,28.7231 23.5471,27.0564 22.5,25.5C 22.8049,23.4842 23.1382,21.4842 23.5,19.5C 25.248,18.2106 25.5814,16.7106 24.5,15C 26.588,13.7005 27.9214,11.8671 28.5,9.5C 30.4171,8.88363 31.5838,7.55029 32,5.5C 32.3826,6.05596 32.8826,6.38929 33.5,6.5 Z"/></g>
<g><path style="opacity:0.996" fill="#f96bd7" d="M 64.5,24.5 C 66.0311,25.9245 65.6977,26.5912 63.5,26.5C 62.5876,25.2618 62.4209,23.9285 63,22.5C 63.7172,23.0442 64.2172,23.7109 64.5,24.5 Z"/></g>
<g><path style="opacity:1" fill="#f970d8" d="M 44.5,19.5 C 45.2891,19.7828 45.9558,20.2828 46.5,21C 45.5697,22.3953 45.5697,23.8953 46.5,25.5C 46.3333,26.1667 46.1667,26.8333 46,27.5C 45.2917,26.6195 44.4584,25.9528 43.5,25.5C 42.7326,24.828 42.0659,23.9947 41.5,23C 42.7101,21.9609 43.7101,20.7942 44.5,19.5 Z"/></g>
<g><path style="opacity:1" fill="#f972d9" d="M 36.5,26.5 C 36.0825,27.2216 35.4158,27.7216 34.5,28C 35.9007,28.4101 37.234,28.9101 38.5,29.5C 39.8333,30.5 39.8333,31.5 38.5,32.5C 38.5774,33.7498 39.244,34.5831 40.5,35C 39.5842,35.2784 38.9175,35.7784 38.5,36.5C 37.8826,36.6107 37.3826,36.944 37,37.5C 36.6667,35.8333 36.3333,34.1667 36,32.5C 35.5,33 35,33.5 34.5,34C 34.4037,35.373 34.5704,36.873 35,38.5C 34.6667,38.1667 34.3333,37.8333 34,37.5C 33.3109,38.3567 32.4776,39.0233 31.5,39.5C 30.4728,38.2086 29.4728,38.2086 28.5,39.5C 27.8333,39.5 27.5,39.1667 27.5,38.5C 28.5983,37.3991 28.765,36.0657 28,34.5C 26.6575,35.9023 25.8242,35.5689 25.5,33.5C 25.685,32.4163 26.0183,31.4163 26.5,30.5C 28.8275,29.2644 29.9942,27.2644 30,24.5C 30.2896,26.0441 30.9563,27.3774 32,28.5C 33.049,26.8934 34.549,26.2267 36.5,26.5 Z"/></g>
<g><path style="opacity:1" fill="#f976da" d="M 23.5,19.5 C 23.1382,21.4842 22.8049,23.4842 22.5,25.5C 23.5471,27.0564 24.2137,28.7231 24.5,30.5C 21.8049,30.5627 20.8049,31.5627 21.5,33.5C 19.8467,34.6045 18.18,34.7712 16.5,34C 17.2871,35.313 16.9538,36.4797 15.5,37.5C 15.2488,35.8297 14.5822,34.3297 13.5,33C 15.6177,31.6546 17.6177,31.1546 19.5,31.5C 18.8333,30.8333 18.1667,30.1667 17.5,29.5C 18.6706,27.3087 18.3373,25.1421 16.5,23C 17.8764,20.4575 19.043,20.2908 20,22.5C 20.7589,20.9371 21.9256,19.9371 23.5,19.5 Z"/></g>
<g><path style="opacity:0.997" fill="#f970d9" d="M 43.5,26.5 C 43.2642,28.0491 43.2642,29.5491 43.5,31C 41.8455,31.6077 40.1789,32.1077 38.5,32.5C 39.8333,31.5 39.8333,30.5 38.5,29.5C 39.8993,28.1103 41.5659,27.1103 43.5,26.5 Z"/></g>
<g><path style="opacity:1" fill="#f974d9" d="M 24.5,30.5 C 25.1667,30.5 25.8333,30.5 26.5,30.5C 26.0183,31.4163 25.685,32.4163 25.5,33.5C 25.8242,35.5689 26.6575,35.9023 28,34.5C 28.765,36.0657 28.5983,37.3991 27.5,38.5C 24.6545,38.8087 23.1545,40.4754 23,43.5C 21.9887,42.6634 20.8221,42.33 19.5,42.5C 19.9423,39.6574 20.9423,36.9907 22.5,34.5C 22.3764,33.8933 22.0431,33.56 21.5,33.5C 20.8049,31.5627 21.8049,30.5627 24.5,30.5 Z"/></g>
<g><path style="opacity:1" fill="#f96ad7" d="M 58.5,34.5 C 59.6857,35.9613 59.6857,37.2946 58.5,38.5C 57.6236,38.6309 56.9569,38.2975 56.5,37.5C 56.9424,36.2613 57.6091,35.2613 58.5,34.5 Z"/></g>
<g><path style="opacity:0.998" fill="#f970d9" d="M 38.5,36.5 C 39.0283,37.8474 39.195,39.1807 39,40.5C 37.6914,42.8912 36.6914,42.8912 36,40.5C 35.7216,41.4158 35.2216,42.0825 34.5,42.5C 34.1667,42.5 33.8333,42.5 33.5,42.5C 31.9275,41.3127 30.2608,40.3127 28.5,39.5C 29.4728,38.2086 30.4728,38.2086 31.5,39.5C 32.4776,39.0233 33.3109,38.3567 34,37.5C 34.3333,37.8333 34.6667,38.1667 35,38.5C 34.5704,36.873 34.4037,35.373 34.5,34C 35,33.5 35.5,33 36,32.5C 36.3333,34.1667 36.6667,35.8333 37,37.5C 37.3826,36.944 37.8826,36.6107 38.5,36.5 Z"/></g>
<g><path style="opacity:1" fill="#f972d9" d="M 27.5,38.5 C 27.5,39.1667 27.8333,39.5 28.5,39.5C 30.2608,40.3127 31.9275,41.3127 33.5,42.5C 33.4431,43.609 33.1098,44.609 32.5,45.5C 31.1529,46.1712 29.9862,46.1712 29,45.5C 28.8033,50.1782 27.8033,50.5116 26,46.5C 25.6258,47.4162 25.1258,48.2496 24.5,49C 25.2524,49.6708 25.5858,50.5041 25.5,51.5C 22.1667,51.5 18.8333,51.5 15.5,51.5C 16.9366,49.4729 18.2699,47.3062 19.5,45C 18.2264,44.0228 18.2264,43.1894 19.5,42.5C 20.8221,42.33 21.9887,42.6634 23,43.5C 23.1545,40.4754 24.6545,38.8087 27.5,38.5 Z"/></g>
<g><path style="opacity:1" fill="#f976da" d="M 14.5,38.5 C 14.2643,41.7852 13.2643,44.7852 11.5,47.5C 11.7093,48.086 12.0426,48.586 12.5,49C 11.0577,49.3768 10.0577,50.2101 9.5,51.5C 6.83333,51.5 4.16667,51.5 1.5,51.5C 3.56429,50.1324 5.89762,49.1324 8.5,48.5C 7.45003,46.8983 8.11669,46.065 10.5,46C 10.1667,45.6667 9.83333,45.3333 9.5,45C 10.8993,43.9384 11.8993,42.605 12.5,41C 11.057,38.9223 11.7237,38.0889 14.5,38.5 Z"/></g>
<g><path style="opacity:1" fill="#f975da" d="M 21.5,33.5 C 22.0431,33.56 22.3764,33.8933 22.5,34.5C 20.9423,36.9907 19.9423,39.6574 19.5,42.5C 18.2264,43.1894 18.2264,44.0228 19.5,45C 18.2699,47.3062 16.9366,49.4729 15.5,51.5C 13.5,51.5 11.5,51.5 9.5,51.5C 10.0577,50.2101 11.0577,49.3768 12.5,49C 12.0426,48.586 11.7093,48.086 11.5,47.5C 13.2643,44.7852 14.2643,41.7852 14.5,38.5C 14.5,37.8333 14.8333,37.5 15.5,37.5C 16.9538,36.4797 17.2871,35.313 16.5,34C 18.18,34.7712 19.8467,34.6045 21.5,33.5 Z"/></g>
<g><path style="opacity:0.998" fill="#f857d2" d="M 124.5,45.5 C 124.5,47.5 124.5,49.5 124.5,51.5C 123.167,51.5 121.833,51.5 120.5,51.5C 120.369,50.7611 120.536,50.0944 121,49.5C 121.718,50.4506 122.551,50.6172 123.5,50C 122.447,48.2507 122.78,46.7507 124.5,45.5 Z"/></g>
<g><path style="opacity:1" fill="#f971d9" d="M 32.5,45.5 C 33.0431,45.56 33.3764,45.8933 33.5,46.5C 31.703,47.6951 30.703,49.3618 30.5,51.5C 28.8333,51.5 27.1667,51.5 25.5,51.5C 25.5858,50.5041 25.2524,49.6708 24.5,49C 25.1258,48.2496 25.6258,47.4162 26,46.5C 27.8033,50.5116 28.8033,50.1782 29,45.5C 29.9862,46.1712 31.1529,46.1712 32.5,45.5 Z"/></g>
<g><path style="opacity:0.997" fill="#f96fd9" d="M 33.5,42.5 C 33.8333,42.5 34.1667,42.5 34.5,42.5C 34.5774,43.7498 35.244,44.5831 36.5,45C 34.4418,46.8079 34.1084,48.9746 35.5,51.5C 33.8333,51.5 32.1667,51.5 30.5,51.5C 30.703,49.3618 31.703,47.6951 33.5,46.5C 33.3764,45.8933 33.0431,45.56 32.5,45.5C 33.1098,44.609 33.4431,43.609 33.5,42.5 Z"/></g>
<g><path style="opacity:0.998" fill="#f96ad7" d="M 54.5,47.5 C 54.9382,47.4346 55.2716,47.6012 55.5,48C 54.1772,48.8159 53.5106,49.9826 53.5,51.5C 52.8333,51.5 52.1667,51.5 51.5,51.5C 51.4914,49.6916 51.9914,48.0249 53,46.5C 53.3826,47.056 53.8826,47.3893 54.5,47.5 Z"/></g>
</svg>
