<?xml version="1.0" encoding="UTF-8"?>
<!DOCTYPE svg PUBLIC "-//W3C//DTD SVG 1.1//EN" "http://www.w3.org/Graphics/SVG/1.1/DTD/svg11.dtd">
<svg xmlns="http://www.w3.org/2000/svg" version="1.1" width="125px" height="52px" style="shape-rendering:geometricPrecision; text-rendering:geometricPrecision; image-rendering:optimizeQuality; fill-rule:evenodd; clip-rule:evenodd" xmlns:xlink="http://www.w3.org/1999/xlink">
<g><path style="opacity:0.999" fill="#fcade9" d="M -0.5,-0.5 C 2.16667,-0.5 4.83333,-0.5 7.5,-0.5C 7.46056,0.583168 7.12723,1.58317 6.5,2.5C 7.44145,2.48945 8.10812,2.98945 8.5,4C 4.04743,6.86199 3.38076,10.5287 6.5,15C 4.88762,15.7203 3.38762,15.5536 2,14.5C 1.13397,16.8961 1.63397,17.5628 3.5,16.5C 6.02797,17.5174 6.02797,18.6841 3.5,20C 5.58278,21.3204 5.24945,22.6538 2.5,24C 2.5,25.3333 2.5,26.6667 2.5,28C 1.83333,28.3333 1.16667,28.6667 0.5,29C 1.35668,29.6891 2.02335,30.5224 2.5,31.5C 1.54451,32.872 0.544508,34.2053 -0.5,35.5C -0.5,23.5 -0.5,11.5 -0.5,-0.5 Z"/></g>
<g><path style="opacity:0.999" fill="#fcb2ea" d="M 7.5,-0.5 C 22.1667,-0.5 36.8333,-0.5 51.5,-0.5C 51.3601,1.12377 52.0267,2.29044 53.5,3C 51.4911,5.40181 51.4911,7.40181 53.5,9C 50.0569,9.22131 49.7236,10.2213 52.5,12C 51.1671,13.6373 49.8337,14.4707 48.5,14.5C 48.9312,15.2935 49.2645,16.1268 49.5,17C 49.1081,18.0105 48.4415,18.5105 47.5,18.5C 48.7135,20.8507 48.0468,22.684 45.5,24C 45.6158,25.2682 45.9491,26.6015 46.5,28C 45.6919,28.3076 45.0253,28.8076 44.5,29.5C 45.8499,31.0202 47.1832,31.6869 48.5,31.5C 47.5089,32.6652 46.5089,33.8319 45.5,35C 45.9054,35.9454 46.572,36.6121 47.5,37C 45.3825,37.2602 43.7158,38.2602 42.5,40C 43.8333,41.3333 43.8333,42.6667 42.5,44C 46.0439,46.0757 45.3772,47.409 40.5,48C 41.8333,48.6667 41.8333,49.3333 40.5,50C 41.7375,50.2321 42.7375,50.7321 43.5,51.5C 28.8333,51.5 14.1667,51.5 -0.5,51.5C -0.5,46.1667 -0.5,40.8333 -0.5,35.5C 0.544508,34.2053 1.54451,32.872 2.5,31.5C 2.02335,30.5224 1.35668,29.6891 0.5,29C 1.16667,28.6667 1.83333,28.3333 2.5,28C 2.5,26.6667 2.5,25.3333 2.5,24C 5.24945,22.6538 5.58278,21.3204 3.5,20C 6.02797,18.6841 6.02797,17.5174 3.5,16.5C 1.63397,17.5628 1.13397,16.8961 2,14.5C 3.38762,15.5536 4.88762,15.7203 6.5,15C 3.38076,10.5287 4.04743,6.86199 8.5,4C 8.10812,2.98945 7.44145,2.48945 6.5,2.5C 7.12723,1.58317 7.46056,0.583168 7.5,-0.5 Z"/></g>
<g><path style="opacity:0.999" fill="#fcb8ec" d="M 51.5,-0.5 C 51.8333,-0.5 52.1667,-0.5 52.5,-0.5C 53.5,2.16667 54.5,2.16667 55.5,-0.5C 66.5,-0.5 77.5,-0.5 88.5,-0.5C 90.5814,1.422 90.5814,3.58867 88.5,6C 90.8912,7.30863 90.8912,8.30863 88.5,9C 88.6938,10.9033 88.6938,12.7367 88.5,14.5C 88.1543,15.6956 87.6543,15.6956 87,14.5C 86.5983,15.8721 86.0983,17.2054 85.5,18.5C 86.6405,19.4255 86.6405,20.2588 85.5,21C 86.3128,22.3139 87.3128,23.4805 88.5,24.5C 88.1879,27.0028 86.8545,29.1694 84.5,31C 85.1667,31.3333 85.8333,31.6667 86.5,32C 85.2161,32.6838 84.0495,32.5171 83,31.5C 82.1667,32.3333 81.3333,33.1667 80.5,34C 86.235,33.1062 86.5683,33.7729 81.5,36C 85.1399,37.1339 84.8065,38.1339 80.5,39C 79.3906,40.8779 79.3906,43.5445 80.5,47C 79.9288,48.2051 79.2621,49.3717 78.5,50.5C 77.0783,49.2232 76.0783,49.5565 75.5,51.5C 64.8333,51.5 54.1667,51.5 43.5,51.5C 42.7375,50.7321 41.7375,50.2321 40.5,50C 41.8333,49.3333 41.8333,48.6667 40.5,48C 45.3772,47.409 46.0439,46.0757 42.5,44C 43.8333,42.6667 43.8333,41.3333 42.5,40C 43.7158,38.2602 45.3825,37.2602 47.5,37C 46.572,36.6121 45.9054,35.9454 45.5,35C 46.5089,33.8319 47.5089,32.6652 48.5,31.5C 47.1832,31.6869 45.8499,31.0202 44.5,29.5C 45.0253,28.8076 45.6919,28.3076 46.5,28C 45.9491,26.6015 45.6158,25.2682 45.5,24C 48.0468,22.684 48.7135,20.8507 47.5,18.5C 48.4415,18.5105 49.1081,18.0105 49.5,17C 49.2645,16.1268 48.9312,15.2935 48.5,14.5C 49.8337,14.4707 51.1671,13.6373 52.5,12C 49.7236,10.2213 50.0569,9.22131 53.5,9C 51.4911,7.40181 51.4911,5.40181 53.5,3C 52.0267,2.29044 51.3601,1.12377 51.5,-0.5 Z"/></g>
<g><path style="opacity:1" fill="#fcb5eb" d="M 52.5,-0.5 C 53.5,-0.5 54.5,-0.5 55.5,-0.5C 54.5,2.16667 53.5,2.16667 52.5,-0.5 Z"/></g>
<g><path style="opacity:0.999" fill="#fdbfee" d="M 92.5,-0.5 C 103.167,-0.5 113.833,-0.5 124.5,-0.5C 124.5,11.5 124.5,23.5 124.5,35.5C 123.525,39.4602 121.525,43.2936 118.5,47C 119.815,48.3946 119.481,49.3946 117.5,50C 118.416,50.2784 119.082,50.7784 119.5,51.5C 108.5,51.5 97.5,51.5 86.5,51.5C 87.0906,50.8485 87.7573,50.1818 88.5,49.5C 87.3707,47.4706 87.8707,47.1373 90,48.5C 91.0458,46.9095 92.2125,45.4095 93.5,44C 91.5448,43.0467 89.8782,41.7134 88.5,40C 89.6215,36.9301 91.2882,34.2634 93.5,32C 92.2396,30.887 91.073,30.7203 90,31.5C 89.4032,29.0759 90.2366,27.2425 92.5,26C 91.7107,25.4536 90.7107,24.7869 89.5,24C 94.044,23.9783 95.544,21.8116 94,17.5C 93.195,19.9011 92.3617,19.7344 91.5,17C 92.8491,16.2276 93.6824,15.0609 94,13.5C 94.3333,14.1667 94.6667,14.8333 95,15.5C 96.6097,15.8696 98.1097,15.2029 99.5,13.5C 97.4833,12.7809 95.8166,11.6143 94.5,10C 94.6667,9.5 94.8333,9 95,8.5C 96.0495,9.51712 97.2161,9.68379 98.5,9C 97.8333,8.66667 97.1667,8.33333 96.5,8C 98.3318,6.51137 99.1652,4.67804 99,2.5C 97.6667,3.16667 96.6667,4.16667 96,5.5C 95.6258,4.58377 95.1258,3.75044 94.5,3C 95.624,2.75083 96.624,2.25083 97.5,1.5C 97.3333,1.16667 97.1667,0.833333 97,0.5C 95.7318,0.615815 94.3985,0.949148 93,1.5C 92.5357,0.905578 92.369,0.238911 92.5,-0.5 Z"/></g>
<g><path style="opacity:1" fill="#fcbced" d="M 88.5,-0.5 C 89.8333,-0.5 91.1667,-0.5 92.5,-0.5C 92.369,0.238911 92.5357,0.905578 93,1.5C 94.3985,0.949148 95.7318,0.615815 97,0.5C 97.1667,0.833333 97.3333,1.16667 97.5,1.5C 96.624,2.25083 95.624,2.75083 94.5,3C 95.1258,3.75044 95.6258,4.58377 96,5.5C 96.6667,4.16667 97.6667,3.16667 99,2.5C 99.1652,4.67804 98.3318,6.51137 96.5,8C 97.1667,8.33333 97.8333,8.66667 98.5,9C 97.2161,9.68379 96.0495,9.51712 95,8.5C 94.8333,9 94.6667,9.5 94.5,10C 95.8166,11.6143 97.4833,12.7809 99.5,13.5C 98.1097,15.2029 96.6097,15.8696 95,15.5C 94.6667,14.8333 94.3333,14.1667 94,13.5C 93.6824,15.0609 92.8491,16.2276 91.5,17C 92.3617,19.7344 93.195,19.9011 94,17.5C 95.544,21.8116 94.044,23.9783 89.5,24C 90.7107,24.7869 91.7107,25.4536 92.5,26C 90.2366,27.2425 89.4032,29.0759 90,31.5C 91.073,30.7203 92.2396,30.887 93.5,32C 91.2882,34.2634 89.6215,36.9301 88.5,40C 89.8782,41.7134 91.5448,43.0467 93.5,44C 92.2125,45.4095 91.0458,46.9095 90,48.5C 87.8707,47.1373 87.3707,47.4706 88.5,49.5C 87.7573,50.1818 87.0906,50.8485 86.5,51.5C 82.8333,51.5 79.1667,51.5 75.5,51.5C 76.0783,49.5565 77.0783,49.2232 78.5,50.5C 79.2621,49.3717 79.9288,48.2051 80.5,47C 79.3906,43.5445 79.3906,40.8779 80.5,39C 84.8065,38.1339 85.1399,37.1339 81.5,36C 86.5683,33.7729 86.235,33.1062 80.5,34C 81.3333,33.1667 82.1667,32.3333 83,31.5C 84.0495,32.5171 85.2161,32.6838 86.5,32C 85.8333,31.6667 85.1667,31.3333 84.5,31C 86.8545,29.1694 88.1879,27.0028 88.5,24.5C 87.3128,23.4805 86.3128,22.3139 85.5,21C 86.6405,20.2588 86.6405,19.4255 85.5,18.5C 86.0983,17.2054 86.5983,15.8721 87,14.5C 87.6543,15.6956 88.1543,15.6956 88.5,14.5C 88.6938,12.7367 88.6938,10.9033 88.5,9C 90.8912,8.30863 90.8912,7.30863 88.5,6C 90.5814,3.58867 90.5814,1.422 88.5,-0.5 Z"/></g>
<g><path style="opacity:0.998" fill="#fdc2ef" d="M 124.5,35.5 C 124.5,40.8333 124.5,46.1667 124.5,51.5C 122.833,51.5 121.167,51.5 119.5,51.5C 119.082,50.7784 118.416,50.2784 117.5,50C 119.481,49.3946 119.815,48.3946 118.5,47C 121.525,43.2936 123.525,39.4602 124.5,35.5 Z"/></g>
</svg>
