<?xml version="1.0" encoding="UTF-8"?>
<!DOCTYPE svg PUBLIC "-//W3C//DTD SVG 1.1//EN" "http://www.w3.org/Graphics/SVG/1.1/DTD/svg11.dtd">
<svg xmlns="http://www.w3.org/2000/svg" version="1.1" width="46px" height="44px" style="shape-rendering:geometricPrecision; text-rendering:geometricPrecision; image-rendering:optimizeQuality; fill-rule:evenodd; clip-rule:evenodd" xmlns:xlink="http://www.w3.org/1999/xlink">
<g><path style="opacity:0.958" fill="#ff77ed" d="M 16.5,2.5 C 33.4006,1.01761 41.5673,8.68428 41,25.5C 37.3197,37.5995 29.153,42.4328 16.5,40C 7.6229,37.1007 2.95623,30.934 2.5,21.5C 3.0711,11.9818 7.73777,5.64842 16.5,2.5 Z"/></g>
<g><path style="opacity:1" fill="#ffeefc" d="M 12.5,11.5 C 13.8333,11.5 15.1667,11.5 16.5,11.5C 16.5,12.5 16.5,13.5 16.5,14.5C 15.1667,14.5 13.8333,14.5 12.5,14.5C 12.5,13.5 12.5,12.5 12.5,11.5 Z"/></g>
<g><path style="opacity:1" fill="#fff7fd" d="M 12.5,16.5 C 13.8333,16.5 15.1667,16.5 16.5,16.5C 16.5,21.1667 16.5,25.8333 16.5,30.5C 15.1667,30.5 13.8333,30.5 12.5,30.5C 12.5,25.8333 12.5,21.1667 12.5,16.5 Z"/></g>
<g><path style="opacity:1" fill="#fff8fd" d="M 19.5,16.5 C 21.143,16.4802 22.4763,17.1468 23.5,18.5C 26.5627,15.8931 29.396,16.2264 32,19.5C 32.4986,23.1516 32.6653,26.8183 32.5,30.5C 31.1667,30.5 29.8333,30.5 28.5,30.5C 28.6646,27.4816 28.498,24.4816 28,21.5C 26.0624,20.1398 24.3957,20.4732 23,22.5C 22.5026,25.146 22.3359,27.8127 22.5,30.5C 21.5,30.5 20.5,30.5 19.5,30.5C 19.5,25.8333 19.5,21.1667 19.5,16.5 Z"/></g>
</svg>
