<?xml version="1.0" encoding="UTF-8"?>
<!DOCTYPE svg PUBLIC "-//W3C//DTD SVG 1.1//EN" "http://www.w3.org/Graphics/SVG/1.1/DTD/svg11.dtd">
<svg xmlns="http://www.w3.org/2000/svg" version="1.1" width="332px" height="217px" style="shape-rendering:geometricPrecision; text-rendering:geometricPrecision; image-rendering:optimizeQuality; fill-rule:evenodd; clip-rule:evenodd" xmlns:xlink="http://www.w3.org/1999/xlink">
<g><path style="opacity:0.502" fill="#858788" d="M 69.5,20.5 C 69.5,20.1667 69.5,19.8333 69.5,19.5C 141.833,19.5 214.167,19.5 286.5,19.5C 286.5,20.1667 286.5,20.8333 286.5,21.5C 214.208,20.5064 141.875,20.1731 69.5,20.5 Z"/></g>
<g><path style="opacity:1" fill="#0d0b0b" d="M 69.5,20.5 C 141.875,20.1731 214.208,20.5064 286.5,21.5C 287.794,22.2899 288.961,23.2899 290,24.5C 290.5,78.499 290.667,132.499 290.5,186.5C 205.5,186.5 120.5,186.5 35.5,186.5C 35.5,132.833 35.5,79.1667 35.5,25.5C 36.6253,23.8712 37.9586,22.3712 39.5,21C 49.4944,20.5002 59.4944,20.3335 69.5,20.5 Z"/></g>
<g><path style="opacity:1" fill="#f1efef" d="M 286.5,30.5 C 286.5,30.8333 286.5,31.1667 286.5,31.5C 285.141,32.0065 284.141,33.0065 283.5,34.5C 282.614,33.675 282.281,32.675 282.5,31.5C 279.348,31.0471 276.848,32.0471 275,34.5C 272.537,31.0686 269.704,30.7353 266.5,33.5C 200.646,31.5083 134.646,30.8416 68.5,31.5C 68.5,32.5 68.5,33.5 68.5,34.5C 83.0097,34.1707 97.3431,34.5041 111.5,35.5C 101.5,35.5 91.5,35.5 81.5,35.5C 67.1667,35.5 52.8333,35.5 38.5,35.5C 38.5,33.8333 38.5,32.1667 38.5,30.5C 121.167,30.5 203.833,30.5 286.5,30.5 Z"/></g>
<g><path style="opacity:1" fill="#fdfdfd" d="M 286.5,31.5 C 286.5,37.5 286.5,43.5 286.5,49.5C 228.5,49.5 170.5,49.5 112.5,49.5C 112.819,44.6367 112.486,39.97 111.5,35.5C 97.3431,34.5041 83.0097,34.1707 68.5,34.5C 68.5,33.5 68.5,32.5 68.5,31.5C 134.646,30.8416 200.646,31.5083 266.5,33.5C 269.704,30.7353 272.537,31.0686 275,34.5C 276.848,32.0471 279.348,31.0471 282.5,31.5C 282.281,32.675 282.614,33.675 283.5,34.5C 284.141,33.0065 285.141,32.0065 286.5,31.5 Z"/></g>
<g><path style="opacity:1" fill="#e0342f" d="M 81.5,35.5 C 91.5,35.5 101.5,35.5 111.5,35.5C 111.5,40.1667 111.5,44.8333 111.5,49.5C 111.167,49.5 110.833,49.5 110.5,49.5C 110.5,45.1667 110.5,40.8333 110.5,36.5C 103.833,36.5 97.1667,36.5 90.5,36.5C 90.5,37.5 90.5,38.5 90.5,39.5C 92.3797,39.2291 93.713,39.8958 94.5,41.5C 93.1938,42.4674 92.5271,43.8007 92.5,45.5C 94.143,45.5198 95.4763,44.8532 96.5,43.5C 97.1924,44.0253 97.6924,44.6919 98,45.5C 98.49,44.2068 98.6567,42.8734 98.5,41.5C 98.3691,40.6236 98.7025,39.9569 99.5,39.5C 100.474,41.7427 100.808,44.076 100.5,46.5C 98.712,46.2148 97.0453,46.5481 95.5,47.5C 96.2427,48.1818 96.9094,48.8485 97.5,49.5C 91.5,49.5 85.5,49.5 79.5,49.5C 79.5,48.5 79.5,47.5 79.5,46.5C 80.791,46.7373 81.791,46.404 82.5,45.5C 82.8432,43.5168 82.1765,42.1834 80.5,41.5C 79.8485,40.9094 79.1818,40.2427 78.5,39.5C 77.8933,39.6236 77.56,39.9569 77.5,40.5C 76.7387,41.3909 75.7387,42.0576 74.5,42.5C 71.5968,42.3063 68.7634,42.3063 66,42.5C 64.9076,40.0688 63.7409,40.0688 62.5,42.5C 62.5,41.5 62.5,40.5 62.5,39.5C 61.5,39.5 60.5,39.5 59.5,39.5C 59.5,38.5 59.5,37.5 59.5,36.5C 67.0191,36.825 74.3524,36.4916 81.5,35.5 Z"/></g>
<g><path style="opacity:1" fill="#d10e0d" d="M 110.5,49.5 C 106.5,49.5 102.5,49.5 98.5,49.5C 98.1667,49.5 97.8333,49.5 97.5,49.5C 96.9094,48.8485 96.2427,48.1818 95.5,47.5C 97.0453,46.5481 98.712,46.2148 100.5,46.5C 100.808,44.076 100.474,41.7427 99.5,39.5C 98.7025,39.9569 98.3691,40.6236 98.5,41.5C 97.1667,41.5 95.8333,41.5 94.5,41.5C 93.713,39.8958 92.3797,39.2291 90.5,39.5C 90.5,38.5 90.5,37.5 90.5,36.5C 97.1667,36.5 103.833,36.5 110.5,36.5C 110.5,40.8333 110.5,45.1667 110.5,49.5 Z"/></g>
<g><path style="opacity:1" fill="#ef9f9e" d="M 94.5,41.5 C 95.8333,41.5 97.1667,41.5 98.5,41.5C 98.6567,42.8734 98.49,44.2068 98,45.5C 97.6924,44.6919 97.1924,44.0253 96.5,43.5C 95.4763,44.8532 94.143,45.5198 92.5,45.5C 92.5271,43.8007 93.1938,42.4674 94.5,41.5 Z"/></g>
<g><path style="opacity:1" fill="#f4b3b2" d="M 80.5,41.5 C 82.1765,42.1834 82.8432,43.5168 82.5,45.5C 79.2819,45.3491 78.9485,44.5158 81.5,43C 80.944,42.6174 80.6107,42.1174 80.5,41.5 Z"/></g>
<g><path style="opacity:1" fill="#f3b2b0" d="M 86.5,40.5 C 90.0562,40.2749 90.3895,41.1082 87.5,43C 87.9054,43.9454 88.572,44.6121 89.5,45C 85.7071,45.4866 84.7071,43.9866 86.5,40.5 Z"/></g>
<g><path style="opacity:1" fill="#eb827a" d="M 101.5,41.5 C 104.797,41.3287 105.131,41.9954 102.5,43.5C 103.167,44.1667 103.833,44.8333 104.5,45.5C 103.726,46.7112 102.893,46.7112 102,45.5C 101.51,44.2068 101.343,42.8734 101.5,41.5 Z"/></g>
<g><path style="opacity:1" fill="#f54c4c" d="M 38.5,35.5 C 52.8333,35.5 67.1667,35.5 81.5,35.5C 74.3524,36.4916 67.0191,36.825 59.5,36.5C 59.5,37.5 59.5,38.5 59.5,39.5C 60.5,39.5 61.5,39.5 62.5,39.5C 62.5,40.5 62.5,41.5 62.5,42.5C 61.7784,42.0825 61.2784,41.4158 61,40.5C 60.3333,42.1667 60.3333,43.8333 61,45.5C 61.3076,44.6919 61.8076,44.0253 62.5,43.5C 65.7479,46.119 68.9146,46.119 72,43.5C 73.7542,45.25 75.9208,45.9167 78.5,45.5C 78.7845,43.5853 78.4511,41.9187 77.5,40.5C 77.56,39.9569 77.8933,39.6236 78.5,39.5C 79.1818,40.2427 79.8485,40.9094 80.5,41.5C 80.6107,42.1174 80.944,42.6174 81.5,43C 78.9485,44.5158 79.2819,45.3491 82.5,45.5C 81.791,46.404 80.791,46.7373 79.5,46.5C 79.5,47.5 79.5,48.5 79.5,49.5C 85.5,49.5 91.5,49.5 97.5,49.5C 97.8333,49.5 98.1667,49.5 98.5,49.5C 99.2625,50.2679 100.263,50.7679 101.5,51C 95.1667,54.6667 88.8333,58.3333 82.5,62C 81.1772,62.8159 80.5106,63.9826 80.5,65.5C 79.8826,65.3893 79.3826,65.056 79,64.5C 79.2179,66.5868 79.0512,68.5868 78.5,70.5C 77.8586,68.7045 76.8586,67.2045 75.5,66C 76.056,65.6174 76.3893,65.1174 76.5,64.5C 76.5,63.8333 76.5,63.1667 76.5,62.5C 77.7746,57.454 75.7746,55.7873 70.5,57.5C 69.2121,59.2985 69.2121,60.9652 70.5,62.5C 69.5,63.1667 68.5,63.8333 67.5,64.5C 66.1667,67.1667 66.1667,69.8333 67.5,72.5C 66.5272,73.7914 65.5272,73.7914 64.5,72.5C 61.3397,73.7247 61.0063,75.2247 63.5,77C 63.0556,78.7618 62.5556,78.5951 62,76.5C 57.7316,77.9525 53.5649,79.7859 49.5,82C 51.7006,83.0432 54.0339,83.8765 56.5,84.5C 52.82,85.7641 49.1534,85.7641 45.5,84.5C 43.6675,85.2485 42.0009,86.2485 40.5,87.5C 39.8333,80.3447 39.1666,73.3447 38.5,66.5C 38.5,56.1667 38.5,45.8333 38.5,35.5 Z"/></g>
<g><path style="opacity:1" fill="#dd605f" d="M 45.5,37.5 C 54.1092,35.5935 56.4426,38.4268 52.5,46C 44.7558,47.8002 42.4224,44.9669 45.5,37.5 Z"/></g>
<g><path style="opacity:1" fill="#f6aaa8" d="M 62.5,42.5 C 63.7409,40.0688 64.9076,40.0688 66,42.5C 68.7634,42.3063 71.5968,42.3063 74.5,42.5C 75.7387,42.0576 76.7387,41.3909 77.5,40.5C 78.4511,41.9187 78.7845,43.5853 78.5,45.5C 75.9208,45.9167 73.7542,45.25 72,43.5C 68.9146,46.119 65.7479,46.119 62.5,43.5C 61.8076,44.0253 61.3076,44.6919 61,45.5C 60.3333,43.8333 60.3333,42.1667 61,40.5C 61.2784,41.4158 61.7784,42.0825 62.5,42.5 Z"/></g>
<g><path style="opacity:1" fill="#bda2a4" d="M 46.5,38.5 C 47.1408,40.0423 48.1408,41.3757 49.5,42.5C 50.1924,41.9747 50.6924,41.3081 51,40.5C 51.6667,42.1667 51.6667,43.8333 51,45.5C 49.9826,42.972 48.8159,42.972 47.5,45.5C 46.5258,43.2573 46.1924,40.924 46.5,38.5 Z"/></g>
<g><path style="opacity:1" fill="#ed3f3f" d="M 98.5,49.5 C 102.5,49.5 106.5,49.5 110.5,49.5C 110.833,49.5 111.167,49.5 111.5,49.5C 111.5,79.1667 111.5,108.833 111.5,138.5C 110.527,136.052 110.194,133.385 110.5,130.5C 110.5,118.167 110.5,105.833 110.5,93.5C 110.5,89.8333 110.5,86.1667 110.5,82.5C 107.757,83.3882 105.09,84.5549 102.5,86C 104.384,86.2163 106.051,86.883 107.5,88C 92.1667,88.3333 76.8333,88.6667 61.5,89C 65.8333,89.3333 70.1667,89.6667 74.5,90C 69.3194,93.3306 63.9861,96.4973 58.5,99.5C 57.8333,101.833 57.1667,104.167 56.5,106.5C 55.8933,106.376 55.56,106.043 55.5,105.5C 56.4345,104.432 56.7678,103.099 56.5,101.5C 54.3652,101.147 53.0319,101.98 52.5,104C 52.8361,105.03 53.5028,105.53 54.5,105.5C 53.791,106.404 52.791,106.737 51.5,106.5C 51.6495,105.448 51.4828,104.448 51,103.5C 47.0594,106.552 42.8928,109.218 38.5,111.5C 38.5,96.5 38.5,81.5 38.5,66.5C 39.1666,73.3447 39.8333,80.3447 40.5,87.5C 42.0009,86.2485 43.6675,85.2485 45.5,84.5C 49.1534,85.7641 52.82,85.7641 56.5,84.5C 54.0339,83.8765 51.7006,83.0432 49.5,82C 53.5649,79.7859 57.7316,77.9525 62,76.5C 62.5556,78.5951 63.0556,78.7618 63.5,77C 61.0063,75.2247 61.3397,73.7247 64.5,72.5C 65.5272,73.7914 66.5272,73.7914 67.5,72.5C 71.5138,72.6655 75.5138,72.4988 79.5,72C 80.4231,69.9592 80.7564,67.7925 80.5,65.5C 80.5106,63.9826 81.1772,62.8159 82.5,62C 88.8333,58.3333 95.1667,54.6667 101.5,51C 100.263,50.7679 99.2625,50.2679 98.5,49.5 Z"/></g>
<g><path style="opacity:1" fill="#e7e4e4" d="M 286.5,30.5 C 287.499,79.3305 287.832,128.33 287.5,177.5C 228.833,177.5 170.167,177.5 111.5,177.5C 111.5,164.5 111.5,151.5 111.5,138.5C 111.5,108.833 111.5,79.1667 111.5,49.5C 111.5,44.8333 111.5,40.1667 111.5,35.5C 112.486,39.97 112.819,44.6367 112.5,49.5C 170.5,49.5 228.5,49.5 286.5,49.5C 286.5,43.5 286.5,37.5 286.5,31.5C 286.5,31.1667 286.5,30.8333 286.5,30.5 Z"/></g>
<g><path style="opacity:1" fill="#c4c3c3" d="M 133.5,40.5 C 140.514,41.7565 147.514,41.7565 154.5,40.5C 155.429,41.6888 155.762,43.0222 155.5,44.5C 148.167,44.5 140.833,44.5 133.5,44.5C 133.5,43.1667 133.5,41.8333 133.5,40.5 Z"/></g>
<g><path style="opacity:1" fill="#d5c3c2" d="M 118.5,39.5 C 123.115,40.6617 127.782,41.6617 132.5,42.5C 132.291,43.086 131.957,43.586 131.5,44C 128.24,44.7835 125.073,44.6168 122,43.5C 121.311,44.3567 120.478,45.0233 119.5,45.5C 118.534,43.604 118.201,41.604 118.5,39.5 Z"/></g>
<g><path style="opacity:1" fill="#fdfcfc" d="M 244.5,54.5 C 255.838,54.3335 267.172,54.5001 278.5,55C 279.833,61.3333 279.833,67.6667 278.5,74C 267.172,74.4999 255.838,74.6665 244.5,74.5C 244.5,67.8333 244.5,61.1667 244.5,54.5 Z"/></g>
<g><path style="opacity:1" fill="#fdfafa" d="M 122.5,55.5 C 133.838,55.3335 145.172,55.5001 156.5,56C 157.833,62.3333 157.833,68.6667 156.5,75C 145.172,75.4999 133.838,75.6665 122.5,75.5C 122.5,68.8333 122.5,62.1667 122.5,55.5 Z"/></g>
<g><path style="opacity:1" fill="#fdfcfc" d="M 164.5,55.5 C 175.505,55.3335 186.505,55.5002 197.5,56C 198.833,62.3333 198.833,68.6667 197.5,75C 186.505,75.4998 175.505,75.6665 164.5,75.5C 164.334,70.1563 164.501,64.8229 165,59.5C 166.4,60.1159 167.9,60.4493 169.5,60.5C 175.487,59.8581 181.487,59.3581 187.5,59C 181.833,58.6667 176.167,58.3333 170.5,58C 167.949,57.9977 165.949,57.1644 164.5,55.5 Z"/></g>
<g><path style="opacity:1" fill="#fdfdfd" d="M 204.5,55.5 C 215.838,55.3335 227.172,55.5001 238.5,56C 239.833,62.3333 239.833,68.6667 238.5,75C 227.172,75.4999 215.838,75.6665 204.5,75.5C 204.5,68.8333 204.5,62.1667 204.5,55.5 Z"/></g>
<g><path style="opacity:1" fill="#feefee" d="M 76.5,62.5 C 74.5,63.8333 72.5,63.8333 70.5,62.5C 69.2121,60.9652 69.2121,59.2985 70.5,57.5C 75.7746,55.7873 77.7746,57.454 76.5,62.5 Z"/></g>
<g><path style="opacity:1" fill="#f2c8c8" d="M 205.5,58.5 C 210.214,58.1734 214.88,58.5067 219.5,59.5C 217.167,59.8333 214.833,60.1667 212.5,60.5C 209.731,60.4714 207.397,59.8048 205.5,58.5 Z"/></g>
<g><path style="opacity:1" fill="#eeb9b9" d="M 122.5,55.5 C 122.5,62.1667 122.5,68.8333 122.5,75.5C 121.18,72.572 120.514,69.2386 120.5,65.5C 120.514,61.7614 121.18,58.428 122.5,55.5 Z"/></g>
<g><path style="opacity:1" fill="#f88a89" d="M 70.5,62.5 C 72.5,63.8333 74.5,63.8333 76.5,62.5C 76.5,63.1667 76.5,63.8333 76.5,64.5C 74.5,64.5 72.5,64.5 70.5,64.5C 70.8333,66.5 71.1667,68.5 71.5,70.5C 70.1779,70.67 69.0113,70.3366 68,69.5C 68.4759,67.6799 68.3093,66.0133 67.5,64.5C 68.5,63.8333 69.5,63.1667 70.5,62.5 Z"/></g>
<g><path style="opacity:1" fill="#fdd2d1" d="M 67.5,64.5 C 68.3093,66.0133 68.4759,67.6799 68,69.5C 69.0113,70.3366 70.1779,70.67 71.5,70.5C 71.1667,68.5 70.8333,66.5 70.5,64.5C 72.5,64.5 74.5,64.5 76.5,64.5C 76.3893,65.1174 76.056,65.6174 75.5,66C 76.8586,67.2045 77.8586,68.7045 78.5,70.5C 79.0512,68.5868 79.2179,66.5868 79,64.5C 79.3826,65.056 79.8826,65.3893 80.5,65.5C 80.7564,67.7925 80.4231,69.9592 79.5,72C 75.5138,72.4988 71.5138,72.6655 67.5,72.5C 66.1667,69.8333 66.1667,67.1667 67.5,64.5 Z"/></g>
<g><path style="opacity:1" fill="#ebafaf" d="M 204.5,55.5 C 204.5,62.1667 204.5,68.8333 204.5,75.5C 203.18,72.572 202.514,69.2386 202.5,65.5C 202.514,61.7614 203.18,58.428 204.5,55.5 Z"/></g>
<g><path style="opacity:1" fill="#fcfbfb" d="M 204.5,79.5 C 215.838,79.3335 227.172,79.5001 238.5,80C 239.833,86.3333 239.833,92.6667 238.5,99C 227.172,99.4999 215.838,99.6665 204.5,99.5C 204.5,92.8333 204.5,86.1667 204.5,79.5 Z"/></g>
<g><path style="opacity:1" fill="#fdfbfb" d="M 244.5,78.5 C 255.853,78.1678 267.186,78.5012 278.5,79.5C 279.817,85.6969 279.817,91.8636 278.5,98C 267.172,98.4999 255.838,98.6665 244.5,98.5C 244.5,91.8333 244.5,85.1667 244.5,78.5 Z"/></g>
<g><path style="opacity:1" fill="#fdfdfd" d="M 122.5,79.5 C 133.505,79.3335 144.505,79.5002 155.5,80C 156.479,86.7445 156.812,93.5778 156.5,100.5C 145.167,100.5 133.833,100.5 122.5,100.5C 122.5,95.5 122.5,90.5 122.5,85.5C 128.167,85.5 133.833,85.5 139.5,85.5C 139.5,84.5 139.5,83.5 139.5,82.5C 133.833,82.5 128.167,82.5 122.5,82.5C 122.5,81.5 122.5,80.5 122.5,79.5 Z"/></g>
<g><path style="opacity:1" fill="#fcfbfb" d="M 163.5,79.5 C 174.838,79.3335 186.172,79.5001 197.5,80C 198.478,86.4102 198.811,92.9102 198.5,99.5C 186.833,99.5 175.167,99.5 163.5,99.5C 163.5,92.8333 163.5,86.1667 163.5,79.5 Z"/></g>
<g><path style="opacity:1" fill="#e5302f" d="M 110.5,93.5 C 94.356,103.408 78.0226,113.075 61.5,122.5C 59.9519,122.821 59.2852,123.821 59.5,125.5C 63.8333,125.5 68.1667,125.5 72.5,125.5C 70.6182,126.237 69.9515,127.404 70.5,129C 68.5,130 66.5,131 64.5,132C 67.3647,132.183 70.0314,132.683 72.5,133.5C 68.4454,133.176 64.4454,133.509 60.5,134.5C 61.2421,135.287 62.0754,135.953 63,136.5C 68.8029,135.629 74.9696,135.296 81.5,135.5C 79.3021,136.165 76.9688,136.832 74.5,137.5C 72.2244,139.949 69.5577,141.782 66.5,143C 69.3647,143.183 72.0314,143.683 74.5,144.5C 69.4351,144.781 64.4351,144.448 59.5,143.5C 58.6143,144.325 58.281,145.325 58.5,146.5C 57.8333,147.167 57.1667,147.833 56.5,148.5C 56.7989,146.396 56.4656,144.396 55.5,142.5C 54.2736,143.363 52.9403,143.363 51.5,142.5C 51.2648,141.903 50.7648,141.57 50,141.5C 46.3853,143.085 42.8853,144.752 39.5,146.5C 39.5,154.833 39.5,163.167 39.5,171.5C 39.5,173.5 39.5,175.5 39.5,177.5C 38.5026,155.673 38.1693,133.673 38.5,111.5C 42.8928,109.218 47.0594,106.552 51,103.5C 51.4828,104.448 51.6495,105.448 51.5,106.5C 52.791,106.737 53.791,106.404 54.5,105.5C 54.8333,105.5 55.1667,105.5 55.5,105.5C 55.56,106.043 55.8933,106.376 56.5,106.5C 57.1667,104.167 57.8333,101.833 58.5,99.5C 63.9861,96.4973 69.3194,93.3306 74.5,90C 70.1667,89.6667 65.8333,89.3333 61.5,89C 76.8333,88.6667 92.1667,88.3333 107.5,88C 106.051,86.883 104.384,86.2163 102.5,86C 105.09,84.5549 107.757,83.3882 110.5,82.5C 110.5,86.1667 110.5,89.8333 110.5,93.5 Z"/></g>
<g><path style="opacity:1" fill="#f17071" d="M 72.5,82.5 C 75.6787,82.5127 79.012,82.846 82.5,83.5C 82.741,86.999 81.9076,87.3323 80,84.5C 74.5838,85.6389 69.0838,85.8056 63.5,85C 63.1667,84.6667 62.8333,84.3333 62.5,84C 66.0252,83.8213 69.3586,83.3213 72.5,82.5 Z"/></g>
<g><path style="opacity:1" fill="#eaafae" d="M 244.5,78.5 C 244.5,85.1667 244.5,91.8333 244.5,98.5C 243.18,95.572 242.514,92.2386 242.5,88.5C 242.514,84.7614 243.18,81.428 244.5,78.5 Z"/></g>
<g><path style="opacity:1" fill="#eaaeae" d="M 204.5,79.5 C 204.5,86.1667 204.5,92.8333 204.5,99.5C 203.18,96.572 202.514,93.2386 202.5,89.5C 202.514,85.7614 203.18,82.428 204.5,79.5 Z"/></g>
<g><path style="opacity:1" fill="#facaca" d="M 55.5,105.5 C 55.1667,105.5 54.8333,105.5 54.5,105.5C 53.5028,105.53 52.8361,105.03 52.5,104C 53.0319,101.98 54.3652,101.147 56.5,101.5C 56.7678,103.099 56.4345,104.432 55.5,105.5 Z"/></g>
<g><path style="opacity:1" fill="#ef7372" d="M 60.5,102.5 C 65.8619,103.109 71.3619,103.109 77,102.5C 77.4828,103.448 77.6495,104.448 77.5,105.5C 71.8333,105.5 66.1667,105.5 60.5,105.5C 60.5,104.5 60.5,103.5 60.5,102.5 Z"/></g>
<g><path style="opacity:1" fill="#fdfdfd" d="M 121.5,106.5 C 173.834,106.333 226.168,106.5 278.5,107C 279.161,117.759 279.495,128.593 279.5,139.5C 279.489,150.544 279.156,161.544 278.5,172.5C 226.171,173.5 173.838,173.833 121.5,173.5C 121.5,151.167 121.5,128.833 121.5,106.5 Z"/></g>
<g><path style="opacity:1" fill="#edaaa9" d="M 125.5,109.5 C 129.129,110.1 132.796,110.767 136.5,111.5C 134.288,112.114 131.955,112.114 129.5,111.5C 127.667,111.415 126.334,110.748 125.5,109.5 Z"/></g>
<g><path style="opacity:1" fill="#ed706f" d="M 60.5,111.5 C 76.1956,113.766 76.1956,114.766 60.5,114.5C 60.5,113.5 60.5,112.5 60.5,111.5 Z"/></g>
<g><path style="opacity:1" fill="#f38f8e" d="M 52.5,110.5 C 55.7794,111.031 57.1128,113.031 56.5,116.5C 51.6687,116.838 50.3354,114.838 52.5,110.5 Z"/></g>
<g><path style="opacity:1" fill="#fe7d7c" d="M 166.5,114.5 C 166.5,116.167 166.5,117.833 166.5,119.5C 163.833,119.5 161.167,119.5 158.5,119.5C 158.5,117.833 158.5,116.167 158.5,114.5C 161.167,114.5 163.833,114.5 166.5,114.5 Z"/></g>
<g><path style="opacity:1" fill="#e0c9ce" d="M 166.5,114.5 C 167.451,115.919 167.784,117.585 167.5,119.5C 202.337,119.168 237.004,119.502 271.5,120.5C 223.5,120.5 175.5,120.5 127.5,120.5C 137.653,119.506 147.986,119.172 158.5,119.5C 161.167,119.5 163.833,119.5 166.5,119.5C 166.5,117.833 166.5,116.167 166.5,114.5 Z"/></g>
<g><path style="opacity:1" fill="#fc6362" d="M 127.5,120.5 C 175.5,120.5 223.5,120.5 271.5,120.5C 271.5,122.833 271.5,125.167 271.5,127.5C 223.5,127.5 175.5,127.5 127.5,127.5C 127.5,125.167 127.5,122.833 127.5,120.5 Z"/></g>
<g><path style="opacity:1" fill="#ec7371" d="M 61.5,122.5 C 65.4425,122.875 69.1091,123.875 72.5,125.5C 68.1667,125.5 63.8333,125.5 59.5,125.5C 59.2852,123.821 59.9519,122.821 61.5,122.5 Z"/></g>
<g><path style="opacity:1" fill="#fbd6d5" d="M 53.5,121.5 C 55.6138,122.784 56.6138,124.784 56.5,127.5C 55.1667,127.5 53.8333,127.5 52.5,127.5C 52.3253,125.379 52.6586,123.379 53.5,121.5 Z"/></g>
<g><path style="opacity:1" fill="#fad2d3" d="M 127.5,120.5 C 127.5,122.833 127.5,125.167 127.5,127.5C 175.5,127.5 223.5,127.5 271.5,127.5C 223.998,128.167 176.332,128.833 128.5,129.5C 128.145,130.522 127.478,131.189 126.5,131.5C 126.185,127.629 126.518,123.962 127.5,120.5 Z"/></g>
<g><path style="opacity:1" fill="#e96b6b" d="M 72.5,133.5 C 76.0122,132.945 79.0122,133.612 81.5,135.5C 74.9696,135.296 68.8029,135.629 63,136.5C 62.0754,135.953 61.2421,135.287 60.5,134.5C 64.4454,133.509 68.4454,133.176 72.5,133.5 Z"/></g>
<g><path style="opacity:1" fill="#ef8887" d="M 52.5,130.5 C 54.0707,131.197 55.5707,131.53 57,131.5C 57.4955,133.473 57.6621,135.473 57.5,137.5C 55.5,137.5 53.5,137.5 51.5,137.5C 51.298,135.05 51.6314,132.717 52.5,130.5 Z"/></g>
<g><path style="opacity:1" fill="#f9f9f9" d="M 271.5,120.5 C 272.83,136.236 272.83,152.069 271.5,168C 223.5,168.667 175.5,168.667 127.5,168C 126.512,155.914 126.178,143.747 126.5,131.5C 127.478,131.189 128.145,130.522 128.5,129.5C 176.332,128.833 223.998,128.167 271.5,127.5C 271.5,125.167 271.5,122.833 271.5,120.5 Z"/></g>
<g><path style="opacity:1" fill="#dd1f1f" d="M 110.5,93.5 C 110.5,105.833 110.5,118.167 110.5,130.5C 108.692,130.491 107.025,130.991 105.5,132C 84.3257,145.787 62.3257,158.953 39.5,171.5C 39.5,163.167 39.5,154.833 39.5,146.5C 42.8853,144.752 46.3853,143.085 50,141.5C 50.7648,141.57 51.2648,141.903 51.5,142.5C 51.5,144.5 51.5,146.5 51.5,148.5C 53.1667,148.5 54.8333,148.5 56.5,148.5C 57.1667,147.833 57.8333,147.167 58.5,146.5C 64.2055,146.829 69.8722,146.495 75.5,145.5C 75.3764,144.893 75.0431,144.56 74.5,144.5C 72.0314,143.683 69.3647,143.183 66.5,143C 69.5577,141.782 72.2244,139.949 74.5,137.5C 76.9688,136.832 79.3021,136.165 81.5,135.5C 79.0122,133.612 76.0122,132.945 72.5,133.5C 70.0314,132.683 67.3647,132.183 64.5,132C 66.5,131 68.5,130 70.5,129C 69.9515,127.404 70.6182,126.237 72.5,125.5C 69.1091,123.875 65.4425,122.875 61.5,122.5C 78.0226,113.075 94.356,103.408 110.5,93.5 Z"/></g>
<g><path style="opacity:1" fill="#f5c3c3" d="M 51.5,142.5 C 52.9403,143.363 54.2736,143.363 55.5,142.5C 56.4656,144.396 56.7989,146.396 56.5,148.5C 54.8333,148.5 53.1667,148.5 51.5,148.5C 51.5,146.5 51.5,144.5 51.5,142.5 Z"/></g>
<g><path style="opacity:1" fill="#e86a68" d="M 74.5,144.5 C 75.0431,144.56 75.3764,144.893 75.5,145.5C 69.8722,146.495 64.2055,146.829 58.5,146.5C 58.281,145.325 58.6143,144.325 59.5,143.5C 64.4351,144.448 69.4351,144.781 74.5,144.5 Z"/></g>
<g><path style="opacity:1" fill="#d30e0e" d="M 110.5,130.5 C 110.194,133.385 110.527,136.052 111.5,138.5C 111.5,151.5 111.5,164.5 111.5,177.5C 87.5,177.5 63.5,177.5 39.5,177.5C 39.5,175.5 39.5,173.5 39.5,171.5C 62.3257,158.953 84.3257,145.787 105.5,132C 107.025,130.991 108.692,130.491 110.5,130.5 Z"/></g>
<g><path style="opacity:0.427" fill="#adaeaf" d="M 69.5,19.5 C 69.5,19.8333 69.5,20.1667 69.5,20.5C 59.4944,20.3335 49.4944,20.5002 39.5,21C 37.9586,22.3712 36.6253,23.8712 35.5,25.5C 34.501,81.3309 34.1677,137.331 34.5,193.5C 29.1667,193.5 23.8333,193.5 18.5,193.5C 18.5,195.5 18.5,197.5 18.5,199.5C 16.7163,200.893 14.7163,201.393 12.5,201C 11.5562,198.281 11.2229,195.448 11.5,192.5C 18.8409,192.666 26.1742,192.5 33.5,192C 32.8354,164.404 32.502,136.738 32.5,109C 32.3453,80.4402 32.8453,51.9402 34,23.5C 35.214,21.9512 36.714,20.7845 38.5,20C 48.828,19.5002 59.1613,19.3335 69.5,19.5 Z"/></g>
<g><path style="opacity:1" fill="#1d1d1d" d="M 35.5,25.5 C 35.5,79.1667 35.5,132.833 35.5,186.5C 120.5,186.5 205.5,186.5 290.5,186.5C 290.5,188.833 290.5,191.167 290.5,193.5C 205.167,193.5 119.833,193.5 34.5,193.5C 34.1677,137.331 34.501,81.3309 35.5,25.5 Z"/></g>
<g><path style="opacity:1" fill="#c6c8c8" d="M 34.5,193.5 C 119.833,193.5 205.167,193.5 290.5,193.5C 296.167,193.5 301.833,193.5 307.5,193.5C 307.5,195.5 307.5,197.5 307.5,199.5C 211.167,199.5 114.833,199.5 18.5,199.5C 18.5,197.5 18.5,195.5 18.5,193.5C 23.8333,193.5 29.1667,193.5 34.5,193.5 Z"/></g>
<g><path style="opacity:1" fill="#f0f1f1" d="M 139.5,194.5 C 155.167,194.5 170.833,194.5 186.5,194.5C 186.5,195.5 186.5,196.5 186.5,197.5C 170.833,197.5 155.167,197.5 139.5,197.5C 139.5,196.5 139.5,195.5 139.5,194.5 Z"/></g>
<g><path style="opacity:1" fill="#848687" d="M 11.5,192.5 C 11.2229,195.448 11.5562,198.281 12.5,201C 14.7163,201.393 16.7163,200.893 18.5,199.5C 114.999,200.333 211.666,200.833 308.5,201C 210.972,202.165 113.305,202.998 15.5,203.5C 22.3214,204.167 28.9881,204.833 35.5,205.5C 33.5853,205.216 31.9187,205.549 30.5,206.5C 24.1387,205.956 17.8054,205.123 11.5,204C 10.0423,201.923 9.37567,199.59 9.5,197C 9.56865,195.014 10.2353,193.514 11.5,192.5 Z"/></g>
<g><path style="opacity:0.953" fill="#a1a3a4" d="M 286.5,19.5 C 289.461,20.3928 291.294,22.3928 292,25.5C 292.5,81.1657 292.667,136.832 292.5,192.5C 299.5,192.5 306.5,192.5 313.5,192.5C 313.901,196.565 312.901,200.231 310.5,203.5C 304.036,204.131 297.703,204.797 291.5,205.5C 287.167,205.5 282.833,205.5 278.5,205.5C 200.833,204.167 123.167,204.167 45.5,205.5C 42.1667,205.5 38.8333,205.5 35.5,205.5C 28.9881,204.833 22.3214,204.167 15.5,203.5C 113.305,202.998 210.972,202.165 308.5,201C 211.666,200.833 114.999,200.333 18.5,199.5C 114.833,199.5 211.167,199.5 307.5,199.5C 307.5,197.5 307.5,195.5 307.5,193.5C 301.833,193.5 296.167,193.5 290.5,193.5C 290.5,191.167 290.5,188.833 290.5,186.5C 290.667,132.499 290.5,78.499 290,24.5C 288.961,23.2899 287.794,22.2899 286.5,21.5C 286.5,20.8333 286.5,20.1667 286.5,19.5 Z"/></g>
<g><path style="opacity:0.067" fill="#78797a" d="M 313.5,192.5 C 315.586,193.148 316.586,194.648 316.5,197C 316.579,200.858 314.912,203.525 311.5,205C 306.177,205.499 300.844,205.666 295.5,205.5C 294.167,205.5 292.833,205.5 291.5,205.5C 297.703,204.797 304.036,204.131 310.5,203.5C 312.901,200.231 313.901,196.565 313.5,192.5 Z"/></g>
<g><path style="opacity:0.278" fill="#848686" d="M 45.5,205.5 C 123.167,204.167 200.833,204.167 278.5,205.5C 277.209,205.263 276.209,205.596 275.5,206.5C 204.508,205.543 133.508,205.21 62.5,205.5C 56.8333,205.5 51.1667,205.5 45.5,205.5 Z"/></g>
<g><path style="opacity:0.433" fill="#262626" d="M 35.5,205.5 C 38.8333,205.5 42.1667,205.5 45.5,205.5C 51.1667,205.5 56.8333,205.5 62.5,205.5C 51.8641,207.376 41.1975,207.709 30.5,206.5C 31.9187,205.549 33.5853,205.216 35.5,205.5 Z"/></g>
<g><path style="opacity:0.03" fill="#2a2a2a" d="M 278.5,205.5 C 282.833,205.5 287.167,205.5 291.5,205.5C 292.833,205.5 294.167,205.5 295.5,205.5C 295.389,206.117 295.056,206.617 294.5,207C 287.986,207.82 281.653,207.653 275.5,206.5C 276.209,205.596 277.209,205.263 278.5,205.5 Z"/></g>
</svg>
