<?xml version="1.0" encoding="UTF-8"?>
<!DOCTYPE svg PUBLIC "-//W3C//DTD SVG 1.1//EN" "http://www.w3.org/Graphics/SVG/1.1/DTD/svg11.dtd">
<svg xmlns="http://www.w3.org/2000/svg" version="1.1" width="43px" height="43px" style="shape-rendering:geometricPrecision; text-rendering:geometricPrecision; image-rendering:optimizeQuality; fill-rule:evenodd; clip-rule:evenodd" xmlns:xlink="http://www.w3.org/1999/xlink">
<g><path style="opacity:0.951" fill="#ff76ed" d="M 15.5,2.5 C 32.6474,1.48006 40.4808,9.48006 39,26.5C 32.4975,39.8285 22.6642,42.9952 9.5,36C 1.62822,28.0905 0.461551,19.2571 6,9.5C 8.79005,6.53498 11.9567,4.20165 15.5,2.5 Z"/></g>
<g><path style="opacity:1" fill="#fffdfe" d="M 20.5,10.5 C 22.5,10.5 24.5,10.5 26.5,10.5C 26.5,11.5 26.5,12.5 26.5,13.5C 23.5,13.1667 22.1667,14.5 22.5,17.5C 23.5,17.5 24.5,17.5 25.5,17.5C 25.5,18.5 25.5,19.5 25.5,20.5C 24.5,20.5 23.5,20.5 22.5,20.5C 22.5,24.1667 22.5,27.8333 22.5,31.5C 21.1667,31.5 19.8333,31.5 18.5,31.5C 18.5,27.8333 18.5,24.1667 18.5,20.5C 17.5,20.5 16.5,20.5 15.5,20.5C 15.5,19.5 15.5,18.5 15.5,17.5C 16.5,17.5 17.5,17.5 18.5,17.5C 18.1658,14.812 18.8325,12.4786 20.5,10.5 Z"/></g>
</svg>
