<?xml version="1.0" encoding="UTF-8"?>
<!DOCTYPE svg PUBLIC "-//W3C//DTD SVG 1.1//EN" "http://www.w3.org/Graphics/SVG/1.1/DTD/svg11.dtd">
<svg xmlns="http://www.w3.org/2000/svg" version="1.1" width="44px" height="44px" style="shape-rendering:geometricPrecision; text-rendering:geometricPrecision; image-rendering:optimizeQuality; fill-rule:evenodd; clip-rule:evenodd" xmlns:xlink="http://www.w3.org/1999/xlink">
<g><path style="opacity:0.99" fill="#fab11b" d="M 17.5,-0.5 C 19.8333,-0.5 22.1667,-0.5 24.5,-0.5C 26.2608,0.312714 27.9275,1.31271 29.5,2.5C 26.7841,4.70808 23.7841,6.70808 20.5,8.5C 18.3877,6.22946 15.721,4.89612 12.5,4.5C 12.5,4.16667 12.5,3.83333 12.5,3.5C 13.9842,1.92635 15.6508,0.593015 17.5,-0.5 Z"/></g>
<g><path style="opacity:0.981" fill="#fab31b" d="M 12.5,3.5 C 12.5,3.83333 12.5,4.16667 12.5,4.5C 10.1663,6.17571 9.16628,8.50904 9.5,11.5C 8.83333,12.5 8.16667,13.5 7.5,14.5C 4.59645,15.6144 2.59645,17.6144 1.5,20.5C 0.833333,22.1667 0.166667,23.8333 -0.5,25.5C -0.5,21.1667 -0.5,16.8333 -0.5,12.5C 2.22039,7.29635 6.55372,4.29635 12.5,3.5 Z"/></g>
<g><path style="opacity:1" fill="#f58b22" d="M 12.5,4.5 C 15.721,4.89612 18.3877,6.22946 20.5,8.5C 21.5511,9.22235 22.2178,10.2223 22.5,11.5C 20.516,12.1557 18.516,12.8224 16.5,13.5C 14.4229,12.0629 12.0895,11.3962 9.5,11.5C 9.16628,8.50904 10.1663,6.17571 12.5,4.5 Z"/></g>
<g><path style="opacity:1" fill="#f68c20" d="M 29.5,2.5 C 30.7095,2.93205 31.7095,3.59872 32.5,4.5C 31.9569,4.55999 31.6236,4.89333 31.5,5.5C 33.1298,8.27609 33.7965,11.2761 33.5,14.5C 32.0387,13.3143 30.7054,13.3143 29.5,14.5C 27.8243,12.1663 25.491,11.1663 22.5,11.5C 22.2178,10.2223 21.5511,9.22235 20.5,8.5C 23.7841,6.70808 26.7841,4.70808 29.5,2.5 Z"/></g>
<g><path style="opacity:0.985" fill="#f9b119" d="M 32.5,4.5 C 38.01,5.35106 41.6767,8.35106 43.5,13.5C 43.5,15.8333 43.5,18.1667 43.5,20.5C 43.1667,20.5 42.8333,20.5 42.5,20.5C 42.1667,20.5 41.8333,20.5 41.5,20.5C 39.6871,17.3528 37.0204,15.3528 33.5,14.5C 33.7965,11.2761 33.1298,8.27609 31.5,5.5C 31.6236,4.89333 31.9569,4.55999 32.5,4.5 Z"/></g>
<g><path style="opacity:1" fill="#feede2" d="M 9.5,11.5 C 12.0895,11.3962 14.4229,12.0629 16.5,13.5C 18.516,12.8224 20.516,12.1557 22.5,11.5C 25.491,11.1663 27.8243,12.1663 29.5,14.5C 31.8904,18.1723 32.7237,22.1723 32,26.5C 30.0077,27.3281 28.5077,28.6614 27.5,30.5C 26.085,31.2894 24.585,31.9561 23,32.5C 20.2259,31.4642 17.3926,30.6309 14.5,30C 12.6763,29.34 11.343,28.1733 10.5,26.5C 10.5191,24.9397 10.8524,23.4397 11.5,22C 9.47671,19.8251 8.14338,17.3251 7.5,14.5C 8.16667,13.5 8.83333,12.5 9.5,11.5 Z"/></g>
<g><path style="opacity:1" fill="#f58b1f" d="M 7.5,14.5 C 8.14338,17.3251 9.47671,19.8251 11.5,22C 10.8524,23.4397 10.5191,24.9397 10.5,26.5C 9.66175,26.8417 9.32842,27.5084 9.5,28.5C 5.13036,27.4638 2.46369,24.7971 1.5,20.5C 2.59645,17.6144 4.59645,15.6144 7.5,14.5 Z"/></g>
<g><path style="opacity:1" fill="#f6874e" d="M 26.5,15.5 C 25.2502,15.5774 24.4169,16.244 24,17.5C 22.6054,16.1854 21.6054,16.5188 21,18.5C 20.3333,17.8333 19.6667,17.1667 19,16.5C 18.5065,18.1341 18.3398,19.8008 18.5,21.5C 17.6618,21.1583 17.3284,20.4916 17.5,19.5C 15.9227,17.1977 16.5894,15.6977 19.5,15C 21.7638,15.6981 23.5972,15.1981 25,13.5C 25.7172,14.0442 26.2172,14.7109 26.5,15.5 Z"/></g>
<g><path style="opacity:1" fill="#f58822" d="M 33.5,14.5 C 37.0204,15.3528 39.6871,17.3528 41.5,20.5C 40.5229,24.8105 37.8562,27.4772 33.5,28.5C 32.7321,29.2625 32.2321,30.2625 32,31.5C 30.6439,30.6198 29.1439,30.2865 27.5,30.5C 28.5077,28.6614 30.0077,27.3281 32,26.5C 32.7237,22.1723 31.8904,18.1723 29.5,14.5C 30.7054,13.3143 32.0387,13.3143 33.5,14.5 Z"/></g>
<g><path style="opacity:1" fill="#f05423" d="M 26.5,15.5 C 27.6737,16.5137 28.3404,17.847 28.5,19.5C 28.8333,22.5 27.5,23.8333 24.5,23.5C 25.0547,27.5841 24.0547,28.2508 21.5,25.5C 20.5224,25.9767 19.6891,26.6433 19,27.5C 18.5045,25.5273 18.3379,23.5273 18.5,21.5C 18.3398,19.8008 18.5065,18.1341 19,16.5C 19.6667,17.1667 20.3333,17.8333 21,18.5C 21.6054,16.5188 22.6054,16.1854 24,17.5C 24.4169,16.244 25.2502,15.5774 26.5,15.5 Z"/></g>
<g><path style="opacity:0.976" fill="#faaf18" d="M 1.5,20.5 C 2.46369,24.7971 5.13036,27.4638 9.5,28.5C 8.32471,34.5501 10.658,37.5501 16.5,37.5C 15.0813,38.4511 13.4147,38.7845 11.5,38.5C 5.75133,38.3024 1.75133,35.6357 -0.5,30.5C -0.5,28.8333 -0.5,27.1667 -0.5,25.5C 0.166667,23.8333 0.833333,22.1667 1.5,20.5 Z"/></g>
<g><path style="opacity:0.983" fill="#fab119" d="M 41.5,20.5 C 41.8333,20.5 42.1667,20.5 42.5,20.5C 42.3284,21.4916 42.6618,22.1583 43.5,22.5C 43.5,24.8333 43.5,27.1667 43.5,29.5C 41.3529,34.9128 37.3529,37.9128 31.5,38.5C 32.7868,35.302 33.4535,31.9686 33.5,28.5C 37.8562,27.4772 40.5229,24.8105 41.5,20.5 Z"/></g>
<g><path style="opacity:1" fill="#f37430" d="M 17.5,19.5 C 17.3284,20.4916 17.6618,21.1583 18.5,21.5C 18.3379,23.5273 18.5045,25.5273 19,27.5C 19.6891,26.6433 20.5224,25.9767 21.5,25.5C 24.0547,28.2508 25.0547,27.5841 24.5,23.5C 27.5,23.8333 28.8333,22.5 28.5,19.5C 30.0986,20.7985 30.5986,22.4652 30,24.5C 24.5229,30.7081 18.6896,31.0414 12.5,25.5C 13.8333,24.8333 15.1667,24.1667 16.5,23.5C 13.902,21.0719 11.902,18.2386 10.5,15C 10.8333,14.5 11.1667,14 11.5,13.5C 13.1606,15.8272 15.1606,17.8272 17.5,19.5 Z"/></g>
<g><path style="opacity:1" fill="#f58a20" d="M 10.5,26.5 C 11.343,28.1733 12.6763,29.34 14.5,30C 17.3926,30.6309 20.2259,31.4642 23,32.5C 24.585,31.9561 26.085,31.2894 27.5,30.5C 29.1439,30.2865 30.6439,30.6198 32,31.5C 32.2321,30.2625 32.7321,29.2625 33.5,28.5C 33.4535,31.9686 32.7868,35.302 31.5,38.5C 31.5,39.1667 31.1667,39.5 30.5,39.5C 27.5517,37.9817 24.5517,36.315 21.5,34.5C 19.9713,35.7629 18.3046,36.7629 16.5,37.5C 10.658,37.5501 8.32471,34.5501 9.5,28.5C 9.32842,27.5084 9.66175,26.8417 10.5,26.5 Z"/></g>
<g><path style="opacity:0.992" fill="#fbb220" d="M 30.5,39.5 C 28.551,41.563 26.2177,42.8964 23.5,43.5C 22.1667,43.5 20.8333,43.5 19.5,43.5C 16.2384,42.8651 13.5718,41.1984 11.5,38.5C 13.4147,38.7845 15.0813,38.4511 16.5,37.5C 18.3046,36.7629 19.9713,35.7629 21.5,34.5C 24.5517,36.315 27.5517,37.9817 30.5,39.5 Z"/></g>
</svg>
