<?xml version="1.0" encoding="UTF-8"?>
<!DOCTYPE svg PUBLIC "-//W3C//DTD SVG 1.1//EN" "http://www.w3.org/Graphics/SVG/1.1/DTD/svg11.dtd">
<svg xmlns="http://www.w3.org/2000/svg" version="1.1" width="47px" height="25px" style="shape-rendering:geometricPrecision; text-rendering:geometricPrecision; image-rendering:optimizeQuality; fill-rule:evenodd; clip-rule:evenodd" xmlns:xlink="http://www.w3.org/1999/xlink">
<g><path style="opacity:0.996" fill="#b7c2d9" d="M 14.5,-0.5 C 17.1667,-0.5 19.8333,-0.5 22.5,-0.5C 16.5253,0.902052 10.5253,2.56872 4.5,4.5C 7.33272,1.75028 10.666,0.0836131 14.5,-0.5 Z"/></g>
<g><path style="opacity:1" fill="#7690ce" d="M 22.5,-0.5 C 23.8333,-0.5 25.1667,-0.5 26.5,-0.5C 26.6107,0.117425 26.944,0.617425 27.5,1C 34.4504,1.02165 40.2838,3.52165 45,8.5C 45.755,11.3033 45.4217,13.9699 44,16.5C 40.4864,19.5001 36.6531,21.8334 32.5,23.5C 32.5,23.8333 32.5,24.1667 32.5,24.5C 26.1667,24.5 19.8333,24.5 13.5,24.5C 8.29268,22.893 3.62601,20.2263 -0.5,16.5C -0.5,13.8333 -0.5,11.1667 -0.5,8.5C 0.558761,6.44456 2.22543,5.11123 4.5,4.5C 10.5253,2.56872 16.5253,0.902052 22.5,-0.5 Z"/></g>
<g><path style="opacity:1" fill="#18191d" d="M 28.5,8.5 C 28.0074,10.8056 27.6741,13.139 27.5,15.5C 26.5,15.5 25.5,15.5 24.5,15.5C 24.5,15.1667 24.5,14.8333 24.5,14.5C 25.4614,12.7354 25.7947,10.7354 25.5,8.5C 24.1667,8.5 22.8333,8.5 21.5,8.5C 21.0074,10.8056 20.6741,13.139 20.5,15.5C 18.955,14.7703 18.1216,13.437 18,11.5C 17.4867,12.5266 16.9867,13.5266 16.5,14.5C 14.283,15.3686 11.9496,15.702 9.5,15.5C 8.8826,19.4221 8.21593,19.4221 7.5,15.5C 8.16162,12.5318 8.49495,9.5318 8.5,6.5C 11.1873,6.33591 13.854,6.50258 16.5,7C 17.7014,7.90252 18.5348,9.06919 19,10.5C 19.3763,7.98987 20.2096,5.65654 21.5,3.5C 22.3857,4.32496 22.719,5.32496 22.5,6.5C 25.0101,6.05351 27.0101,6.72017 28.5,8.5 Z"/></g>
<g><path style="opacity:1" fill="#191a1d" d="M 36.5,15.5 C 34.5,15.5 32.5,15.5 30.5,15.5C 30.1009,18.9877 29.4342,19.1544 28.5,16C 29.1595,13.5379 29.4928,11.0379 29.5,8.5C 30.3339,7.2521 31.6672,6.58544 33.5,6.5C 40.2464,7.40402 41.2464,10.404 36.5,15.5 Z"/></g>
<g><path style="opacity:1" fill="#8898c2" d="M 10.5,8.5 C 12.1667,8.5 13.8333,8.5 15.5,8.5C 16.1667,12.5 14.5,14.1667 10.5,13.5C 10.5,11.8333 10.5,10.1667 10.5,8.5 Z"/></g>
<g><path style="opacity:1" fill="#8399cf" d="M 32.5,8.5 C 33.8333,8.5 35.1667,8.5 36.5,8.5C 37.1667,12.5 35.5,14.1667 31.5,13.5C 31.6287,11.7839 31.962,10.1172 32.5,8.5 Z"/></g>
<g><path style="opacity:1" fill="#8a95b3" d="M 24.5,14.5 C 24.7852,12.712 24.4519,11.0453 23.5,9.5C 22.4824,11.5939 21.4824,13.5939 20.5,15.5C 20.6741,13.139 21.0074,10.8056 21.5,8.5C 22.8333,8.5 24.1667,8.5 25.5,8.5C 25.7947,10.7354 25.4614,12.7354 24.5,14.5 Z"/></g>
<g><path style="opacity:1" fill="#9297a6" d="M 20.5,15.5 C 20.2648,16.0967 19.7648,16.4301 19,16.5C 17.9889,15.9444 17.1556,15.2778 16.5,14.5C 16.9867,13.5266 17.4867,12.5266 18,11.5C 18.1216,13.437 18.955,14.7703 20.5,15.5 Z"/></g>
<g><path style="opacity:1" fill="#929cb4" d="M 28.5,8.5 C 28.8333,8.5 29.1667,8.5 29.5,8.5C 29.4928,11.0379 29.1595,13.5379 28.5,16C 29.4342,19.1544 30.1009,18.9877 30.5,15.5C 32.5,15.5 34.5,15.5 36.5,15.5C 35.0813,16.4511 33.4147,16.7845 31.5,16.5C 31.5,17.5 31.5,18.5 31.5,19.5C 30.1667,19.5 28.8333,19.5 27.5,19.5C 27.5,18.5 27.5,17.5 27.5,16.5C 26.209,16.7373 25.209,16.404 24.5,15.5C 25.5,15.5 26.5,15.5 27.5,15.5C 27.6741,13.139 28.0074,10.8056 28.5,8.5 Z"/></g>
<g><path style="opacity:0.612" fill="#556ea2" d="M 26.5,-0.5 C 28.1667,-0.5 29.8333,-0.5 31.5,-0.5C 37.1531,0.828039 42.1531,3.49471 46.5,7.5C 46.5,10.5 46.5,13.5 46.5,16.5C 42.6476,20.4262 37.9809,22.7595 32.5,23.5C 36.6531,21.8334 40.4864,19.5001 44,16.5C 45.4217,13.9699 45.755,11.3033 45,8.5C 40.2838,3.52165 34.4504,1.02165 27.5,1C 26.944,0.617425 26.6107,0.117425 26.5,-0.5 Z"/></g>
</svg>
