<?xml version="1.0" encoding="UTF-8"?>
<!DOCTYPE svg PUBLIC "-//W3C//DTD SVG 1.1//EN" "http://www.w3.org/Graphics/SVG/1.1/DTD/svg11.dtd">
<svg xmlns="http://www.w3.org/2000/svg" version="1.1" width="327px" height="207px" style="shape-rendering:geometricPrecision; text-rendering:geometricPrecision; image-rendering:optimizeQuality; fill-rule:evenodd; clip-rule:evenodd" xmlns:xlink="http://www.w3.org/1999/xlink">
<g><path style="opacity:1" fill="#808283" d="M 13.5,179.5 C 13.5,182.5 13.5,185.5 13.5,188.5C 112.287,188.82 211.12,188.487 310,187.5C 311.718,188.031 311.885,188.698 310.5,189.5C 212.498,189.167 114.498,189.5 16.5,190.5C 16.6236,191.107 16.9569,191.44 17.5,191.5C 17.8333,191.5 18.1667,191.5 18.5,191.5C 18.5,191.833 18.5,192.167 18.5,192.5C 15.0771,192.872 12.5771,191.539 11,188.5C 10.502,185.518 10.3354,182.518 10.5,179.5C 11.5,179.5 12.5,179.5 13.5,179.5 Z"/></g>
<g><path style="opacity:1" fill="#989a9b" d="M 310.5,189.5 C 212.833,190.167 115.167,190.833 17.5,191.5C 16.9569,191.44 16.6236,191.107 16.5,190.5C 114.498,189.5 212.498,189.167 310.5,189.5 Z"/></g>
<g><path style="opacity:0.997" fill="#999b9b" d="M 315.5,179.5 C 316.154,183.839 315.154,187.673 312.5,191C 214.501,191.5 116.501,191.667 18.5,191.5C 18.1667,191.5 17.8333,191.5 17.5,191.5C 115.167,190.833 212.833,190.167 310.5,189.5C 311.885,188.698 311.718,188.031 310,187.5C 211.12,188.487 112.287,188.82 13.5,188.5C 13.5,185.5 13.5,182.5 13.5,179.5C 20.5,179.5 27.5,179.5 34.5,179.5C 34.3333,122.499 34.5,65.499 35,8.5C 36.5429,6.62173 38.3762,5.12173 40.5,4C 122.833,3.33333 205.167,3.33333 287.5,4C 291.5,5.33333 294.167,8 295.5,12C 294.711,68.0401 294.711,123.873 295.5,179.5C 302.167,179.5 308.833,179.5 315.5,179.5 Z"/></g>
<g><path style="opacity:1" fill="#c7c8c8" d="M 140.5,180.5 C 191.167,180.5 241.833,180.5 292.5,180.5C 298.167,180.5 303.833,180.5 309.5,180.5C 309.5,182.5 309.5,184.5 309.5,186.5C 219.166,186.667 128.833,186.5 38.5,186C 36.236,185.764 34.0693,185.264 32,184.5C 31.6667,184.833 31.3333,185.167 31,185.5C 30.6905,184.234 30.1905,183.067 29.5,182C 66.4985,181.5 103.498,181.333 140.5,181.5C 140.5,181.167 140.5,180.833 140.5,180.5 Z"/></g>
<g><path style="opacity:1" fill="#f1f1f2" d="M 140.5,181.5 C 156.5,181.5 172.5,181.5 188.5,181.5C 188.5,182.5 188.5,183.5 188.5,184.5C 172.5,184.5 156.5,184.5 140.5,184.5C 140.5,183.5 140.5,182.5 140.5,181.5 Z"/></g>
<g><path style="opacity:1" fill="#1d1d1d" d="M 36.5,173.5 C 121.833,173.5 207.167,173.5 292.5,173.5C 292.5,175.833 292.5,178.167 292.5,180.5C 241.833,180.5 191.167,180.5 140.5,180.5C 105.833,180.5 71.1667,180.5 36.5,180.5C 36.5,178.167 36.5,175.833 36.5,173.5 Z"/></g>
<g><path style="opacity:1" fill="#161616" d="M 53.5,177.5 C 127.399,177.501 201.565,177.501 276,177.5C 281.083,178.307 286.25,178.807 291.5,179C 206.833,179.667 122.167,179.667 37.5,179C 43.0158,178.827 48.3491,178.327 53.5,177.5 Z"/></g>
<g><path style="opacity:1" fill="#060606" d="M 292.5,173.5 C 207.167,173.5 121.833,173.5 36.5,173.5C 36.3333,118.499 36.5,63.499 37,8.5C 38.3189,6.51255 40.1523,5.34588 42.5,5C 123.833,4.33333 205.167,4.33333 286.5,5C 288.587,5.79217 290.421,6.95884 292,8.5C 292.5,63.499 292.667,118.499 292.5,173.5 Z"/></g>
<g><path style="opacity:1" fill="#1a3d2b" d="M 285.5,153.5 C 285.5,155.833 285.5,158.167 285.5,160.5C 229.829,160.833 174.163,160.5 118.5,159.5C 116.028,158.104 113.362,157.27 110.5,157C 118.717,156.293 126.884,155.46 135,154.5C 150.399,156.044 165.899,156.711 181.5,156.5C 199.419,156.129 216.919,155.462 234,154.5C 244.081,155.027 253.748,155.693 263,156.5C 270.53,155.814 278.03,154.814 285.5,153.5 Z"/></g>
<g><path style="opacity:1" fill="#a57a69" d="M 60.5,144.5 C 60.5,146.5 60.5,148.5 60.5,150.5C 61.8333,150.5 63.1667,150.5 64.5,150.5C 64.4208,151.93 64.7542,153.264 65.5,154.5C 63.2573,155.474 60.924,155.808 58.5,155.5C 58.9309,151.663 59.5975,147.997 60.5,144.5 Z"/></g>
<g><path style="opacity:1" fill="#1a392a" d="M 87.5,131.5 C 88.8154,133.65 90.8154,134.984 93.5,135.5C 90.5456,136.625 87.5456,137.625 84.5,138.5C 84.7093,139.086 85.0426,139.586 85.5,140C 87.6159,139.718 89.7825,139.218 92,138.5C 94.3192,139.709 96.8192,140.542 99.5,141C 103.078,143.569 106.912,145.736 111,147.5C 111.711,149.367 111.211,150.867 109.5,152C 112.528,153.14 114.695,152.306 116,149.5C 116.519,150.516 117.353,151.182 118.5,151.5C 126.301,151.122 134.135,151.122 142,151.5C 145.666,148.542 148.833,148.875 151.5,152.5C 152.386,151.675 152.719,150.675 152.5,149.5C 154.96,149.301 157.293,148.635 159.5,147.5C 156.736,146.118 154.07,144.785 151.5,143.5C 157.728,143.84 162.395,146.507 165.5,151.5C 167.571,152.809 170.071,153.475 173,153.5C 175.5,153.167 178,152.833 180.5,152.5C 174.938,148.839 175.605,146.672 182.5,146C 181.167,145 179.833,144 178.5,143C 181.192,142.57 183.859,142.737 186.5,143.5C 186.452,139.925 188.119,137.591 191.5,136.5C 191.833,137.167 192.167,137.833 192.5,138.5C 194.059,137.553 195.726,136.887 197.5,136.5C 199.972,137.992 202.639,138.658 205.5,138.5C 205.351,139.552 205.517,140.552 206,141.5C 211.849,138.323 212.683,139.156 208.5,144C 202.993,148.447 196.66,150.614 189.5,150.5C 189.5,151.5 189.5,152.5 189.5,153.5C 204.505,153.346 219.505,153.013 234.5,152.5C 236.833,152.5 239.167,152.5 241.5,152.5C 256.165,153.773 270.831,153.773 285.5,152.5C 285.5,152.833 285.5,153.167 285.5,153.5C 278.03,154.814 270.53,155.814 263,156.5C 253.748,155.693 244.081,155.027 234,154.5C 216.919,155.462 199.419,156.129 181.5,156.5C 165.899,156.711 150.399,156.044 135,154.5C 126.884,155.46 118.717,156.293 110.5,157C 113.362,157.27 116.028,158.104 118.5,159.5C 174.163,160.5 229.829,160.833 285.5,160.5C 204.324,161.379 122.991,161.545 41.5,161C 40.1857,158.395 40.1857,155.895 41.5,153.5C 47.4632,152.955 53.1299,153.621 58.5,155.5C 60.9479,156.473 63.6146,156.806 66.5,156.5C 66.5,155.5 66.5,154.5 66.5,153.5C 68.2915,153.366 69.9582,153.699 71.5,154.5C 73.484,155.156 75.484,155.822 77.5,156.5C 78.1667,156.167 78.8333,155.833 79.5,155.5C 78.0476,154.06 77.0476,152.394 76.5,150.5C 77.6408,147.36 77.8075,144.027 77,140.5C 76.3918,138.934 75.5585,137.6 74.5,136.5C 74.5,135.833 74.5,135.167 74.5,134.5C 74.62,133.414 75.2867,132.747 76.5,132.5C 78.6457,133.894 80.979,134.56 83.5,134.5C 83.5,133.5 83.5,132.5 83.5,131.5C 84.8333,131.5 86.1667,131.5 87.5,131.5 Z"/></g>
<g><path style="opacity:1" fill="#9d715b" d="M 72.5,142.5 C 72.9846,145.602 74.3179,148.269 76.5,150.5C 77.0476,152.394 78.0476,154.06 79.5,155.5C 78.8333,155.833 78.1667,156.167 77.5,156.5C 75.484,155.822 73.484,155.156 71.5,154.5C 71.7244,150.443 72.0578,146.443 72.5,142.5 Z"/></g>
<g><path style="opacity:1" fill="#706c68" d="M 241.5,141.5 C 241.071,145.143 241.071,148.809 241.5,152.5C 239.167,152.5 236.833,152.5 234.5,152.5C 234.5,151.5 234.5,150.5 234.5,149.5C 235.978,149.762 237.311,149.429 238.5,148.5C 237.652,146.591 237.318,144.591 237.5,142.5C 237.281,141.325 237.614,140.325 238.5,139.5C 239.518,140.193 240.518,140.859 241.5,141.5 Z"/></g>
<g><path style="opacity:1" fill="#181d15" d="M 78.5,140.5 C 87.2206,141.194 94.2206,145.027 99.5,152C 96.0357,152.817 92.7024,152.483 89.5,151C 85.9961,149.082 82.6628,146.916 79.5,144.5C 78.5713,143.311 78.238,141.978 78.5,140.5 Z"/></g>
<g><path style="opacity:1" fill="#1c2119" d="M 72.5,142.5 C 72.0578,146.443 71.7244,150.443 71.5,154.5C 69.9582,153.699 68.2915,153.366 66.5,153.5C 66.5,154.5 66.5,155.5 66.5,156.5C 63.6146,156.806 60.9479,156.473 58.5,155.5C 60.924,155.808 63.2573,155.474 65.5,154.5C 64.7542,153.264 64.4208,151.93 64.5,150.5C 65.963,147.797 66.7963,144.797 67,141.5C 68.9554,139.482 70.7887,139.815 72.5,142.5 Z"/></g>
<g><path style="opacity:1" fill="#e4d6ae" d="M 74.5,136.5 C 75.5585,137.6 76.3918,138.934 77,140.5C 77.8075,144.027 77.6408,147.36 76.5,150.5C 74.3179,148.269 72.9846,145.602 72.5,142.5C 70.7887,139.815 68.9554,139.482 67,141.5C 66.7963,144.797 65.963,147.797 64.5,150.5C 63.1667,150.5 61.8333,150.5 60.5,150.5C 60.5,148.5 60.5,146.5 60.5,144.5C 60.7691,141.985 61.7691,139.985 63.5,138.5C 66.8499,138.665 70.1832,138.498 73.5,138C 74.056,137.617 74.3893,137.117 74.5,136.5 Z"/></g>
<g><path style="opacity:1" fill="#375977" d="M 246.5,134.5 C 246.833,134.5 247.167,134.5 247.5,134.5C 247.721,135.735 248.388,136.735 249.5,137.5C 249.167,138.167 248.833,138.833 248.5,139.5C 246.255,141.398 243.922,142.064 241.5,141.5C 240.518,140.859 239.518,140.193 238.5,139.5C 237.614,140.325 237.281,141.325 237.5,142.5C 235.919,138.02 237.585,135.687 242.5,135.5C 244.605,138.402 245.938,138.068 246.5,134.5 Z"/></g>
<g><path style="opacity:1" fill="#7e7871" d="M 246.5,134.5 C 245.938,138.068 244.605,138.402 242.5,135.5C 243.185,133.586 243.685,131.586 244,129.5C 245.113,130.76 245.28,131.927 244.5,133C 245.044,133.717 245.711,134.217 246.5,134.5 Z"/></g>
<g><path style="opacity:1" fill="#172d24" d="M 172.5,140.5 C 170.535,144.452 168.202,148.119 165.5,151.5C 162.395,146.507 157.728,143.84 151.5,143.5C 151.715,141.821 151.048,140.821 149.5,140.5C 149.25,139.078 148.417,138.078 147,137.5C 146.333,135.5 146.333,133.5 147,131.5C 149.844,132.45 152.511,133.783 155,135.5C 156.642,135.022 157.809,134.022 158.5,132.5C 159.721,131.972 160.887,131.305 162,130.5C 162.251,132.433 162.751,134.266 163.5,136C 166.428,135.544 169.428,135.544 172.5,136C 170.312,137.848 170.312,139.348 172.5,140.5 Z"/></g>
<g><path style="opacity:1" fill="#77321e" d="M 72.5,132.5 C 72.5,133.833 73.1667,134.5 74.5,134.5C 74.5,135.167 74.5,135.833 74.5,136.5C 74.3893,137.117 74.056,137.617 73.5,138C 70.1832,138.498 66.8499,138.665 63.5,138.5C 61.1638,137.406 61.1638,136.073 63.5,134.5C 66.5979,134.244 69.5979,133.578 72.5,132.5 Z"/></g>
<g><path style="opacity:1" fill="#543f35" d="M 257.5,129.5 C 256.89,130.391 256.557,131.391 256.5,132.5C 254.621,133.897 252.954,135.563 251.5,137.5C 250.575,136.643 249.908,135.643 249.5,134.5C 249.833,134.5 250.167,134.5 250.5,134.5C 252.176,133.817 252.843,132.483 252.5,130.5C 254.216,130.371 255.883,130.038 257.5,129.5 Z"/></g>
<g><path style="opacity:1" fill="#a07f55" d="M 246.5,129.5 C 247.167,129.833 247.833,130.167 248.5,130.5C 249.806,131.467 250.473,132.801 250.5,134.5C 250.167,134.5 249.833,134.5 249.5,134.5C 248.833,134.5 248.167,134.5 247.5,134.5C 247.703,132.61 247.037,131.11 245.5,130C 245.728,129.601 246.062,129.435 246.5,129.5 Z"/></g>
<g><path style="opacity:1" fill="#a87113" d="M 252.5,130.5 C 252.843,132.483 252.176,133.817 250.5,134.5C 250.473,132.801 249.806,131.467 248.5,130.5C 249.705,129.314 251.039,129.314 252.5,130.5 Z"/></g>
<g><path style="opacity:1" fill="#9f744f" d="M 257.5,128.5 C 258.833,128.5 260.167,128.5 261.5,128.5C 261.5,129.833 261.5,131.167 261.5,132.5C 260.001,133.494 258.334,133.494 256.5,132.5C 256.557,131.391 256.89,130.391 257.5,129.5C 257.5,129.167 257.5,128.833 257.5,128.5 Z"/></g>
<g><path style="opacity:1" fill="#2d4157" d="M 253.5,124.5 C 253.5,125.5 253.5,126.5 253.5,127.5C 254.568,128.434 255.901,128.768 257.5,128.5C 257.5,128.833 257.5,129.167 257.5,129.5C 255.883,130.038 254.216,130.371 252.5,130.5C 251.039,129.314 249.705,129.314 248.5,130.5C 247.833,130.167 247.167,129.833 246.5,129.5C 247.833,128.167 247.833,126.833 246.5,125.5C 248.806,125.007 251.139,124.674 253.5,124.5 Z"/></g>
<g><path style="opacity:1" fill="#7a5720" d="M 59.5,123.5 C 61.0418,124.301 62.7085,124.634 64.5,124.5C 64.4021,126.553 65.0687,128.22 66.5,129.5C 65.8112,130.707 65.6446,132.041 66,133.5C 65.3292,132.748 64.4959,132.414 63.5,132.5C 63.5,131.833 63.1667,131.5 62.5,131.5C 62.5,129.5 62.5,127.5 62.5,125.5C 61.5,125.5 60.5,125.5 59.5,125.5C 59.5,124.833 59.5,124.167 59.5,123.5 Z"/></g>
<g><path style="opacity:1" fill="#2e2121" d="M 261.5,128.5 C 260.167,128.5 258.833,128.5 257.5,128.5C 255.901,128.768 254.568,128.434 253.5,127.5C 256.48,127.759 258.313,126.426 259,123.5C 261.21,122.251 263.376,122.418 265.5,124C 263.807,125.25 262.473,126.75 261.5,128.5 Z"/></g>
<g><path style="opacity:1" fill="#4f3429" d="M 254.5,118.5 C 256.117,119.038 257.784,119.371 259.5,119.5C 268.137,122.368 268.804,126.701 261.5,132.5C 261.5,131.167 261.5,129.833 261.5,128.5C 262.473,126.75 263.807,125.25 265.5,124C 263.376,122.418 261.21,122.251 259,123.5C 258.313,126.426 256.48,127.759 253.5,127.5C 253.5,126.5 253.5,125.5 253.5,124.5C 253.833,122.5 254.167,120.5 254.5,118.5 Z"/></g>
<g><path style="opacity:1" fill="#cc9679" d="M 59.5,125.5 C 60.5,125.5 61.5,125.5 62.5,125.5C 62.5,127.5 62.5,129.5 62.5,131.5C 58.5564,131.116 57.5564,129.116 59.5,125.5 Z"/></g>
<g><path style="opacity:1" fill="#8e671f" d="M 77.5,123.5 C 77.8333,123.5 78.1667,123.5 78.5,123.5C 80.9118,123.694 81.9118,125.027 81.5,127.5C 78.5,127.833 77.1667,126.5 77.5,123.5 Z"/></g>
<g><path style="opacity:1" fill="#ac9375" d="M 70.5,121.5 C 70.1193,122.931 69.1193,123.764 67.5,124C 69.1554,125.444 69.822,127.278 69.5,129.5C 68.5,129.5 67.5,129.5 66.5,129.5C 65.0687,128.22 64.4021,126.553 64.5,124.5C 62.7085,124.634 61.0418,124.301 59.5,123.5C 61.768,121.998 64.268,120.665 67,119.5C 67.8159,120.823 68.9826,121.489 70.5,121.5 Z"/></g>
<g><path style="opacity:1" fill="#585e5b" d="M 253.5,118.5 C 253.833,118.5 254.167,118.5 254.5,118.5C 254.167,120.5 253.833,122.5 253.5,124.5C 251.139,124.674 248.806,125.007 246.5,125.5C 248.007,124.025 249.673,122.691 251.5,121.5C 252.906,121.027 253.573,120.027 253.5,118.5 Z"/></g>
<g><path style="opacity:1" fill="#5a3e23" d="M 79.5,120.5 C 80.1834,122.176 81.5168,122.843 83.5,122.5C 82.9759,124.306 82.3092,125.972 81.5,127.5C 81.9118,125.027 80.9118,123.694 78.5,123.5C 78.2627,122.209 78.596,121.209 79.5,120.5 Z"/></g>
<g><path style="opacity:1" fill="#234c38" d="M 140.5,139.5 C 143.518,139.704 146.518,140.037 149.5,140.5C 151.048,140.821 151.715,141.821 151.5,143.5C 154.07,144.785 156.736,146.118 159.5,147.5C 157.293,148.635 154.96,149.301 152.5,149.5C 152.719,150.675 152.386,151.675 151.5,152.5C 148.833,148.875 145.666,148.542 142,151.5C 134.135,151.122 126.301,151.122 118.5,151.5C 117.353,151.182 116.519,150.516 116,149.5C 114.695,152.306 112.528,153.14 109.5,152C 111.211,150.867 111.711,149.367 111,147.5C 106.912,145.736 103.078,143.569 99.5,141C 96.8192,140.542 94.3192,139.709 92,138.5C 89.7825,139.218 87.6159,139.718 85.5,140C 85.0426,139.586 84.7093,139.086 84.5,138.5C 87.5456,137.625 90.5456,136.625 93.5,135.5C 90.8154,134.984 88.8154,133.65 87.5,131.5C 89.9844,129.455 90.9844,126.788 90.5,123.5C 92.8333,123.5 95.1667,123.5 97.5,123.5C 99.6807,123.716 101.347,122.883 102.5,121C 104.81,120.503 107.143,120.337 109.5,120.5C 109.5,121.833 109.5,123.167 109.5,124.5C 117.357,124.315 121.857,127.981 123,135.5C 123.88,137.739 125.38,139.405 127.5,140.5C 128.429,141.689 128.762,143.022 128.5,144.5C 130.39,144.297 131.89,144.963 133,146.5C 133.402,145.128 133.902,143.795 134.5,142.5C 136.594,141.482 138.594,140.482 140.5,139.5 Z"/></g>
<g><path style="opacity:1" fill="#623f29" d="M 74.5,120.5 C 75.5,121.5 76.5,122.5 77.5,123.5C 77.1667,126.5 78.5,127.833 81.5,127.5C 79.2958,128.445 76.9625,128.611 74.5,128C 72.9632,129.11 72.2965,130.61 72.5,132.5C 69.5979,133.578 66.5979,134.244 63.5,134.5C 63.5,133.833 63.5,133.167 63.5,132.5C 64.4959,132.414 65.3292,132.748 66,133.5C 65.6446,132.041 65.8112,130.707 66.5,129.5C 67.5,129.5 68.5,129.5 69.5,129.5C 69.822,127.278 69.1554,125.444 67.5,124C 69.1193,123.764 70.1193,122.931 70.5,121.5C 71.9587,121.567 73.2921,121.234 74.5,120.5 Z"/></g>
<g><path style="opacity:1" fill="#9f3627" d="M 253.5,118.5 C 253.573,120.027 252.906,121.027 251.5,121.5C 250.432,120.566 249.099,120.232 247.5,120.5C 249.603,117.875 252.27,116.375 255.5,116C 254.619,116.708 253.953,117.542 253.5,118.5 Z"/></g>
<g><path style="opacity:1" fill="#a67960" d="M 74.5,120.5 C 73.2921,121.234 71.9587,121.567 70.5,121.5C 68.7484,119.754 67.4151,117.754 66.5,115.5C 67.1667,115.5 67.8333,115.5 68.5,115.5C 70.2624,115.643 71.9291,115.309 73.5,114.5C 74.4656,116.396 74.7989,118.396 74.5,120.5 Z"/></g>
<g><path style="opacity:1" fill="#320501" d="M 68.5,115.5 C 67.8333,115.5 67.1667,115.5 66.5,115.5C 64.8235,116.183 64.1568,117.517 64.5,119.5C 63.1779,119.33 62.0113,119.663 61,120.5C 60.5357,119.906 60.369,119.239 60.5,118.5C 62.0065,115.533 64.3398,113.2 67.5,111.5C 70.1092,112.23 72.7759,112.73 75.5,113C 72.8958,113.39 70.5625,114.224 68.5,115.5 Z"/></g>
<g><path style="opacity:1" fill="#c4a78e" d="M 240.5,106.5 C 241.239,106.369 241.906,106.536 242.5,107C 239.696,109.601 240.029,111.101 243.5,111.5C 243.351,110.448 243.517,109.448 244,108.5C 245.009,110.025 245.509,111.692 245.5,113.5C 243.071,113.884 240.737,114.551 238.5,115.5C 238.5,114.833 238.5,114.167 238.5,113.5C 239.234,112.292 239.567,110.959 239.5,109.5C 239.5,108.833 239.5,108.167 239.5,107.5C 240.167,107.5 240.5,107.167 240.5,106.5 Z"/></g>
<g><path style="opacity:1" fill="#9d7652" d="M 246.5,102.5 C 250.44,105.814 251.94,110.147 251,115.5C 250.047,117.373 248.88,117.706 247.5,116.5C 247.715,114.821 247.048,113.821 245.5,113.5C 245.509,111.692 245.009,110.025 244,108.5C 243.517,109.448 243.351,110.448 243.5,111.5C 240.029,111.101 239.696,109.601 242.5,107C 241.906,106.536 241.239,106.369 240.5,106.5C 238.823,101.127 240.489,100.127 245.5,103.5C 246.107,103.376 246.44,103.043 246.5,102.5 Z"/></g>
<g><path style="opacity:1" fill="#251608" d="M 243.5,100.5 C 245.966,99.3659 248.633,99.1993 251.5,100C 252.292,102.336 253.625,102.836 255.5,101.5C 259.272,102.937 261.605,105.603 262.5,109.5C 261.345,112.011 260.678,114.678 260.5,117.5C 257.075,117.367 256.742,118.033 259.5,119.5C 257.784,119.371 256.117,119.038 254.5,118.5C 254.167,118.5 253.833,118.5 253.5,118.5C 253.953,117.542 254.619,116.708 255.5,116C 252.27,116.375 249.603,117.875 247.5,120.5C 246.314,119.295 246.314,117.961 247.5,116.5C 248.88,117.706 250.047,117.373 251,115.5C 251.94,110.147 250.44,105.814 246.5,102.5C 245.71,101.599 244.71,100.932 243.5,100.5 Z"/></g>
<g><path style="opacity:1" fill="#664a30" d="M 242.5,100.5 C 242.833,100.5 243.167,100.5 243.5,100.5C 244.71,100.932 245.71,101.599 246.5,102.5C 246.44,103.043 246.107,103.376 245.5,103.5C 240.489,100.127 238.823,101.127 240.5,106.5C 240.5,107.167 240.167,107.5 239.5,107.5C 238.086,105.946 236.419,104.612 234.5,103.5C 236.99,101.917 239.657,100.917 242.5,100.5 Z"/></g>
<g><path style="opacity:1" fill="#17160d" d="M 79.5,76.5 C 79.5,76.8333 79.5,77.1667 79.5,77.5C 77.6785,82.4072 74.8451,86.7405 71,90.5C 68.5252,95.3362 68.0252,100.336 69.5,105.5C 73.1581,104.872 75.6581,106.206 77,109.5C 76.3773,113.248 75.544,116.914 74.5,120.5C 74.7989,118.396 74.4656,116.396 73.5,114.5C 71.9291,115.309 70.2624,115.643 68.5,115.5C 70.5625,114.224 72.8958,113.39 75.5,113C 72.7759,112.73 70.1092,112.23 67.5,111.5C 64.3398,113.2 62.0065,115.533 60.5,118.5C 60.4606,117.417 60.1272,116.417 59.5,115.5C 60.1667,114.833 60.8333,114.167 61.5,113.5C 58.7238,108.14 57.8904,102.474 59,96.5C 60.5067,97.5046 61.6733,98.838 62.5,100.5C 64.0421,99.2532 65.5421,99.2532 67,100.5C 67.3333,96.8333 67.6667,93.1667 68,89.5C 69.9345,86.6293 71.6012,83.6293 73,80.5C 74.9985,78.7468 77.1652,77.4135 79.5,76.5 Z"/></g>
<g><path style="opacity:1" fill="#0e110c" d="M 285.5,18.5 C 286.833,65.8333 286.833,113.167 285.5,160.5C 285.5,158.167 285.5,155.833 285.5,153.5C 285.5,153.167 285.5,152.833 285.5,152.5C 285.667,132.164 285.5,111.831 285,91.5C 283.667,92.1667 282.667,93.1667 282,94.5C 280.663,98.5052 279.33,102.505 278,106.5C 277.833,105.5 277.667,104.5 277.5,103.5C 279.293,94.6229 281.793,85.9562 285,77.5C 285.667,64.5 285.667,51.5 285,38.5C 283.667,39.8333 282.333,41.1667 281,42.5C 280.51,41.2068 280.343,39.8734 280.5,38.5C 281.939,39.5092 283.272,39.1759 284.5,37.5C 285.496,31.2015 285.83,24.8682 285.5,18.5 Z"/></g>
<g><path style="opacity:1" fill="#071416" d="M 161.5,81.5 C 162.708,82.2341 164.041,82.5674 165.5,82.5C 168.65,83.7066 171.984,84.7066 175.5,85.5C 177,90.5 178.5,95.5 180,100.5C 180.667,103.5 180.667,106.5 180,109.5C 178.42,111.921 177.587,114.587 177.5,117.5C 178.224,120.827 178.39,124.161 178,127.5C 175.682,131.619 173.848,135.953 172.5,140.5C 170.312,139.348 170.312,137.848 172.5,136C 169.428,135.544 166.428,135.544 163.5,136C 162.751,134.266 162.251,132.433 162,130.5C 160.887,131.305 159.721,131.972 158.5,132.5C 157.569,128.689 156.569,124.856 155.5,121C 156.651,111.898 158.817,103.065 162,94.5C 162.415,90.152 162.249,85.8187 161.5,81.5 Z"/></g>
<g><path style="opacity:1" fill="#193529" d="M 101.5,66.5 C 101.831,74.8599 101.498,83.1932 100.5,91.5C 99.7022,89.9223 99.2022,88.2556 99,86.5C 98.5172,87.448 98.3505,88.448 98.5,89.5C 97.7784,89.9175 97.2784,90.5842 97,91.5C 96.1667,96.5 95.3333,101.5 94.5,106.5C 95.1609,97.0979 91.4942,90.0979 83.5,85.5C 82.8333,90.8333 82.1667,96.1667 81.5,101.5C 80.3599,93.5376 79.6932,85.5376 79.5,77.5C 79.5,77.1667 79.5,76.8333 79.5,76.5C 78.9185,72.6845 79.7518,69.3512 82,66.5C 81.3237,71.2988 81.4903,75.9655 82.5,80.5C 82.281,81.675 82.6143,82.675 83.5,83.5C 87.4416,85.9383 90.9416,88.9383 94,92.5C 95.7968,89.3381 97.2968,86.0047 98.5,82.5C 97.8774,80.6314 97.8774,78.9648 98.5,77.5C 99.3267,72.3491 99.8267,67.0158 100,61.5C 100.198,63.3817 100.698,65.0484 101.5,66.5 Z"/></g>
<g><path style="opacity:1" fill="#071316" d="M 133.5,130.5 C 131.166,127.334 128.333,124.667 125,122.5C 123.716,114.981 121.049,107.981 117,101.5C 116.023,96.2074 115.523,90.8741 115.5,85.5C 119.509,85.1417 123.509,84.6417 127.5,84C 128.416,83.7216 129.082,83.2216 129.5,82.5C 132.381,81.7263 135.048,80.3929 137.5,78.5C 139.58,80.9928 141.414,83.6595 143,86.5C 145.497,92.3689 146.997,98.5356 147.5,105C 147.333,106.5 147.167,108 147,109.5C 143.736,115.278 141.236,121.445 139.5,128C 138.055,130.693 136.055,131.526 133.5,130.5 Z"/></g>
<g><path style="opacity:1" fill="#181c15" d="M 191.5,59.5 C 188.333,61.5137 185.999,64.347 184.5,68C 185.039,73.0402 186.706,77.5402 189.5,81.5C 188.493,86.3277 189.66,90.6611 193,94.5C 196.078,90.9155 199.578,87.9155 203.5,85.5C 204.802,86.8069 206.135,86.8069 207.5,85.5C 209.333,83.1667 211.167,80.8333 213,78.5C 214.509,80.9193 216.675,81.9193 219.5,81.5C 219.714,83.1439 219.38,84.6439 218.5,86C 214.098,86.0317 210.764,87.865 208.5,91.5C 198.255,99.5014 196.755,109.168 204,120.5C 207.861,126.902 211.694,133.235 215.5,139.5C 223.456,133.243 228.623,125.243 231,115.5C 233.279,112.619 236.112,110.619 239.5,109.5C 239.567,110.959 239.234,112.292 238.5,113.5C 237.057,116.29 236.39,119.123 236.5,122C 237.333,122.167 238.167,122.333 239,122.5C 240.376,122.316 241.209,121.649 241.5,120.5C 243.569,118.708 244.903,116.374 245.5,113.5C 247.048,113.821 247.715,114.821 247.5,116.5C 246.314,117.961 246.314,119.295 247.5,120.5C 249.099,120.232 250.432,120.566 251.5,121.5C 249.673,122.691 248.007,124.025 246.5,125.5C 247.833,126.833 247.833,128.167 246.5,129.5C 246.062,129.435 245.728,129.601 245.5,130C 247.037,131.11 247.703,132.61 247.5,134.5C 247.167,134.5 246.833,134.5 246.5,134.5C 245.711,134.217 245.044,133.717 244.5,133C 245.28,131.927 245.113,130.76 244,129.5C 243.685,131.586 243.185,133.586 242.5,135.5C 237.585,135.687 235.919,138.02 237.5,142.5C 237.318,144.591 237.652,146.591 238.5,148.5C 237.311,149.429 235.978,149.762 234.5,149.5C 234.5,150.5 234.5,151.5 234.5,152.5C 219.505,153.013 204.505,153.346 189.5,153.5C 189.5,152.5 189.5,151.5 189.5,150.5C 196.66,150.614 202.993,148.447 208.5,144C 212.683,139.156 211.849,138.323 206,141.5C 205.517,140.552 205.351,139.552 205.5,138.5C 202.639,138.658 199.972,137.992 197.5,136.5C 195.726,136.887 194.059,137.553 192.5,138.5C 192.167,137.833 191.833,137.167 191.5,136.5C 188.119,137.591 186.452,139.925 186.5,143.5C 183.859,142.737 181.192,142.57 178.5,143C 179.833,144 181.167,145 182.5,146C 175.605,146.672 174.938,148.839 180.5,152.5C 178,152.833 175.5,153.167 173,153.5C 170.071,153.475 167.571,152.809 165.5,151.5C 168.202,148.119 170.535,144.452 172.5,140.5C 173.848,135.953 175.682,131.619 178,127.5C 178.39,124.161 178.224,120.827 177.5,117.5C 177.587,114.587 178.42,111.921 180,109.5C 180.667,106.5 180.667,103.5 180,100.5C 178.5,95.5 177,90.5 175.5,85.5C 171.984,84.7066 168.65,83.7066 165.5,82.5C 168.572,82.8174 171.572,82.4841 174.5,81.5C 173.267,75.9093 172.434,70.2426 172,64.5C 170.603,62.9297 169.103,61.5964 167.5,60.5C 172.677,59.2448 177.344,56.9115 181.5,53.5C 184.317,56.3696 187.65,58.3696 191.5,59.5 Z"/></g>
<g><path style="opacity:1" fill="#3f2d1b" d="M 238.5,113.5 C 238.5,114.167 238.5,114.833 238.5,115.5C 239.209,116.404 240.209,116.737 241.5,116.5C 241.5,117.833 241.5,119.167 241.5,120.5C 241.209,121.649 240.376,122.316 239,122.5C 238.167,122.333 237.333,122.167 236.5,122C 236.39,119.123 237.057,116.29 238.5,113.5 Z"/></g>
<g><path style="opacity:1" fill="#90643d" d="M 245.5,113.5 C 244.903,116.374 243.569,118.708 241.5,120.5C 241.5,119.167 241.5,117.833 241.5,116.5C 240.209,116.737 239.209,116.404 238.5,115.5C 240.737,114.551 243.071,113.884 245.5,113.5 Z"/></g>
<g><path style="opacity:1" fill="#071316" d="M 246.5,73.5 C 247.5,73.5 248.5,73.5 249.5,73.5C 248.547,82.9575 246.214,91.9575 242.5,100.5C 239.657,100.917 236.99,101.917 234.5,103.5C 236.419,104.612 238.086,105.946 239.5,107.5C 239.5,108.167 239.5,108.833 239.5,109.5C 236.112,110.619 233.279,112.619 231,115.5C 228.623,125.243 223.456,133.243 215.5,139.5C 211.694,133.235 207.861,126.902 204,120.5C 196.755,109.168 198.255,99.5014 208.5,91.5C 209.846,97.161 213.513,99.8277 219.5,99.5C 220.108,95.5276 220.608,91.5276 221,87.5C 221.236,85.8807 222.069,84.8807 223.5,84.5C 223.232,86.099 223.566,87.4324 224.5,88.5C 228.426,82.9266 233.759,79.2599 240.5,77.5C 240.263,78.791 240.596,79.791 241.5,80.5C 242.575,83.7614 243.575,87.0948 244.5,90.5C 245.752,84.9009 246.418,79.2343 246.5,73.5 Z"/></g>
<g><path style="opacity:1" fill="#081416" d="M 79.5,77.5 C 79.6932,85.5376 80.3599,93.5376 81.5,101.5C 82.1667,96.1667 82.8333,90.8333 83.5,85.5C 91.4942,90.0979 95.1609,97.0979 94.5,106.5C 95.3333,101.5 96.1667,96.5 97,91.5C 97.2784,90.5842 97.7784,89.9175 98.5,89.5C 98.9282,97.0283 97.9282,104.362 95.5,111.5C 96.5558,115.444 97.2225,119.444 97.5,123.5C 95.1667,123.5 92.8333,123.5 90.5,123.5C 90.9844,126.788 89.9844,129.455 87.5,131.5C 86.1667,131.5 84.8333,131.5 83.5,131.5C 83.5,132.5 83.5,133.5 83.5,134.5C 80.979,134.56 78.6457,133.894 76.5,132.5C 75.2867,132.747 74.62,133.414 74.5,134.5C 73.1667,134.5 72.5,133.833 72.5,132.5C 72.2965,130.61 72.9632,129.11 74.5,128C 76.9625,128.611 79.2958,128.445 81.5,127.5C 82.3092,125.972 82.9759,124.306 83.5,122.5C 83.0423,119.691 81.7089,119.024 79.5,120.5C 78.596,121.209 78.2627,122.209 78.5,123.5C 78.1667,123.5 77.8333,123.5 77.5,123.5C 76.5,122.5 75.5,121.5 74.5,120.5C 75.544,116.914 76.3773,113.248 77,109.5C 75.6581,106.206 73.1581,104.872 69.5,105.5C 68.0252,100.336 68.5252,95.3362 71,90.5C 74.8451,86.7405 77.6785,82.4072 79.5,77.5 Z"/></g>
<g><path style="opacity:1" fill="#b48170" d="M 83.5,122.5 C 81.5168,122.843 80.1834,122.176 79.5,120.5C 81.7089,119.024 83.0423,119.691 83.5,122.5 Z"/></g>
<g><path style="opacity:1" fill="#11150f" d="M 161.5,81.5 C 162.249,85.8187 162.415,90.152 162,94.5C 158.817,103.065 156.651,111.898 155.5,121C 156.569,124.856 157.569,128.689 158.5,132.5C 157.809,134.022 156.642,135.022 155,135.5C 152.511,133.783 149.844,132.45 147,131.5C 146.333,133.5 146.333,135.5 147,137.5C 148.417,138.078 149.25,139.078 149.5,140.5C 146.518,140.037 143.518,139.704 140.5,139.5C 139.178,139.67 138.011,139.337 137,138.5C 136.018,135.706 134.851,133.039 133.5,130.5C 136.055,131.526 138.055,130.693 139.5,128C 141.236,121.445 143.736,115.278 147,109.5C 147.167,108 147.333,106.5 147.5,105C 146.997,98.5356 145.497,92.3689 143,86.5C 141.414,83.6595 139.58,80.9928 137.5,78.5C 135.048,80.3929 132.381,81.7263 129.5,82.5C 131.719,80.3587 134.053,78.192 136.5,76C 133.946,71.9447 130.613,68.778 126.5,66.5C 126.953,65.5416 127.619,64.7083 128.5,64C 130.833,63.3333 133.167,63.3333 135.5,64C 142.472,72.4921 151.138,78.3254 161.5,81.5 Z"/></g>
<g><path style="opacity:1" fill="#161c15" d="M 236.5,48.5 C 239.833,48.5 243.167,48.5 246.5,48.5C 245.998,58.8535 245.164,69.1868 244,79.5C 242.539,78.1175 241.706,78.4508 241.5,80.5C 240.596,79.791 240.263,78.791 240.5,77.5C 233.759,79.2599 228.426,82.9266 224.5,88.5C 224.334,84.1539 224.501,79.8206 225,75.5C 225.21,73.9419 225.71,72.6085 226.5,71.5C 227.735,71.7214 228.735,72.3881 229.5,73.5C 233.118,72.6806 236.784,72.6806 240.5,73.5C 240.351,74.552 240.517,75.552 241,76.5C 241.333,76.1667 241.667,75.8333 242,75.5C 242.667,69.5 242.667,63.5 242,57.5C 239.772,55.8866 237.272,55.22 234.5,55.5C 234.878,53.079 235.545,50.7457 236.5,48.5 Z"/></g>
<g><path style="opacity:1" fill="#121c18" d="M 232.5,53.5 C 230.346,58.4785 228.179,63.4785 226,68.5C 223.552,71.4735 220.386,72.9735 216.5,73C 218.519,73.4497 220.352,74.283 222,75.5C 222.953,78.4318 223.453,81.4318 223.5,84.5C 222.069,84.8807 221.236,85.8807 221,87.5C 220.608,91.5276 220.108,95.5276 219.5,99.5C 213.513,99.8277 209.846,97.161 208.5,91.5C 210.764,87.865 214.098,86.0317 218.5,86C 219.38,84.6439 219.714,83.1439 219.5,81.5C 216.675,81.9193 214.509,80.9193 213,78.5C 211.167,80.8333 209.333,83.1667 207.5,85.5C 206.135,86.8069 204.802,86.8069 203.5,85.5C 207.892,81.4372 211.558,76.7705 214.5,71.5C 215.672,70.2947 217.005,70.2947 218.5,71.5C 220.001,70.2485 221.668,69.2485 223.5,68.5C 221.625,67.4597 220.292,65.9597 219.5,64C 221.145,62.968 221.478,61.8013 220.5,60.5C 218.148,59.0153 215.814,57.682 213.5,56.5C 219.444,53.9114 225.778,52.9114 232.5,53.5 Z"/></g>
<g><path style="opacity:1" fill="#081517" d="M 98.5,77.5 C 97.8774,78.9648 97.8774,80.6314 98.5,82.5C 97.2968,86.0047 95.7968,89.3381 94,92.5C 90.9416,88.9383 87.4416,85.9383 83.5,83.5C 82.6143,82.675 82.281,81.675 82.5,80.5C 82.3367,78.1432 82.5034,75.8098 83,73.5C 83.9025,72.2986 85.0692,71.4652 86.5,71C 85.1667,70.3333 85.1667,69.6667 86.5,69C 90.4018,67.3653 94.4018,67.1986 98.5,68.5C 98.5,71.5 98.5,74.5 98.5,77.5 Z"/></g>
<g><path style="opacity:1" fill="#1f4131" d="M 234.5,48.5 C 235.167,48.5 235.833,48.5 236.5,48.5C 235.545,50.7457 234.878,53.079 234.5,55.5C 230.798,60.2363 228.132,65.5696 226.5,71.5C 225.71,72.6085 225.21,73.9419 225,75.5C 224.501,79.8206 224.334,84.1539 224.5,88.5C 223.566,87.4324 223.232,86.099 223.5,84.5C 223.453,81.4318 222.953,78.4318 222,75.5C 220.352,74.283 218.519,73.4497 216.5,73C 220.386,72.9735 223.552,71.4735 226,68.5C 228.179,63.4785 230.346,58.4785 232.5,53.5C 233.167,51.8333 233.833,50.1667 234.5,48.5 Z"/></g>
<g><path style="opacity:1" fill="#081516" d="M 194.5,54.5 C 198.387,54.6459 202.054,55.3126 205.5,56.5C 203.833,56.5 202.167,56.5 200.5,56.5C 200.481,58.0603 200.148,59.5603 199.5,61C 200.713,62.6303 201.546,64.4636 202,66.5C 203.395,67.4303 204.895,67.4303 206.5,66.5C 209.184,68.1933 211.851,69.86 214.5,71.5C 211.558,76.7705 207.892,81.4372 203.5,85.5C 199.578,87.9155 196.078,90.9155 193,94.5C 189.66,90.6611 188.493,86.3277 189.5,81.5C 186.706,77.5402 185.039,73.0402 184.5,68C 185.999,64.347 188.333,61.5137 191.5,59.5C 193.093,60.3479 194.26,61.6813 195,63.5C 195.176,66.8818 195.676,70.2152 196.5,73.5C 198.493,67.5861 198.826,61.5861 197.5,55.5C 196.686,57.7662 196.186,60.0995 196,62.5C 195.728,59.7462 195.228,57.0795 194.5,54.5 Z"/></g>
<g><path style="opacity:1" fill="#181b15" d="M 155.5,56.5 C 153.288,62.9764 148.622,66.6431 141.5,67.5C 147.654,73.999 155.154,78.3324 164,80.5C 165.03,80.8361 165.53,81.5028 165.5,82.5C 164.041,82.5674 162.708,82.2341 161.5,81.5C 151.138,78.3254 142.472,72.4921 135.5,64C 133.167,63.3333 130.833,63.3333 128.5,64C 127.619,64.7083 126.953,65.5416 126.5,66.5C 120.594,70.6291 116.927,76.2957 115.5,83.5C 120.203,83.5628 124.87,83.2295 129.5,82.5C 129.082,83.2216 128.416,83.7216 127.5,84C 123.509,84.6417 119.509,85.1417 115.5,85.5C 115.523,90.8741 116.023,96.2074 117,101.5C 121.049,107.981 123.716,114.981 125,122.5C 128.333,124.667 131.166,127.334 133.5,130.5C 134.851,133.039 136.018,135.706 137,138.5C 138.011,139.337 139.178,139.67 140.5,139.5C 138.594,140.482 136.594,141.482 134.5,142.5C 133.902,143.795 133.402,145.128 133,146.5C 131.89,144.963 130.39,144.297 128.5,144.5C 128.762,143.022 128.429,141.689 127.5,140.5C 125.38,139.405 123.88,137.739 123,135.5C 121.857,127.981 117.357,124.315 109.5,124.5C 109.5,123.167 109.5,121.833 109.5,120.5C 107.143,120.337 104.81,120.503 102.5,121C 101.347,122.883 99.6807,123.716 97.5,123.5C 97.2225,119.444 96.5558,115.444 95.5,111.5C 97.9282,104.362 98.9282,97.0283 98.5,89.5C 98.3505,88.448 98.5172,87.448 99,86.5C 99.2022,88.2556 99.7022,89.9223 100.5,91.5C 101.498,83.1932 101.831,74.8599 101.5,66.5C 101.369,65.6236 101.702,64.9569 102.5,64.5C 103.853,65.6853 105.02,67.0186 106,68.5C 108.664,66.1895 111.664,65.8562 115,67.5C 117.741,66.2115 120.241,64.5448 122.5,62.5C 123.081,59.6251 124.081,56.9585 125.5,54.5C 122.658,53.9955 121.325,52.3289 121.5,49.5C 122.774,47.6715 124.274,47.3381 126,48.5C 127.52,47.4933 129.187,46.8266 131,46.5C 136.768,49.5876 142.935,51.2543 149.5,51.5C 149.914,47.3001 151.914,46.4668 155.5,49C 156.297,51.7491 156.297,54.2491 155.5,56.5 Z"/></g>
<g><path style="opacity:1" fill="#1a3529" d="M 246.5,48.5 C 247.167,48.5 247.833,48.5 248.5,48.5C 248.546,56.8978 247.88,65.2311 246.5,73.5C 246.418,79.2343 245.752,84.9009 244.5,90.5C 243.575,87.0948 242.575,83.7614 241.5,80.5C 241.706,78.4508 242.539,78.1175 244,79.5C 245.164,69.1868 245.998,58.8535 246.5,48.5 Z"/></g>
<g><path style="opacity:1" fill="#071416" d="M 126.5,66.5 C 130.613,68.778 133.946,71.9447 136.5,76C 134.053,78.192 131.719,80.3587 129.5,82.5C 124.87,83.2295 120.203,83.5628 115.5,83.5C 116.927,76.2957 120.594,70.6291 126.5,66.5 Z"/></g>
<g><path style="opacity:1" fill="#0d1413" d="M 155.5,56.5 C 156.404,57.209 156.737,58.209 156.5,59.5C 160.452,57.9004 164.118,58.2337 167.5,60.5C 169.103,61.5964 170.603,62.9297 172,64.5C 172.434,70.2426 173.267,75.9093 174.5,81.5C 171.572,82.4841 168.572,82.8174 165.5,82.5C 165.53,81.5028 165.03,80.8361 164,80.5C 155.154,78.3324 147.654,73.999 141.5,67.5C 148.622,66.6431 153.288,62.9764 155.5,56.5 Z"/></g>
<g><path style="opacity:1" fill="#163024" d="M 205.5,56.5 C 208.167,57.8333 210.833,57.8333 213.5,56.5C 215.814,57.682 218.148,59.0153 220.5,60.5C 221.478,61.8013 221.145,62.968 219.5,64C 220.292,65.9597 221.625,67.4597 223.5,68.5C 221.668,69.2485 220.001,70.2485 218.5,71.5C 217.005,70.2947 215.672,70.2947 214.5,71.5C 211.851,69.86 209.184,68.1933 206.5,66.5C 204.895,67.4303 203.395,67.4303 202,66.5C 201.546,64.4636 200.713,62.6303 199.5,61C 200.148,59.5603 200.481,58.0603 200.5,56.5C 202.167,56.5 203.833,56.5 205.5,56.5 Z"/></g>
<g><path style="opacity:1" fill="#11231c" d="M 234.5,55.5 C 237.272,55.22 239.772,55.8866 242,57.5C 242.667,63.5 242.667,69.5 242,75.5C 241.667,75.8333 241.333,76.1667 241,76.5C 240.517,75.552 240.351,74.552 240.5,73.5C 236.784,72.6806 233.118,72.6806 229.5,73.5C 228.735,72.3881 227.735,71.7214 226.5,71.5C 228.132,65.5696 230.798,60.2363 234.5,55.5 Z"/></g>
<g><path style="opacity:1" fill="#1a1f17" d="M 91.5,48.5 C 92.6701,50.6502 93.6701,52.9836 94.5,55.5C 95.7757,56.6446 97.109,56.6446 98.5,55.5C 99.1667,56.5 99.8333,57.5 100.5,58.5C 103.656,56.6399 105.323,53.8065 105.5,50C 105.85,48.7425 106.517,48.4092 107.5,49C 108.5,50 109.5,51 110.5,52C 108.98,53.8847 107.98,56.0514 107.5,58.5C 107.887,59.7199 108.72,60.3865 110,60.5C 111.533,59.3047 113.033,59.3047 114.5,60.5C 115.18,57.6398 116.513,55.1398 118.5,53C 116.415,51.4736 116.415,49.6402 118.5,47.5C 119.518,48.1925 120.518,48.8592 121.5,49.5C 121.325,52.3289 122.658,53.9955 125.5,54.5C 124.081,56.9585 123.081,59.6251 122.5,62.5C 120.241,64.5448 117.741,66.2115 115,67.5C 111.664,65.8562 108.664,66.1895 106,68.5C 105.02,67.0186 103.853,65.6853 102.5,64.5C 101.702,64.9569 101.369,65.6236 101.5,66.5C 100.698,65.0484 100.198,63.3817 100,61.5C 99.8267,67.0158 99.3267,72.3491 98.5,77.5C 98.5,74.5 98.5,71.5 98.5,68.5C 94.4018,67.1986 90.4018,67.3653 86.5,69C 85.1667,69.6667 85.1667,70.3333 86.5,71C 85.0692,71.4652 83.9025,72.2986 83,73.5C 82.5034,75.8098 82.3367,78.1432 82.5,80.5C 81.4903,75.9655 81.3237,71.2988 82,66.5C 79.7518,69.3512 78.9185,72.6845 79.5,76.5C 77.1652,77.4135 74.9985,78.7468 73,80.5C 71.6012,83.6293 69.9345,86.6293 68,89.5C 67.6667,93.1667 67.3333,96.8333 67,100.5C 65.5421,99.2532 64.0421,99.2532 62.5,100.5C 61.6733,98.838 60.5067,97.5046 59,96.5C 57.8904,102.474 58.7238,108.14 61.5,113.5C 60.8333,114.167 60.1667,114.833 59.5,115.5C 60.1272,116.417 60.4606,117.417 60.5,118.5C 60.369,119.239 60.5357,119.906 61,120.5C 62.0113,119.663 63.1779,119.33 64.5,119.5C 64.1568,117.517 64.8235,116.183 66.5,115.5C 67.4151,117.754 68.7484,119.754 70.5,121.5C 68.9826,121.489 67.8159,120.823 67,119.5C 64.268,120.665 61.768,121.998 59.5,123.5C 59.5,124.167 59.5,124.833 59.5,125.5C 57.5564,129.116 58.5564,131.116 62.5,131.5C 63.1667,131.5 63.5,131.833 63.5,132.5C 63.5,133.167 63.5,133.833 63.5,134.5C 61.1638,136.073 61.1638,137.406 63.5,138.5C 61.7691,139.985 60.7691,141.985 60.5,144.5C 59.5975,147.997 58.9309,151.663 58.5,155.5C 53.1299,153.621 47.4632,152.955 41.5,153.5C 41.5915,150.697 41.7582,147.697 42,144.5C 45.8832,140.898 48.0498,136.398 48.5,131C 46.2449,127.718 44.9116,124.051 44.5,120C 44.3339,117.065 45.0006,114.398 46.5,112C 45.3149,107.605 43.6482,103.439 41.5,99.5C 41.3334,84.163 41.5001,68.8297 42,53.5C 43.1739,55.6709 45.0072,56.6709 47.5,56.5C 47.5,55.5 47.5,54.5 47.5,53.5C 48.5,53.5 49.5,53.5 50.5,53.5C 50.3203,57.2155 50.6536,60.8822 51.5,64.5C 49.9702,64.9389 48.9702,66.2723 48.5,68.5C 47.2357,72.7847 47.569,77.1181 49.5,81.5C 50.7007,83.9095 52.3674,85.9095 54.5,87.5C 60.1995,85.071 63.1995,80.7377 63.5,74.5C 63.2471,72.1417 62.9138,69.8083 62.5,67.5C 60.5165,67.3832 58.8498,68.0499 57.5,69.5C 56.8165,69.1373 56.1499,68.8039 55.5,68.5C 55.8174,65.4281 55.4841,62.4281 54.5,59.5C 53.8076,60.0253 53.3076,60.6919 53,61.5C 52.1764,58.1177 52.343,54.7844 53.5,51.5C 55.9486,51.98 58.1153,52.98 60,54.5C 61,53.1667 62,53.1667 63,54.5C 63.4224,52.5743 64.5891,51.5743 66.5,51.5C 68.7288,52.0553 70.3954,53.3886 71.5,55.5C 72.8139,54.6872 73.9805,53.6872 75,52.5C 77.5378,53.3992 80.0378,53.0658 82.5,51.5C 83.5624,50.5754 83.5624,49.5754 82.5,48.5C 85.1897,48.3387 88.1897,48.3387 91.5,48.5 Z"/></g>
<g><path style="opacity:1" fill="#071316" d="M 48.5,68.5 C 49.4006,70.7271 51.0672,71.7271 53.5,71.5C 53.2011,73.604 53.5344,75.604 54.5,77.5C 55.4841,74.5719 55.8174,71.5719 55.5,68.5C 56.1499,68.8039 56.8165,69.1373 57.5,69.5C 58.8498,68.0499 60.5165,67.3832 62.5,67.5C 62.9138,69.8083 63.2471,72.1417 63.5,74.5C 63.1995,80.7377 60.1995,85.071 54.5,87.5C 52.3674,85.9095 50.7007,83.9095 49.5,81.5C 47.569,77.1181 47.2357,72.7847 48.5,68.5 Z"/></g>
<g><path style="opacity:1" fill="#214130" d="M 66.5,33.5 C 70.1351,33.6556 70.4685,34.8223 67.5,37C 68.0944,37.4643 68.7611,37.631 69.5,37.5C 69.5,38.8333 69.5,40.1667 69.5,41.5C 75.5,41.5 81.5,41.5 87.5,41.5C 87.5,42.1667 87.5,42.8333 87.5,43.5C 86.1667,43.5 85.5,44.1667 85.5,45.5C 84.5416,45.0472 83.7083,44.3805 83,43.5C 80.3333,43.5 77.6667,43.5 75,43.5C 73.5596,44.9304 73.2263,46.597 74,48.5C 76.6213,48.2964 79.4547,48.2964 82.5,48.5C 83.5624,49.5754 83.5624,50.5754 82.5,51.5C 80.0378,53.0658 77.5378,53.3992 75,52.5C 73.9805,53.6872 72.8139,54.6872 71.5,55.5C 70.3954,53.3886 68.7288,52.0553 66.5,51.5C 66.7192,47.4726 65.5525,46.8059 63,49.5C 62.1667,48.6667 61.3333,47.8333 60.5,47C 61.4158,46.7216 62.0825,46.2216 62.5,45.5C 63.3627,43.5786 64.0293,41.5786 64.5,39.5C 66.3079,38.0821 66.9746,36.0821 66.5,33.5 Z"/></g>
<g><path style="opacity:1" fill="#a8aeac" d="M 258.5,46.5 C 258.179,48.0481 257.179,48.7148 255.5,48.5C 255.343,47.1266 255.51,45.7932 256,44.5C 256.417,45.756 257.25,46.4226 258.5,46.5 Z"/></g>
<g><path style="opacity:1" fill="#7d8d84" d="M 85.5,45.5 C 85.369,46.2389 85.5357,46.9056 86,47.5C 86.6667,46.1667 87.3333,46.1667 88,47.5C 88.4828,46.552 88.6495,45.552 88.5,44.5C 89.1499,44.1961 89.8165,43.8627 90.5,43.5C 91.4519,45.0453 91.7852,46.712 91.5,48.5C 88.1897,48.3387 85.1897,48.3387 82.5,48.5C 79.4547,48.2964 76.6213,48.2964 74,48.5C 73.2263,46.597 73.5596,44.9304 75,43.5C 77.6667,43.5 80.3333,43.5 83,43.5C 83.7083,44.3805 84.5416,45.0472 85.5,45.5 Z"/></g>
<g><path style="opacity:1" fill="#989c98" d="M 235.5,43.5 C 237.331,44.0522 238.997,44.0522 240.5,43.5C 241.192,44.0253 241.692,44.6919 242,45.5C 242.399,45.2716 242.565,44.9382 242.5,44.5C 244.359,44.4609 245.692,45.2942 246.5,47C 242.3,47.3176 238.3,47.4843 234.5,47.5C 234.232,45.901 234.566,44.5676 235.5,43.5 Z"/></g>
<g><path style="opacity:1" fill="#b8bebb" d="M 87.5,43.5 C 87.5,44.1667 87.8333,44.5 88.5,44.5C 88.6495,45.552 88.4828,46.552 88,47.5C 87.3333,46.1667 86.6667,46.1667 86,47.5C 85.5357,46.9056 85.369,46.2389 85.5,45.5C 85.5,44.1667 86.1667,43.5 87.5,43.5 Z"/></g>
<g><path style="opacity:1" fill="#85988e" d="M 70.5,43.5 C 73.0628,44.9979 73.0628,46.6646 70.5,48.5C 69.3336,46.8327 69.3336,45.166 70.5,43.5 Z"/></g>
<g><path style="opacity:1" fill="#65766c" d="M 242.5,44.5 C 247.605,44.3865 252.938,44.0532 258.5,43.5C 258.5,44.5 258.5,45.5 258.5,46.5C 257.25,46.4226 256.417,45.756 256,44.5C 255.51,45.7932 255.343,47.1266 255.5,48.5C 253.64,47.9285 251.973,47.9285 250.5,48.5C 249.833,48.5 249.167,48.5 248.5,48.5C 247.833,48.5 247.167,48.5 246.5,48.5C 243.167,48.5 239.833,48.5 236.5,48.5C 235.833,48.5 235.167,48.5 234.5,48.5C 234.5,48.1667 234.5,47.8333 234.5,47.5C 238.3,47.4843 242.3,47.3176 246.5,47C 245.692,45.2942 244.359,44.4609 242.5,44.5 Z"/></g>
<g><path style="opacity:1" fill="#172f24" d="M 47.5,43.5 C 50.2562,43.7162 52.5895,44.7162 54.5,46.5C 57.1667,46.1667 59.8333,45.8333 62.5,45.5C 62.0825,46.2216 61.4158,46.7216 60.5,47C 61.3333,47.8333 62.1667,48.6667 63,49.5C 65.5525,46.8059 66.7192,47.4726 66.5,51.5C 64.5891,51.5743 63.4224,52.5743 63,54.5C 62,53.1667 61,53.1667 60,54.5C 58.1153,52.98 55.9486,51.98 53.5,51.5C 52.343,54.7844 52.1764,58.1177 53,61.5C 53.3076,60.6919 53.8076,60.0253 54.5,59.5C 55.4841,62.4281 55.8174,65.4281 55.5,68.5C 55.8174,71.5719 55.4841,74.5719 54.5,77.5C 53.5344,75.604 53.2011,73.604 53.5,71.5C 51.0672,71.7271 49.4006,70.7271 48.5,68.5C 48.9702,66.2723 49.9702,64.9389 51.5,64.5C 50.6536,60.8822 50.3203,57.2155 50.5,53.5C 49.0813,52.5489 47.4147,52.2155 45.5,52.5C 45.7135,50.8561 45.3802,49.3561 44.5,48C 45.3862,46.3853 46.3862,44.8853 47.5,43.5 Z"/></g>
<g><path style="opacity:1" fill="#664537" d="M 278.5,33.5 C 278.833,33.5 279.167,33.5 279.5,33.5C 280.451,34.9187 280.784,36.5853 280.5,38.5C 279.837,40.0419 279.17,41.7086 278.5,43.5C 276.668,44.2485 275.001,45.2485 273.5,46.5C 272.201,45.3063 270.868,44.3063 269.5,43.5C 267.668,42.2819 266.668,42.9486 266.5,45.5C 265.778,44.4489 264.778,43.7822 263.5,43.5C 263.5,43.1667 263.5,42.8333 263.5,42.5C 263.821,40.9519 264.821,40.2852 266.5,40.5C 268.118,39.5203 270.118,39.5203 272.5,40.5C 273.802,41.3567 275.135,41.8567 276.5,42C 277.423,39.9592 277.756,37.7925 277.5,35.5C 278.338,35.1583 278.672,34.4916 278.5,33.5 Z"/></g>
<g><path style="opacity:1" fill="#bab6b5" d="M 269.5,43.5 C 268.778,44.5511 267.778,45.2178 266.5,45.5C 266.668,42.9486 267.668,42.2819 269.5,43.5 Z"/></g>
<g><path style="opacity:1" fill="#775339" d="M 64.5,39.5 C 64.0293,41.5786 63.3627,43.5786 62.5,45.5C 59.8333,45.8333 57.1667,46.1667 54.5,46.5C 54.9528,45.5416 55.6195,44.7083 56.5,44C 52.1482,43.5811 51.8149,42.9145 55.5,42C 54.8333,41.3333 54.1667,40.6667 53.5,40C 55.4247,40.1349 57.4247,40.3016 59.5,40.5C 60.4924,36.8492 62.1591,36.5158 64.5,39.5 Z"/></g>
<g><path style="opacity:1" fill="#8c7057" d="M 59.5,37.5 C 59.5,38.5 59.5,39.5 59.5,40.5C 57.4247,40.3016 55.4247,40.1349 53.5,40C 54.1667,40.6667 54.8333,41.3333 55.5,42C 51.8149,42.9145 52.1482,43.5811 56.5,44C 55.6195,44.7083 54.9528,45.5416 54.5,46.5C 52.5895,44.7162 50.2562,43.7162 47.5,43.5C 46.962,41.8828 46.6287,40.2161 46.5,38.5C 46.8333,38.5 47.1667,38.5 47.5,38.5C 47.8333,38.5 48.1667,38.5 48.5,38.5C 48.8425,40.2252 49.8425,40.7252 51.5,40C 52.3366,38.9887 52.67,37.8221 52.5,36.5C 55.2769,35.4719 57.6102,35.8053 59.5,37.5 Z"/></g>
<g><path style="opacity:1" fill="#1b1f17" d="M 280.5,38.5 C 280.343,39.8734 280.51,41.2068 281,42.5C 282.333,41.1667 283.667,39.8333 285,38.5C 285.667,51.5 285.667,64.5 285,77.5C 281.793,85.9562 279.293,94.6229 277.5,103.5C 277.667,104.5 277.833,105.5 278,106.5C 279.33,102.505 280.663,98.5052 282,94.5C 282.667,93.1667 283.667,92.1667 285,91.5C 285.5,111.831 285.667,132.164 285.5,152.5C 270.831,153.773 256.165,153.773 241.5,152.5C 241.071,148.809 241.071,145.143 241.5,141.5C 243.922,142.064 246.255,141.398 248.5,139.5C 248.833,138.833 249.167,138.167 249.5,137.5C 248.388,136.735 247.721,135.735 247.5,134.5C 248.167,134.5 248.833,134.5 249.5,134.5C 249.908,135.643 250.575,136.643 251.5,137.5C 252.954,135.563 254.621,133.897 256.5,132.5C 258.334,133.494 260.001,133.494 261.5,132.5C 268.804,126.701 268.137,122.368 259.5,119.5C 256.742,118.033 257.075,117.367 260.5,117.5C 260.678,114.678 261.345,112.011 262.5,109.5C 261.605,105.603 259.272,102.937 255.5,101.5C 253.625,102.836 252.292,102.336 251.5,100C 248.633,99.1993 245.966,99.3659 243.5,100.5C 243.167,100.5 242.833,100.5 242.5,100.5C 246.214,91.9575 248.547,82.9575 249.5,73.5C 248.5,73.5 247.5,73.5 246.5,73.5C 247.88,65.2311 248.546,56.8978 248.5,48.5C 249.167,48.5 249.833,48.5 250.5,48.5C 252.429,50.1482 254.429,51.8149 256.5,53.5C 258.474,49.8957 260.808,46.5624 263.5,43.5C 264.778,43.7822 265.778,44.4489 266.5,45.5C 267.778,45.2178 268.778,44.5511 269.5,43.5C 270.868,44.3063 272.201,45.3063 273.5,46.5C 275.001,45.2485 276.668,44.2485 278.5,43.5C 279.17,41.7086 279.837,40.0419 280.5,38.5 Z"/></g>
<g><path style="opacity:1" fill="#715132" d="M 267.5,149.5 C 269.167,149.5 270.833,149.5 272.5,149.5C 272.5,150.5 272.5,151.5 272.5,152.5C 270.473,152.662 268.473,152.495 266.5,152C 267.252,151.329 267.586,150.496 267.5,149.5 Z"/></g>
<g><path style="opacity:1" fill="#909799" d="M 268.5,144.5 C 268.721,145.735 269.388,146.735 270.5,147.5C 268.54,148.519 266.54,148.519 264.5,147.5C 264.5,146.5 264.5,145.5 264.5,144.5C 265.833,144.5 267.167,144.5 268.5,144.5 Z"/></g>
<g><path style="opacity:1" fill="#3a5369" d="M 268.5,144.5 C 267.167,144.5 265.833,144.5 264.5,144.5C 264.5,145.5 264.5,146.5 264.5,147.5C 262.712,147.785 261.045,147.452 259.5,146.5C 258.653,145.155 257.487,144.155 256,143.5C 255.517,142.552 255.351,141.552 255.5,140.5C 254.566,139.432 254.232,138.099 254.5,136.5C 256.57,136.551 258.403,135.885 260,134.5C 262.5,136.162 264,138.496 264.5,141.5C 265.901,142.521 267.235,143.521 268.5,144.5 Z"/></g>
<g><path style="opacity:1" fill="#8c9496" d="M 255.5,140.5 C 255.5,139.5 255.5,138.5 255.5,137.5C 258.55,136.923 260.55,138.09 261.5,141C 260.892,141.87 260.059,142.37 259,142.5C 257.923,141.571 256.756,140.904 255.5,140.5 Z"/></g>
<g><path style="opacity:1" fill="#d0711e" d="M 170.5,38.5 C 170.5,38.8333 170.5,39.1667 170.5,39.5C 165.792,42.1591 161.126,42.1591 156.5,39.5C 161.23,39.7166 165.897,39.3833 170.5,38.5 Z"/></g>
<g><path style="opacity:1" fill="#5a3c31" d="M 222.5,36.5 C 234.167,36.5 245.833,36.5 257.5,36.5C 257.5,38.1667 257.5,39.8333 257.5,41.5C 246.167,41.5 234.833,41.5 223.5,41.5C 218.167,41.5 212.833,41.5 207.5,41.5C 207.5,39.8333 207.5,38.1667 207.5,36.5C 212.5,36.5 217.5,36.5 222.5,36.5 Z"/></g>
<g><path style="opacity:1" fill="#bca196" d="M 263.5,29.5 C 266.113,30.0955 266.113,30.9288 263.5,32C 265.301,32.3173 265.634,32.984 264.5,34C 265.244,35.0386 266.244,35.5386 267.5,35.5C 266.962,37.1172 266.629,38.7839 266.5,40.5C 264.821,40.2852 263.821,40.9519 263.5,42.5C 259.59,38.2405 259.59,33.9071 263.5,29.5 Z"/></g>
<g><path style="opacity:1" fill="#1c2018" d="M 198.5,32.5 C 207.167,32.5 215.833,32.5 224.5,32.5C 223.4,33.6049 222.733,34.9382 222.5,36.5C 217.5,36.5 212.5,36.5 207.5,36.5C 207.5,38.1667 207.5,39.8333 207.5,41.5C 212.833,41.5 218.167,41.5 223.5,41.5C 227.5,42.1667 231.5,42.8333 235.5,43.5C 234.566,44.5676 234.232,45.901 234.5,47.5C 234.5,47.8333 234.5,48.1667 234.5,48.5C 233.833,50.1667 233.167,51.8333 232.5,53.5C 225.778,52.9114 219.444,53.9114 213.5,56.5C 210.833,57.8333 208.167,57.8333 205.5,56.5C 202.054,55.3126 198.387,54.6459 194.5,54.5C 193.127,54.6567 191.793,54.49 190.5,54C 187.251,49.3525 183.918,44.8525 180.5,40.5C 179.772,38.2654 178.439,36.4321 176.5,35C 177.729,34.2189 179.062,33.7189 180.5,33.5C 185.179,37.1804 189.179,41.5138 192.5,46.5C 196.798,49.0666 201.131,49.0666 205.5,46.5C 202.434,44.4043 199.434,42.4043 196.5,40.5C 197.64,37.9752 198.307,35.3085 198.5,32.5 Z"/></g>
<g><path style="opacity:1" fill="#f8be2f" d="M 167.5,35.5 C 166.942,36.7899 165.942,37.6232 164.5,38C 161.854,38.4974 159.187,38.6641 156.5,38.5C 156.5,37.5 156.5,36.5 156.5,35.5C 159.467,36.7917 161.967,36.125 164,33.5C 164.71,34.9733 165.876,35.6399 167.5,35.5 Z"/></g>
<g><path style="opacity:1" fill="#251506" d="M 273.5,32.5 C 275.23,33.0256 276.564,34.0256 277.5,35.5C 277.756,37.7925 277.423,39.9592 276.5,42C 275.135,41.8567 273.802,41.3567 272.5,40.5C 272.194,37.6146 272.527,34.9479 273.5,32.5 Z"/></g>
<g><path style="opacity:1" fill="#ef9a19" d="M 172.5,28.5 C 172.665,31.5184 172.498,34.5184 172,37.5C 171.617,38.056 171.117,38.3893 170.5,38.5C 165.897,39.3833 161.23,39.7166 156.5,39.5C 156.5,39.1667 156.5,38.8333 156.5,38.5C 159.187,38.6641 161.854,38.4974 164.5,38C 165.942,37.6232 166.942,36.7899 167.5,35.5C 168.583,35.4606 169.583,35.1272 170.5,34.5C 171.169,32.3691 171.835,30.3691 172.5,28.5 Z"/></g>
<g><path style="opacity:1" fill="#0f1a15" d="M 150.5,17.5 C 150.5,17.8333 150.5,18.1667 150.5,18.5C 139.167,18.5 127.833,18.5 116.5,18.5C 97.8029,17.8465 79.4695,18.5131 61.5,20.5C 54.7621,21.1548 48.0955,20.4881 41.5,18.5C 41.334,23.8437 41.5006,29.1771 42,34.5C 43.0113,33.6634 44.1779,33.33 45.5,33.5C 45.0791,35.9099 43.7458,37.7432 41.5,39C 43.8035,40.1236 45.8035,41.6236 47.5,43.5C 46.3862,44.8853 45.3862,46.3853 44.5,48C 45.3802,49.3561 45.7135,50.8561 45.5,52.5C 47.4147,52.2155 49.0813,52.5489 50.5,53.5C 49.5,53.5 48.5,53.5 47.5,53.5C 47.5,54.5 47.5,55.5 47.5,56.5C 45.0072,56.6709 43.1739,55.6709 42,53.5C 41.5001,68.8297 41.3334,84.163 41.5,99.5C 40.5021,72.3384 40.1688,45.0051 40.5,17.5C 77.1667,17.5 113.833,17.5 150.5,17.5 Z"/></g>
<g><path style="opacity:1" fill="#dedbd2" d="M 163.5,24.5 C 163.649,25.552 163.483,26.552 163,27.5C 162.107,26.2888 161.274,26.2888 160.5,27.5C 161.32,29.1112 162.654,29.7778 164.5,29.5C 164.366,27.7085 164.699,26.0418 165.5,24.5C 165.833,24.5 166.167,24.5 166.5,24.5C 167.167,24.5 167.833,24.5 168.5,24.5C 169.404,25.209 169.737,26.209 169.5,27.5C 169.316,29.9248 168.649,29.9248 167.5,27.5C 166.585,28.3279 165.919,29.3279 165.5,30.5C 166.274,31.7112 167.107,31.7112 168,30.5C 168.483,31.448 168.649,32.448 168.5,33.5C 168.167,34.1667 167.833,34.8333 167.5,35.5C 165.876,35.6399 164.71,34.9733 164,33.5C 161.967,36.125 159.467,36.7917 156.5,35.5C 156.5,35.1667 156.5,34.8333 156.5,34.5C 156.184,31.0217 156.684,27.6883 158,24.5C 159.828,23.2475 161.661,23.2475 163.5,24.5 Z"/></g>
<g><path style="opacity:1" fill="#947152" d="M 273.5,32.5 C 272.527,34.9479 272.194,37.6146 272.5,40.5C 270.118,39.5203 268.118,39.5203 266.5,40.5C 266.629,38.7839 266.962,37.1172 267.5,35.5C 267.721,34.2652 268.388,33.2652 269.5,32.5C 268.355,31.109 268.355,29.7757 269.5,28.5C 270.386,29.325 270.719,30.325 270.5,31.5C 271.791,31.2627 272.791,31.596 273.5,32.5 Z"/></g>
<g><path style="opacity:1" fill="#693b2b" d="M 185.5,21.5 C 185.796,23.403 186.463,25.0697 187.5,26.5C 187.5,28.1667 187.5,29.8333 187.5,31.5C 210.51,31.8331 233.51,31.4997 256.5,30.5C 256.006,28.9745 255.339,27.6412 254.5,26.5C 254.371,24.7839 254.038,23.1172 253.5,21.5C 257.514,21.3345 261.514,21.5012 265.5,22C 264.263,22.2321 263.263,22.7321 262.5,23.5C 259.393,25.1982 257.726,27.8649 257.5,31.5C 246.52,32.4988 235.52,32.8321 224.5,32.5C 215.833,32.5 207.167,32.5 198.5,32.5C 194.5,32.5 190.5,32.5 186.5,32.5C 186.784,30.5853 186.451,28.9187 185.5,27.5C 185.167,26.1667 184.833,24.8333 184.5,23.5C 184.328,22.5084 184.662,21.8417 185.5,21.5 Z"/></g>
<g><path style="opacity:1" fill="#d5c89f" d="M 169.5,27.5 C 170.484,29.5979 170.151,31.5979 168.5,33.5C 168.649,32.448 168.483,31.448 168,30.5C 167.107,31.7112 166.274,31.7112 165.5,30.5C 165.919,29.3279 166.585,28.3279 167.5,27.5C 168.649,29.9248 169.316,29.9248 169.5,27.5 Z"/></g>
<g><path style="opacity:1" fill="#d68327" d="M 153.5,28.5 C 155.06,30.1561 156.06,32.1561 156.5,34.5C 156.5,34.8333 156.5,35.1667 156.5,35.5C 156.5,36.5 156.5,37.5 156.5,38.5C 154.025,35.7491 153.025,32.4158 153.5,28.5 Z"/></g>
<g><path style="opacity:1" fill="#c3b882" d="M 163.5,24.5 C 164.167,24.5 164.833,24.5 165.5,24.5C 164.699,26.0418 164.366,27.7085 164.5,29.5C 162.654,29.7778 161.32,29.1112 160.5,27.5C 161.274,26.2888 162.107,26.2888 163,27.5C 163.483,26.552 163.649,25.552 163.5,24.5 Z"/></g>
<g><path style="opacity:1" fill="#950f0f" d="M 187.5,26.5 C 209.833,26.5 232.167,26.5 254.5,26.5C 255.339,27.6412 256.006,28.9745 256.5,30.5C 233.51,31.4997 210.51,31.8331 187.5,31.5C 187.5,29.8333 187.5,28.1667 187.5,26.5 Z"/></g>
<g><path style="opacity:1" fill="#1d3828" d="M 175.5,23.5 C 178.833,24.8333 182.167,26.1667 185.5,27.5C 186.451,28.9187 186.784,30.5853 186.5,32.5C 190.5,32.5 194.5,32.5 198.5,32.5C 198.307,35.3085 197.64,37.9752 196.5,40.5C 199.434,42.4043 202.434,44.4043 205.5,46.5C 201.131,49.0666 196.798,49.0666 192.5,46.5C 189.179,41.5138 185.179,37.1804 180.5,33.5C 179.062,33.7189 177.729,34.2189 176.5,35C 178.439,36.4321 179.772,38.2654 180.5,40.5C 177.456,42.0114 174.122,42.678 170.5,42.5C 170.5,41.5 170.5,40.5 170.5,39.5C 170.5,39.1667 170.5,38.8333 170.5,38.5C 171.117,38.3893 171.617,38.056 172,37.5C 172.498,34.5184 172.665,31.5184 172.5,28.5C 172.833,28.5 173.167,28.5 173.5,28.5C 174.309,26.9724 174.976,25.3057 175.5,23.5 Z"/></g>
<g><path style="opacity:1" fill="#f7b831" d="M 172.5,19.5 C 173.376,19.3691 174.043,19.7025 174.5,20.5C 173.607,23.0841 173.274,25.7508 173.5,28.5C 173.167,28.5 172.833,28.5 172.5,28.5C 171.835,30.3691 171.169,32.3691 170.5,34.5C 169.583,35.1272 168.583,35.4606 167.5,35.5C 167.833,34.8333 168.167,34.1667 168.5,33.5C 170.151,31.5979 170.484,29.5979 169.5,27.5C 169.737,26.209 169.404,25.209 168.5,24.5C 169.46,22.5393 170.793,20.8726 172.5,19.5 Z"/></g>
<g><path style="opacity:1" fill="#bc7029" d="M 172.5,19.5 C 172.5,19.1667 172.5,18.8333 172.5,18.5C 173.5,18.5 174.5,18.5 175.5,18.5C 175.5,19.5 175.5,20.5 175.5,21.5C 175.5,22.1667 175.5,22.8333 175.5,23.5C 174.976,25.3057 174.309,26.9724 173.5,28.5C 173.274,25.7508 173.607,23.0841 174.5,20.5C 174.043,19.7025 173.376,19.3691 172.5,19.5 Z"/></g>
<g><path style="opacity:1" fill="#cc8430" d="M 151.5,20.5 C 153.369,22.6353 154.036,25.3019 153.5,28.5C 152.388,26.4006 151.721,24.0673 151.5,21.5C 151.5,21.1667 151.5,20.8333 151.5,20.5 Z"/></g>
<g><path style="opacity:1" fill="#be3c2d" d="M 157.5,18.5 C 162.5,18.5 167.5,18.5 172.5,18.5C 172.5,18.8333 172.5,19.1667 172.5,19.5C 170.793,20.8726 169.46,22.5393 168.5,24.5C 167.833,24.5 167.167,24.5 166.5,24.5C 166.703,22.6096 166.037,21.1096 164.5,20C 161.964,19.8138 159.631,19.3138 157.5,18.5 Z"/></g>
<g><path style="opacity:1" fill="#f7d049" d="M 157.5,18.5 C 159.631,19.3138 161.964,19.8138 164.5,20C 166.037,21.1096 166.703,22.6096 166.5,24.5C 166.167,24.5 165.833,24.5 165.5,24.5C 164.833,24.5 164.167,24.5 163.5,24.5C 161.661,23.2475 159.828,23.2475 158,24.5C 156.684,27.6883 156.184,31.0217 156.5,34.5C 156.06,32.1561 155.06,30.1561 153.5,28.5C 154.036,25.3019 153.369,22.6353 151.5,20.5C 152.918,18.6921 154.918,18.0254 157.5,18.5 Z"/></g>
<g><path style="opacity:1" fill="#17291f" d="M 176.5,17.5 C 212.935,17.2238 249.268,17.5571 285.5,18.5C 285.83,24.8682 285.496,31.2015 284.5,37.5C 283.272,39.1759 281.939,39.5092 280.5,38.5C 280.784,36.5853 280.451,34.9187 279.5,33.5C 277.731,27.7979 274.064,25.4646 268.5,26.5C 266.326,26.7497 264.659,27.7497 263.5,29.5C 259.59,33.9071 259.59,38.2405 263.5,42.5C 263.5,42.8333 263.5,43.1667 263.5,43.5C 260.808,46.5624 258.474,49.8957 256.5,53.5C 254.429,51.8149 252.429,50.1482 250.5,48.5C 251.973,47.9285 253.64,47.9285 255.5,48.5C 257.179,48.7148 258.179,48.0481 258.5,46.5C 258.5,45.5 258.5,44.5 258.5,43.5C 252.938,44.0532 247.605,44.3865 242.5,44.5C 242.565,44.9382 242.399,45.2716 242,45.5C 241.692,44.6919 241.192,44.0253 240.5,43.5C 238.997,44.0522 237.331,44.0522 235.5,43.5C 231.5,42.8333 227.5,42.1667 223.5,41.5C 234.833,41.5 246.167,41.5 257.5,41.5C 257.5,39.8333 257.5,38.1667 257.5,36.5C 245.833,36.5 234.167,36.5 222.5,36.5C 222.733,34.9382 223.4,33.6049 224.5,32.5C 235.52,32.8321 246.52,32.4988 257.5,31.5C 257.726,27.8649 259.393,25.1982 262.5,23.5C 264.042,24.3007 265.708,24.634 267.5,24.5C 267.167,22.5 266.833,20.5 266.5,18.5C 256.06,18.0984 245.727,18.7651 235.5,20.5C 235.389,19.8826 235.056,19.3826 234.5,19C 228.667,18.8333 222.833,18.6667 217,18.5C 210.793,18.5042 204.96,19.1709 199.5,20.5C 194.167,20.5 188.833,20.5 183.5,20.5C 183.263,21.791 183.596,22.791 184.5,23.5C 184.833,24.8333 185.167,26.1667 185.5,27.5C 182.167,26.1667 178.833,24.8333 175.5,23.5C 175.5,22.8333 175.5,22.1667 175.5,21.5C 176.434,20.4324 176.768,19.099 176.5,17.5 Z"/></g>
<g><path style="opacity:1" fill="#914c35" d="M 268.5,26.5 C 273.273,26.8784 276.607,29.2118 278.5,33.5C 278.672,34.4916 278.338,35.1583 277.5,35.5C 276.564,34.0256 275.23,33.0256 273.5,32.5C 272.791,31.596 271.791,31.2627 270.5,31.5C 270.719,30.325 270.386,29.325 269.5,28.5C 268.355,29.7757 268.355,31.109 269.5,32.5C 268.388,33.2652 267.721,34.2652 267.5,35.5C 266.244,35.5386 265.244,35.0386 264.5,34C 265.634,32.984 265.301,32.3173 263.5,32C 266.113,30.9288 266.113,30.0955 263.5,29.5C 264.659,27.7497 266.326,26.7497 268.5,26.5 Z"/></g>
<g><path style="opacity:1" fill="#b9a59f" d="M 268.5,26.5 C 274.064,25.4646 277.731,27.7979 279.5,33.5C 279.167,33.5 278.833,33.5 278.5,33.5C 276.607,29.2118 273.273,26.8784 268.5,26.5 Z"/></g>
<g><path style="opacity:1" fill="#be3633" d="M 185.5,21.5 C 208.167,21.5 230.833,21.5 253.5,21.5C 254.038,23.1172 254.371,24.7839 254.5,26.5C 232.167,26.5 209.833,26.5 187.5,26.5C 186.463,25.0697 185.796,23.403 185.5,21.5 Z"/></g>
<g><path style="opacity:1" fill="#2a372a" d="M 262.5,23.5 C 263.263,22.7321 264.263,22.2321 265.5,22C 261.514,21.5012 257.514,21.3345 253.5,21.5C 230.833,21.5 208.167,21.5 185.5,21.5C 184.662,21.8417 184.328,22.5084 184.5,23.5C 183.596,22.791 183.263,21.791 183.5,20.5C 188.833,20.5 194.167,20.5 199.5,20.5C 211.5,20.5 223.5,20.5 235.5,20.5C 245.727,18.7651 256.06,18.0984 266.5,18.5C 266.833,20.5 267.167,22.5 267.5,24.5C 265.708,24.634 264.042,24.3007 262.5,23.5 Z"/></g>
<g><path style="opacity:1" fill="#193d2b" d="M 235.5,20.5 C 223.5,20.5 211.5,20.5 199.5,20.5C 204.96,19.1709 210.793,18.5042 217,18.5C 222.833,18.6667 228.667,18.8333 234.5,19C 235.056,19.3826 235.389,19.8826 235.5,20.5 Z"/></g>
<g><path style="opacity:1" fill="#193025" d="M 61.5,20.5 C 80.8362,20.6666 100.17,20.5 119.5,20C 118.263,19.7679 117.263,19.2679 116.5,18.5C 127.833,18.5 139.167,18.5 150.5,18.5C 150.263,19.791 150.596,20.791 151.5,21.5C 151.721,24.0673 152.388,26.4006 153.5,28.5C 153.025,32.4158 154.025,35.7491 156.5,38.5C 156.5,38.8333 156.5,39.1667 156.5,39.5C 161.126,42.1591 165.792,42.1591 170.5,39.5C 170.5,40.5 170.5,41.5 170.5,42.5C 174.122,42.678 177.456,42.0114 180.5,40.5C 183.918,44.8525 187.251,49.3525 190.5,54C 191.793,54.49 193.127,54.6567 194.5,54.5C 195.228,57.0795 195.728,59.7462 196,62.5C 196.186,60.0995 196.686,57.7662 197.5,55.5C 198.826,61.5861 198.493,67.5861 196.5,73.5C 195.676,70.2152 195.176,66.8818 195,63.5C 194.26,61.6813 193.093,60.3479 191.5,59.5C 187.65,58.3696 184.317,56.3696 181.5,53.5C 177.344,56.9115 172.677,59.2448 167.5,60.5C 164.118,58.2337 160.452,57.9004 156.5,59.5C 156.737,58.209 156.404,57.209 155.5,56.5C 156.297,54.2491 156.297,51.7491 155.5,49C 151.914,46.4668 149.914,47.3001 149.5,51.5C 142.935,51.2543 136.768,49.5876 131,46.5C 129.187,46.8266 127.52,47.4933 126,48.5C 124.274,47.3381 122.774,47.6715 121.5,49.5C 120.518,48.8592 119.518,48.1925 118.5,47.5C 116.415,49.6402 116.415,51.4736 118.5,53C 116.513,55.1398 115.18,57.6398 114.5,60.5C 113.033,59.3047 111.533,59.3047 110,60.5C 108.72,60.3865 107.887,59.7199 107.5,58.5C 107.98,56.0514 108.98,53.8847 110.5,52C 109.5,51 108.5,50 107.5,49C 106.517,48.4092 105.85,48.7425 105.5,50C 105.323,53.8065 103.656,56.6399 100.5,58.5C 99.8333,57.5 99.1667,56.5 98.5,55.5C 97.109,56.6446 95.7757,56.6446 94.5,55.5C 93.6701,52.9836 92.6701,50.6502 91.5,48.5C 91.7852,46.712 91.4519,45.0453 90.5,43.5C 89.8165,43.8627 89.1499,44.1961 88.5,44.5C 87.8333,44.5 87.5,44.1667 87.5,43.5C 87.5,42.8333 87.5,42.1667 87.5,41.5C 98.1667,41.5 108.833,41.5 119.5,41.5C 119.5,39.8333 119.5,38.1667 119.5,36.5C 102.658,36.1702 85.9916,36.5035 69.5,37.5C 68.7611,37.631 68.0944,37.4643 67.5,37C 70.4685,34.8223 70.1351,33.6556 66.5,33.5C 65.1224,32.4549 64.1224,31.1216 63.5,29.5C 60.2979,25.4417 56.6312,24.775 52.5,27.5C 47.1781,29.1305 45.1781,32.7972 46.5,38.5C 46.6287,40.2161 46.962,41.8828 47.5,43.5C 45.8035,41.6236 43.8035,40.1236 41.5,39C 43.7458,37.7432 45.0791,35.9099 45.5,33.5C 44.1779,33.33 43.0113,33.6634 42,34.5C 41.5006,29.1771 41.334,23.8437 41.5,18.5C 48.0955,20.4881 54.7621,21.1548 61.5,20.5 Z"/></g>
<g><path style="opacity:1" fill="#afa687" d="M 63.5,29.5 C 64.1224,31.1216 65.1224,32.4549 66.5,33.5C 66.9746,36.0821 66.3079,38.0821 64.5,39.5C 62.1591,36.5158 60.4924,36.8492 59.5,40.5C 59.5,39.5 59.5,38.5 59.5,37.5C 59.5,36.8333 59.5,36.1667 59.5,35.5C 59.8333,35.5 60.1667,35.5 60.5,35.5C 61.914,33.9561 62.2474,32.2894 61.5,30.5C 61.9569,29.7025 62.6236,29.3691 63.5,29.5 Z"/></g>
<g><path style="opacity:1" fill="#5c3e30" d="M 87.5,41.5 C 81.5,41.5 75.5,41.5 69.5,41.5C 69.5,40.1667 69.5,38.8333 69.5,37.5C 85.9916,36.5035 102.658,36.1702 119.5,36.5C 119.5,38.1667 119.5,39.8333 119.5,41.5C 108.833,41.5 98.1667,41.5 87.5,41.5 Z"/></g>
<g><path style="opacity:1" fill="#320e07" d="M 59.5,35.5 C 59.5,36.1667 59.5,36.8333 59.5,37.5C 57.6102,35.8053 55.2769,35.4719 52.5,36.5C 52.67,37.8221 52.3366,38.9887 51.5,40C 49.8425,40.7252 48.8425,40.2252 48.5,38.5C 48.427,36.9731 49.0937,35.9731 50.5,35.5C 53.5436,32.8483 56.5436,32.8483 59.5,35.5 Z"/></g>
<g><path style="opacity:1" fill="#2f2b21" d="M 122.5,32.5 C 128.167,32.5 133.833,32.5 139.5,32.5C 135.702,33.4834 131.702,33.8168 127.5,33.5C 127.5,34.8333 127.5,36.1667 127.5,37.5C 128.5,37.5 129.5,37.5 130.5,37.5C 130.5,38.5 130.5,39.5 130.5,40.5C 127.568,40.4544 124.902,40.9544 122.5,42C 120.078,39.888 120.078,37.888 122.5,36C 121.316,34.8545 121.316,33.6879 122.5,32.5 Z"/></g>
<g><path style="opacity:1" fill="#705718" d="M 50.5,30.5 C 50.5,32.1667 50.5,33.8333 50.5,35.5C 49.0937,35.9731 48.427,36.9731 48.5,38.5C 48.1667,38.5 47.8333,38.5 47.5,38.5C 47.0181,35.1694 48.0181,32.5027 50.5,30.5 Z"/></g>
<g><path style="opacity:1" fill="#693b2a" d="M 72.5,21.5 C 72.5,22.1667 72.5,22.8333 72.5,23.5C 72.5,24.1667 72.5,24.8333 72.5,25.5C 71.2616,27.2143 70.595,29.2143 70.5,31.5C 93.1765,31.833 115.843,31.4997 138.5,30.5C 139.246,29.2638 139.579,27.9305 139.5,26.5C 140.345,25.3285 141.011,23.9952 141.5,22.5C 141.5,22.1667 141.5,21.8333 141.5,21.5C 142.124,21.9169 142.457,22.5836 142.5,23.5C 141.663,26.6768 140.663,29.6768 139.5,32.5C 133.833,32.5 128.167,32.5 122.5,32.5C 104.821,32.8329 87.1541,32.4995 69.5,31.5C 68.7074,26.2081 65.7074,23.0414 60.5,22C 64.4862,21.5012 68.4862,21.3345 72.5,21.5 Z"/></g>
<g><path style="opacity:1" fill="#1e1605" d="M 60.5,35.5 C 60.1667,35.5 59.8333,35.5 59.5,35.5C 56.5436,32.8483 53.5436,32.8483 50.5,35.5C 50.5,33.8333 50.5,32.1667 50.5,30.5C 53.1411,29.7369 55.8078,29.5702 58.5,30C 60.1554,31.4443 60.822,33.2776 60.5,35.5 Z"/></g>
<g><path style="opacity:1" fill="#7b6529" d="M 63.5,29.5 C 62.6236,29.3691 61.9569,29.7025 61.5,30.5C 62.2474,32.2894 61.914,33.9561 60.5,35.5C 60.822,33.2776 60.1554,31.4443 58.5,30C 55.8078,29.5702 53.1411,29.7369 50.5,30.5C 51.1667,29.5 51.8333,28.5 52.5,27.5C 56.6312,24.775 60.2979,25.4417 63.5,29.5 Z"/></g>
<g><path style="opacity:1" fill="#aba69b" d="M 52.5,27.5 C 51.8333,28.5 51.1667,29.5 50.5,30.5C 48.0181,32.5027 47.0181,35.1694 47.5,38.5C 47.1667,38.5 46.8333,38.5 46.5,38.5C 45.1781,32.7972 47.1781,29.1305 52.5,27.5 Z"/></g>
<g><path style="opacity:1" fill="#96100f" d="M 72.5,25.5 C 94.6604,26.4974 116.994,26.8308 139.5,26.5C 139.579,27.9305 139.246,29.2638 138.5,30.5C 115.843,31.4997 93.1765,31.833 70.5,31.5C 70.595,29.2143 71.2616,27.2143 72.5,25.5 Z"/></g>
<g><path style="opacity:1" fill="#c43333" d="M 141.5,22.5 C 141.011,23.9952 140.345,25.3285 139.5,26.5C 116.994,26.8308 94.6604,26.4974 72.5,25.5C 72.5,24.8333 72.5,24.1667 72.5,23.5C 95.425,22.5109 118.425,22.1776 141.5,22.5 Z"/></g>
<g><path style="opacity:1" fill="#9b4133" d="M 72.5,21.5 C 95.5,21.5 118.5,21.5 141.5,21.5C 141.5,21.8333 141.5,22.1667 141.5,22.5C 118.425,22.1776 95.425,22.5109 72.5,23.5C 72.5,22.8333 72.5,22.1667 72.5,21.5 Z"/></g>
<g><path style="opacity:1" fill="#183828" d="M 116.5,18.5 C 117.263,19.2679 118.263,19.7679 119.5,20C 100.17,20.5 80.8362,20.6666 61.5,20.5C 79.4695,18.5131 97.8029,17.8465 116.5,18.5 Z"/></g>
<g><path style="opacity:1" fill="#702410" d="M 150.5,17.5 C 159.167,17.5 167.833,17.5 176.5,17.5C 176.768,19.099 176.434,20.4324 175.5,21.5C 175.5,20.5 175.5,19.5 175.5,18.5C 174.5,18.5 173.5,18.5 172.5,18.5C 167.5,18.5 162.5,18.5 157.5,18.5C 154.918,18.0254 152.918,18.6921 151.5,20.5C 151.5,20.8333 151.5,21.1667 151.5,21.5C 150.596,20.791 150.263,19.791 150.5,18.5C 150.5,18.1667 150.5,17.8333 150.5,17.5 Z"/></g>
<g><path style="opacity:0.471" fill="#929394" d="M 315.5,179.5 C 316.5,179.5 317.5,179.5 318.5,179.5C 318.665,182.518 318.498,185.518 318,188.5C 317.535,189.931 316.701,191.097 315.5,192C 309.419,192.209 303.419,192.709 297.5,193.5C 287.013,192.506 276.346,192.172 265.5,192.5C 198.5,192.5 131.5,192.5 64.5,192.5C 53.1667,192.5 41.8333,192.5 30.5,192.5C 26.5,192.5 22.5,192.5 18.5,192.5C 18.5,192.167 18.5,191.833 18.5,191.5C 116.501,191.667 214.501,191.5 312.5,191C 315.154,187.673 316.154,183.839 315.5,179.5 Z"/></g>
<g><path style="opacity:0.057" fill="#2d2d2d" d="M 30.5,192.5 C 41.8333,192.5 53.1667,192.5 64.5,192.5C 53.6989,194.164 42.6989,194.664 31.5,194C 30.944,193.617 30.6107,193.117 30.5,192.5 Z"/></g>
<g><path style="opacity:0.063" fill="#2d2d2d" d="M 265.5,192.5 C 276.346,192.172 287.013,192.506 297.5,193.5C 286.705,194.713 276.038,194.38 265.5,192.5 Z"/></g>
</svg>
