<?xml version="1.0" encoding="UTF-8"?>
<!DOCTYPE svg PUBLIC "-//W3C//DTD SVG 1.1//EN" "http://www.w3.org/Graphics/SVG/1.1/DTD/svg11.dtd">
<svg xmlns="http://www.w3.org/2000/svg" version="1.1" width="36px" height="36px" style="shape-rendering:geometricPrecision; text-rendering:geometricPrecision; image-rendering:optimizeQuality; fill-rule:evenodd; clip-rule:evenodd" xmlns:xlink="http://www.w3.org/1999/xlink">
<g><path style="opacity:0.984" fill="#f754d0" d="M 1.5,-0.5 C 11.8333,-0.5 22.1667,-0.5 32.5,-0.5C 33.2905,0.40128 34.2905,1.06795 35.5,1.5C 35.5,11.8333 35.5,22.1667 35.5,32.5C 34.5987,33.2905 33.9321,34.2905 33.5,35.5C 23.1667,35.5 12.8333,35.5 2.5,35.5C 1.70951,34.5987 0.709515,33.9321 -0.5,33.5C -0.5,23.1667 -0.5,12.8333 -0.5,2.5C 0.40128,1.70951 1.06795,0.709515 1.5,-0.5 Z"/></g>
<g><path style="opacity:0.997" fill="#a5869d" d="M 16.5,11.5 C 19.5949,12.3789 21.9282,14.2122 23.5,17C 23.3333,17.5 23.1667,18 23,18.5C 21.6667,17.1667 20.3333,15.8333 19,14.5C 18,27.8333 17,27.8333 16,14.5C 14.6667,15.8333 13.3333,17.1667 12,18.5C 11.8333,18.1667 11.6667,17.8333 11.5,17.5C 13.1897,15.4807 14.8564,13.4807 16.5,11.5 Z"/></g>
</svg>
