<?xml version="1.0" encoding="UTF-8"?>
<!DOCTYPE svg PUBLIC "-//W3C//DTD SVG 1.1//EN" "http://www.w3.org/Graphics/SVG/1.1/DTD/svg11.dtd">
<svg xmlns="http://www.w3.org/2000/svg" version="1.1" width="326px" height="217px" style="shape-rendering:geometricPrecision; text-rendering:geometricPrecision; image-rendering:optimizeQuality; fill-rule:evenodd; clip-rule:evenodd" xmlns:xlink="http://www.w3.org/1999/xlink">
<g><path style="opacity:0.4" fill="#7e7e7e" d="M 46.5,9.5 C 127.167,10.1667 207.833,10.8333 288.5,11.5C 207.499,11.3333 126.499,11.5 45.5,12C 44.9558,12.7172 44.2891,13.2172 43.5,13.5C 43.5,12.8333 43.5,12.1667 43.5,11.5C 44.2905,10.5987 45.2905,9.93205 46.5,9.5 Z"/></g>
<g><path style="opacity:1" fill="#111111" d="M 288.5,11.5 C 290.883,12.8851 292.55,14.8851 293.5,17.5C 293.833,70.8375 293.5,124.171 292.5,177.5C 291.833,132.002 291.167,86.6685 290.5,41.5C 290.5,35.5 290.5,29.5 290.5,23.5C 208.5,23.5 126.5,23.5 44.5,23.5C 44.5,29.5 44.5,35.5 44.5,41.5C 43.8333,86.6685 43.1667,132.002 42.5,177.5C 41.5001,123.837 41.1667,70.1708 41.5,16.5C 41.427,14.9731 42.0937,13.9731 43.5,13.5C 44.2891,13.2172 44.9558,12.7172 45.5,12C 126.499,11.5 207.499,11.3333 288.5,11.5 Z"/></g>
<g><path style="opacity:0.031" fill="#000000" d="M 294.5,13.5 C 299.319,16.1123 302.486,20.1123 304,25.5C 304.5,78.1656 304.667,130.832 304.5,183.5C 306.5,183.5 308.5,183.5 310.5,183.5C 310.5,183.833 310.5,184.167 310.5,184.5C 305.5,184.5 300.5,184.5 295.5,184.5C 295.825,127.458 295.492,70.4582 294.5,13.5 Z"/></g>
<g><path style="opacity:0.029" fill="#060606" d="M 39.5,14.5 C 39.4746,71.0851 39.4746,127.752 39.5,184.5C 36.0613,184.747 32.728,184.414 29.5,183.5C 29.3333,131.832 29.5,80.1656 30,28.5C 30.9623,22.2148 34.129,17.5481 39.5,14.5 Z"/></g>
<g><path style="opacity:1" fill="#010101" d="M 45.5,15.5 C 81.1667,15.5 116.833,15.5 152.5,15.5C 152.286,17.1439 152.62,18.6439 153.5,20C 162.833,20.6667 172.167,20.6667 181.5,20C 182.38,18.6439 182.714,17.1439 182.5,15.5C 217.835,15.3333 253.168,15.5 288.5,16C 290.229,17.7889 290.896,19.9556 290.5,22.5C 208.5,22.5 126.5,22.5 44.5,22.5C 44.298,20.0504 44.6314,17.717 45.5,15.5 Z"/></g>
<g><path style="opacity:0.486" fill="#b6b7b8" d="M 46.5,9.5 C 127.501,9.33334 208.501,9.5 289.5,10C 291.323,10.9973 292.99,12.1639 294.5,13.5C 295.492,70.4582 295.825,127.458 295.5,184.5C 295.167,184.5 294.833,184.5 294.5,184.5C 294.832,128.664 294.499,72.9975 293.5,17.5C 292.55,14.8851 290.883,12.8851 288.5,11.5C 207.833,10.8333 127.167,10.1667 46.5,9.5 Z"/></g>
<g><path style="opacity:0.776" fill="#a2a3a3" d="M 43.5,11.5 C 43.5,12.1667 43.5,12.8333 43.5,13.5C 42.0937,13.9731 41.427,14.9731 41.5,16.5C 40.501,72.3309 40.1677,128.331 40.5,184.5C 40.1667,184.5 39.8333,184.5 39.5,184.5C 39.4746,127.752 39.4746,71.0851 39.5,14.5C 40.2623,12.7376 41.5956,11.7376 43.5,11.5 Z"/></g>
<g><path style="opacity:1" fill="#292827" d="M 41.5,16.5 C 41.1667,70.1708 41.5001,123.837 42.5,177.5C 43.1667,132.002 43.8333,86.6685 44.5,41.5C 44.5,41.8333 44.5,42.1667 44.5,42.5C 44.5,65.5 44.5,88.5 44.5,111.5C 44.5,128.5 44.5,145.5 44.5,162.5C 126.332,163.499 208.332,163.833 290.5,163.5C 290.5,137.167 290.5,110.833 290.5,84.5C 290.5,70.5 290.5,56.5 290.5,42.5C 290.5,42.1667 290.5,41.8333 290.5,41.5C 291.167,86.6685 291.833,132.002 292.5,177.5C 293.5,124.171 293.833,70.8375 293.5,17.5C 294.499,72.9975 294.832,128.664 294.5,184.5C 294.167,184.5 293.833,184.5 293.5,184.5C 292.048,183.698 290.382,183.198 288.5,183C 207.833,182.333 127.167,182.333 46.5,183C 44.6183,183.198 42.9516,183.698 41.5,184.5C 41.1667,184.5 40.8333,184.5 40.5,184.5C 40.1677,128.331 40.501,72.3309 41.5,16.5 Z"/></g>
<g><path style="opacity:1" fill="#b6cfbf" d="M 290.5,84.5 C 290.5,110.833 290.5,137.167 290.5,163.5C 208.332,163.833 126.332,163.499 44.5,162.5C 79.5016,162.667 114.502,162.5 149.5,162C 148.663,160.989 148.33,159.822 148.5,158.5C 145.401,158.908 143.067,157.741 141.5,155C 136.384,152.281 130.884,150.781 125,150.5C 115.68,150.737 106.18,150.737 96.5,150.5C 95.8333,150.333 95.1667,150.167 94.5,150C 94.5,149 94.5,148 94.5,147C 93.552,146.517 92.552,146.351 91.5,146.5C 91.6495,145.448 91.4828,144.448 91,143.5C 90.3333,142.167 89.6667,142.167 89,143.5C 87.5768,140.408 85.2435,138.408 82,137.5C 80.3335,138.34 80.1669,137.84 81.5,136C 79.873,136.43 78.373,136.596 77,136.5C 75.1825,134.355 73.6825,134.355 72.5,136.5C 70.1178,134.929 67.4512,134.096 64.5,134C 64.8333,133.667 65.1667,133.333 65.5,133C 73.684,132.721 81.8506,132.221 90,131.5C 100.846,132.011 111.846,132.677 123,133.5C 142.479,133.936 162.146,133.269 182,131.5C 182.333,131.833 182.667,132.167 183,132.5C 187.899,130.5 193.066,129.167 198.5,128.5C 200.297,126.869 201.464,124.869 202,122.5C 230.756,123.369 259.923,124.036 289.5,124.5C 289.5,122.5 289.5,120.5 289.5,118.5C 277.287,117.657 265.287,115.657 253.5,112.5C 253.737,111.209 253.404,110.209 252.5,109.5C 252.56,108.957 252.893,108.624 253.5,108.5C 256.996,110.243 260.496,111.91 264,113.5C 267.894,111.163 272.06,110.829 276.5,112.5C 280.831,111.751 285.164,111.084 289.5,110.5C 289.174,101.651 289.507,92.9839 290.5,84.5 Z"/></g>
<g><path style="opacity:1" fill="#bfd6c6" d="M 237.5,81.5 C 239.961,82.531 242.627,83.1977 245.5,83.5C 245.692,88.8704 244.692,93.8704 242.5,98.5C 239.329,103.15 240.662,105.483 246.5,105.5C 247.167,105.167 247.833,104.833 248.5,104.5C 248.5,105.167 248.833,105.5 249.5,105.5C 250.026,107.23 251.026,108.564 252.5,109.5C 253.404,110.209 253.737,111.209 253.5,112.5C 265.287,115.657 277.287,117.657 289.5,118.5C 289.5,120.5 289.5,122.5 289.5,124.5C 259.923,124.036 230.756,123.369 202,122.5C 201.464,124.869 200.297,126.869 198.5,128.5C 193.066,129.167 187.899,130.5 183,132.5C 182.667,132.167 182.333,131.833 182,131.5C 162.146,133.269 142.479,133.936 123,133.5C 111.846,132.677 100.846,132.011 90,131.5C 81.8506,132.221 73.684,132.721 65.5,133C 65.1667,133.333 64.8333,133.667 64.5,134C 67.4512,134.096 70.1178,134.929 72.5,136.5C 73.6825,134.355 75.1825,134.355 77,136.5C 78.373,136.596 79.873,136.43 81.5,136C 80.1669,137.84 80.3335,138.34 82,137.5C 85.2435,138.408 87.5768,140.408 89,143.5C 89.6667,142.167 90.3333,142.167 91,143.5C 91.4828,144.448 91.6495,145.448 91.5,146.5C 92.552,146.351 93.552,146.517 94.5,147C 94.5,148 94.5,149 94.5,150C 95.1667,150.167 95.8333,150.333 96.5,150.5C 106.18,150.737 115.68,150.737 125,150.5C 130.884,150.781 136.384,152.281 141.5,155C 143.067,157.741 145.401,158.908 148.5,158.5C 148.33,159.822 148.663,160.989 149.5,162C 114.502,162.5 79.5016,162.667 44.5,162.5C 44.5,145.5 44.5,128.5 44.5,111.5C 51.1703,113.115 58.0036,114.448 65,115.5C 66.7378,114.873 68.5711,114.54 70.5,114.5C 81.4815,115.521 92.4815,116.188 103.5,116.5C 129.122,117.208 154.788,118.208 180.5,119.5C 181.5,119.167 182.5,118.833 183.5,118.5C 180.215,118.302 178.548,116.635 178.5,113.5C 176.396,113.799 174.396,113.466 172.5,112.5C 172.833,112.167 173.167,111.833 173.5,111.5C 176.131,111.071 179.131,110.738 182.5,110.5C 180.223,109.579 177.89,108.913 175.5,108.5C 175.328,107.508 175.662,106.842 176.5,106.5C 178.415,106.784 180.081,106.451 181.5,105.5C 183.213,104.365 183.88,102.698 183.5,100.5C 183.833,100.5 184.167,100.5 184.5,100.5C 184.116,102.665 184.783,104.332 186.5,105.5C 186.595,103.785 186.928,102.119 187.5,100.5C 188.815,98.4008 190.482,98.0674 192.5,99.5C 192.201,101.604 192.534,103.604 193.5,105.5C 194.474,103.257 194.808,100.924 194.5,98.5C 195.167,100.833 195.833,103.167 196.5,105.5C 198.196,99.1503 199.863,99.1503 201.5,105.5C 202.452,103.955 202.785,102.288 202.5,100.5C 202.833,100.5 203.167,100.5 203.5,100.5C 203.116,102.665 203.783,104.332 205.5,105.5C 205.277,103.262 205.61,100.928 206.5,98.5C 207.485,94.6702 209.819,91.8369 213.5,90C 218.419,89.1985 223.252,89.3651 228,90.5C 228.667,86.5 229.333,86.5 230,90.5C 230.92,87.8987 231.587,85.2321 232,82.5C 233.699,81.5939 235.533,81.2606 237.5,81.5 Z"/></g>
<g><path style="opacity:1" fill="#cadfcf" d="M 155.5,42.5 C 162.2,42.17 168.866,42.5033 175.5,43.5C 174.194,44.9122 173.36,46.5789 173,48.5C 171.283,49.4552 169.616,50.4552 168,51.5C 167.504,53.0349 167.67,54.5349 168.5,56C 166.653,58.714 166.32,61.5473 167.5,64.5C 170.283,65.4629 172.95,66.6296 175.5,68C 171.954,69.1737 168.287,69.8404 164.5,70C 163.594,71.6995 163.261,73.5328 163.5,75.5C 170.934,74.0717 174.268,77.0717 173.5,84.5C 176.288,84.0769 178.288,85.0769 179.5,87.5C 177.955,88.4519 176.288,88.7852 174.5,88.5C 174.5,91.8333 174.5,95.1667 174.5,98.5C 170.51,97.8238 168.843,99.4905 169.5,103.5C 169.077,107.908 171.077,109.575 175.5,108.5C 177.89,108.913 180.223,109.579 182.5,110.5C 179.131,110.738 176.131,111.071 173.5,111.5C 173.167,111.833 172.833,112.167 172.5,112.5C 174.396,113.466 176.396,113.799 178.5,113.5C 178.548,116.635 180.215,118.302 183.5,118.5C 182.5,118.833 181.5,119.167 180.5,119.5C 154.788,118.208 129.122,117.208 103.5,116.5C 94.3497,114.717 85.0164,113.383 75.5,112.5C 75.1667,112.167 74.8333,111.833 74.5,111.5C 79.0769,107.322 84.4102,105.322 90.5,105.5C 90.5,103.5 90.5,101.5 90.5,99.5C 90.8333,99.5 91.1667,99.5 91.5,99.5C 91.5,101.5 91.5,103.5 91.5,105.5C 94.0613,106.767 96.728,106.767 99.5,105.5C 100.496,106.665 101.829,107.332 103.5,107.5C 106.214,107.115 109.214,106.782 112.5,106.5C 112.5,104.5 112.5,102.5 112.5,100.5C 113.451,101.919 113.784,103.585 113.5,105.5C 113.866,106.695 114.699,107.361 116,107.5C 118.669,106.984 121.169,106.317 123.5,105.5C 123.5,102.167 123.5,98.8333 123.5,95.5C 123.833,94.1667 124.167,94.1667 124.5,95.5C 124.5,98.8333 124.5,102.167 124.5,105.5C 126.5,106.833 128.5,106.833 130.5,105.5C 130.638,101.714 131.305,101.714 132.5,105.5C 133.348,106.625 134.348,106.625 135.5,105.5C 136.5,105.5 137.5,105.5 138.5,105.5C 139.167,105.5 139.833,105.5 140.5,105.5C 142.099,105.768 143.432,105.434 144.5,104.5C 145.167,104.5 145.833,104.5 146.5,104.5C 148.265,105.461 150.265,105.795 152.5,105.5C 152.5,103.5 152.5,101.5 152.5,99.5C 153.708,100.234 155.041,100.567 156.5,100.5C 156.232,102.099 156.566,103.432 157.5,104.5C 159.607,105.468 161.941,105.802 164.5,105.5C 164.859,103.234 164.192,101.401 162.5,100C 164.009,96.3307 162.676,94.8307 158.5,95.5C 154.821,95.2756 151.154,94.9422 147.5,94.5C 147.737,93.209 147.404,92.209 146.5,91.5C 147.261,83.7845 149.261,76.4512 152.5,69.5C 151.167,67.8333 149.833,66.1667 148.5,64.5C 150.045,63.5481 151.712,63.2148 153.5,63.5C 153.583,56.4249 154.249,49.4249 155.5,42.5 Z"/></g>
<g><path style="opacity:1" fill="#8dc690" d="M 208.5,98.5 C 211.238,97.9648 213.072,98.9648 214,101.5C 214.483,100.552 214.649,99.552 214.5,98.5C 220.885,97.2136 222.885,99.5469 220.5,105.5C 219.548,103.955 219.215,102.288 219.5,100.5C 218.5,100.5 217.5,100.5 216.5,100.5C 216.5,102.167 216.5,103.833 216.5,105.5C 213.753,105.813 211.086,105.48 208.5,104.5C 207.377,102.518 207.377,100.518 208.5,98.5 Z"/></g>
<g><path style="opacity:1" fill="#81c282" d="M 158.5,95.5 C 162.676,94.8307 164.009,96.3307 162.5,100C 164.192,101.401 164.859,103.234 164.5,105.5C 161.941,105.802 159.607,105.468 157.5,104.5C 157.963,101.518 158.296,98.5176 158.5,95.5 Z"/></g>
<g><path style="opacity:1" fill="#7ebf7e" d="M 174.5,98.5 C 176.369,100.635 177.036,103.302 176.5,106.5C 175.662,106.842 175.328,107.508 175.5,108.5C 171.077,109.575 169.077,107.908 169.5,103.5C 168.843,99.4905 170.51,97.8238 174.5,98.5 Z"/></g>
<g><path style="opacity:1" fill="#82c184" d="M 229.5,95.5 C 230.777,96.6936 231.444,98.3603 231.5,100.5C 231.167,102.167 230.833,103.833 230.5,105.5C 229.513,102.232 229.18,98.8984 229.5,95.5 Z"/></g>
<g><path style="opacity:1" fill="#79be7b" d="M 223.5,98.5 C 224.833,98.5 226.167,98.5 227.5,98.5C 227.357,100.262 227.691,101.929 228.5,103.5C 227.034,105.657 225.2,105.99 223,104.5C 222.322,102.402 222.489,100.402 223.5,98.5 Z"/></g>
<g><path style="opacity:1" fill="#84c385" d="M 152.5,99.5 C 152.5,101.5 152.5,103.5 152.5,105.5C 150.265,105.795 148.265,105.461 146.5,104.5C 146.5,102.5 146.5,100.5 146.5,98.5C 148.621,98.3253 150.621,98.6586 152.5,99.5 Z"/></g>
<g><path style="opacity:1" fill="#7ebf7e" d="M 144.5,104.5 C 143.432,105.434 142.099,105.768 140.5,105.5C 139.232,103.33 139.232,101.163 140.5,99C 144.865,98.5539 146.198,100.387 144.5,104.5 Z"/></g>
<g><path style="opacity:1" fill="#77bd79" d="M 242.5,98.5 C 243.822,98.33 244.989,98.6634 246,99.5C 246.495,101.473 246.662,103.473 246.5,105.5C 240.662,105.483 239.329,103.15 242.5,98.5 Z"/></g>
<g><path style="opacity:1" fill="#75bd76" d="M 234.5,95.5 C 236.167,95.5 237.833,95.5 239.5,95.5C 239.82,98.8984 239.487,102.232 238.5,105.5C 237.682,102.893 237.182,100.226 237,97.5C 236.229,100.19 235.396,102.856 234.5,105.5C 233.249,102.126 233.249,98.7926 234.5,95.5 Z"/></g>
<g><path style="opacity:1" fill="#74bb75" d="M 202.5,100.5 C 202.785,102.288 202.452,103.955 201.5,105.5C 199.863,99.1503 198.196,99.1503 196.5,105.5C 196.5,103.167 196.5,100.833 196.5,98.5C 199.01,98.0535 201.01,98.7202 202.5,100.5 Z"/></g>
<g><path style="opacity:1" fill="#6bb86b" d="M 206.5,98.5 C 205.61,100.928 205.277,103.262 205.5,105.5C 203.783,104.332 203.116,102.665 203.5,100.5C 203.504,96.7498 204.504,96.0831 206.5,98.5 Z"/></g>
<g><path style="opacity:1" fill="#bfd5c2" d="M 290.5,42.5 C 290.5,56.5 290.5,70.5 290.5,84.5C 289.507,92.9839 289.174,101.651 289.5,110.5C 285.164,111.084 280.831,111.751 276.5,112.5C 272.06,110.829 267.894,111.163 264,113.5C 260.496,111.91 256.996,110.243 253.5,108.5C 252.893,108.624 252.56,108.957 252.5,109.5C 251.026,108.564 250.026,107.23 249.5,105.5C 251.167,105.5 252.833,105.5 254.5,105.5C 254.82,102.102 254.487,98.7683 253.5,95.5C 252.614,96.325 252.281,97.325 252.5,98.5C 248.143,98.5559 246.809,100.556 248.5,104.5C 247.833,104.833 247.167,105.167 246.5,105.5C 246.662,103.473 246.495,101.473 246,99.5C 244.989,98.6634 243.822,98.33 242.5,98.5C 244.692,93.8704 245.692,88.8704 245.5,83.5C 242.627,83.1977 239.961,82.531 237.5,81.5C 239.167,81.5 240.833,81.5 242.5,81.5C 243.038,68.3503 244.705,55.3503 247.5,42.5C 261.833,42.5 276.167,42.5 290.5,42.5 Z"/></g>
<g><path style="opacity:1" fill="#83c285" d="M 249.5,105.5 C 248.833,105.5 248.5,105.167 248.5,104.5C 246.809,100.556 248.143,98.5559 252.5,98.5C 252.281,97.325 252.614,96.325 253.5,95.5C 254.487,98.7683 254.82,102.102 254.5,105.5C 252.833,105.5 251.167,105.5 249.5,105.5 Z"/></g>
<g><path style="opacity:1" fill="#c0d8c8" d="M 44.5,42.5 C 63.5,42.5 82.5,42.5 101.5,42.5C 100.424,49.1744 100.257,55.841 101,62.5C 100.586,62.9574 100.086,63.2907 99.5,63.5C 98.8133,61.7256 97.9799,60.0589 97,58.5C 96.1859,60.9018 96.3526,63.2351 97.5,65.5C 98.086,65.2907 98.586,64.9574 99,64.5C 100.556,65.5196 101.722,66.853 102.5,68.5C 101.201,71.012 100.201,73.6787 99.5,76.5C 99.7093,77.086 100.043,77.586 100.5,78C 97.1407,80.9024 96.1407,84.4024 97.5,88.5C 113.591,90.5152 129.591,93.1819 145.5,96.5C 146.452,94.9547 146.785,93.288 146.5,91.5C 147.404,92.209 147.737,93.209 147.5,94.5C 151.154,94.9422 154.821,95.2756 158.5,95.5C 158.296,98.5176 157.963,101.518 157.5,104.5C 156.566,103.432 156.232,102.099 156.5,100.5C 155.041,100.567 153.708,100.234 152.5,99.5C 150.621,98.6586 148.621,98.3253 146.5,98.5C 146.5,100.5 146.5,102.5 146.5,104.5C 145.833,104.5 145.167,104.5 144.5,104.5C 146.198,100.387 144.865,98.5539 140.5,99C 139.232,101.163 139.232,103.33 140.5,105.5C 139.833,105.5 139.167,105.5 138.5,105.5C 137.377,103.482 137.377,101.482 138.5,99.5C 138.081,98.3279 137.415,97.3279 136.5,96.5C 135.516,99.4281 135.183,102.428 135.5,105.5C 134.348,106.625 133.348,106.625 132.5,105.5C 132.913,103.605 133.247,101.605 133.5,99.5C 132.726,98.2888 131.893,98.2888 131,99.5C 129.654,94.376 128.821,94.7094 128.5,100.5C 128.556,102.64 129.223,104.306 130.5,105.5C 128.5,106.833 126.5,106.833 124.5,105.5C 125.777,104.306 126.444,102.64 126.5,100.5C 126.444,98.3603 125.777,96.6936 124.5,95.5C 124.167,94.1667 123.833,94.1667 123.5,95.5C 122.223,96.6936 121.556,98.3603 121.5,100.5C 121.556,102.64 122.223,104.306 123.5,105.5C 121.169,106.317 118.669,106.984 116,107.5C 114.699,107.361 113.866,106.695 113.5,105.5C 114.999,104.322 115.999,102.655 116.5,100.5C 117.167,102.167 117.833,103.833 118.5,105.5C 119.474,103.257 119.808,100.924 119.5,98.5C 116.167,98.5 112.833,98.5 109.5,98.5C 109.192,100.924 109.526,103.257 110.5,105.5C 111.17,103.709 111.837,102.042 112.5,100.5C 112.5,102.5 112.5,104.5 112.5,106.5C 109.214,106.782 106.214,107.115 103.5,107.5C 101.829,107.332 100.496,106.665 99.5,105.5C 96.728,106.767 94.0613,106.767 91.5,105.5C 93.256,104.448 93.9227,102.781 93.5,100.5C 94.5,100.5 95.5,100.5 96.5,100.5C 96.3398,102.199 96.5065,103.866 97,105.5C 97.4966,103.19 97.6633,100.857 97.5,98.5C 95.2646,98.2053 93.2646,98.5386 91.5,99.5C 91.1667,99.5 90.8333,99.5 90.5,99.5C 90.762,98.0222 90.4287,96.6888 89.5,95.5C 89.1667,97.1667 88.8333,98.8333 88.5,100.5C 88.5561,102.64 89.2227,104.306 90.5,105.5C 84.4102,105.322 79.0769,107.322 74.5,111.5C 74.8333,111.833 75.1667,112.167 75.5,112.5C 85.0164,113.383 94.3497,114.717 103.5,116.5C 92.4815,116.188 81.4815,115.521 70.5,114.5C 68.5711,114.54 66.7378,114.873 65,115.5C 58.0036,114.448 51.1703,113.115 44.5,111.5C 44.5,88.5 44.5,65.5 44.5,42.5 Z"/></g>
<g><path style="opacity:1" fill="#78bd78" d="M 74.5,96.5 C 81.6758,95.9846 83.3425,98.8179 79.5,105C 77.8659,105.494 76.1992,105.66 74.5,105.5C 74.5,102.5 74.5,99.5 74.5,96.5 Z"/></g>
<g><path style="opacity:1" fill="#76bd76" d="M 138.5,105.5 C 137.5,105.5 136.5,105.5 135.5,105.5C 135.183,102.428 135.516,99.4281 136.5,96.5C 137.415,97.3279 138.081,98.3279 138.5,99.5C 137.377,101.482 137.377,103.482 138.5,105.5 Z"/></g>
<g><path style="opacity:1" fill="#7dbf7d" d="M 124.5,95.5 C 125.777,96.6936 126.444,98.3603 126.5,100.5C 126.444,102.64 125.777,104.306 124.5,105.5C 124.5,102.167 124.5,98.8333 124.5,95.5 Z"/></g>
<g><path style="opacity:1" fill="#71ba71" d="M 132.5,105.5 C 131.305,101.714 130.638,101.714 130.5,105.5C 129.223,104.306 128.556,102.64 128.5,100.5C 128.821,94.7094 129.654,94.376 131,99.5C 131.893,98.2888 132.726,98.2888 133.5,99.5C 133.247,101.605 132.913,103.605 132.5,105.5 Z"/></g>
<g><path style="opacity:1" fill="#7ebf7e" d="M 123.5,95.5 C 123.5,98.8333 123.5,102.167 123.5,105.5C 122.223,104.306 121.556,102.64 121.5,100.5C 121.556,98.3603 122.223,96.6936 123.5,95.5 Z"/></g>
<g><path style="opacity:1" fill="#77bd77" d="M 91.5,105.5 C 91.5,103.5 91.5,101.5 91.5,99.5C 93.2646,98.5386 95.2646,98.2053 97.5,98.5C 97.6633,100.857 97.4966,103.19 97,105.5C 96.5065,103.866 96.3398,102.199 96.5,100.5C 95.5,100.5 94.5,100.5 93.5,100.5C 93.9227,102.781 93.256,104.448 91.5,105.5 Z"/></g>
<g><path style="opacity:1" fill="#84c185" d="M 90.5,99.5 C 90.5,101.5 90.5,103.5 90.5,105.5C 89.2227,104.306 88.5561,102.64 88.5,100.5C 88.8333,98.8333 89.1667,97.1667 89.5,95.5C 90.4287,96.6888 90.762,98.0222 90.5,99.5 Z"/></g>
<g><path style="opacity:1" fill="#7cbf7c" d="M 83.5,98.5 C 84.9778,98.238 86.3112,98.5713 87.5,99.5C 86.1735,101.311 85.1735,103.311 84.5,105.5C 83.5258,103.257 83.1924,100.924 83.5,98.5 Z"/></g>
<g><path style="opacity:1" fill="#7ebf7d" d="M 113.5,105.5 C 113.784,103.585 113.451,101.919 112.5,100.5C 111.837,102.042 111.17,103.709 110.5,105.5C 109.526,103.257 109.192,100.924 109.5,98.5C 112.833,98.5 116.167,98.5 119.5,98.5C 119.808,100.924 119.474,103.257 118.5,105.5C 117.833,103.833 117.167,102.167 116.5,100.5C 115.999,102.655 114.999,104.322 113.5,105.5 Z"/></g>
<g><path style="opacity:1" fill="#c1d8c6" d="M 76.5,98.5 C 77.5,98.5 78.5,98.5 79.5,98.5C 79.5,100.167 79.5,101.833 79.5,103.5C 78.5,103.5 77.5,103.5 76.5,103.5C 76.5,101.833 76.5,100.167 76.5,98.5 Z"/></g>
<g><path style="opacity:1" fill="#73bb72" d="M 99.5,105.5 C 99.1796,102.102 99.513,98.7683 100.5,95.5C 101.281,96.7287 101.781,98.062 102,99.5C 102.893,98.2888 103.726,98.2888 104.5,99.5C 103.305,100.967 103.305,102.467 104.5,104C 104.333,104.5 104.167,105 104,105.5C 103.085,104.672 102.419,103.672 102,102.5C 101.764,104.119 100.931,105.119 99.5,105.5 Z"/></g>
<g><path style="opacity:1" fill="#b6d0c1" d="M 101.5,42.5 C 119.5,42.5 137.5,42.5 155.5,42.5C 154.249,49.4249 153.583,56.4249 153.5,63.5C 151.712,63.2148 150.045,63.5481 148.5,64.5C 149.833,66.1667 151.167,67.8333 152.5,69.5C 149.261,76.4512 147.261,83.7845 146.5,91.5C 146.785,93.288 146.452,94.9547 145.5,96.5C 129.591,93.1819 113.591,90.5152 97.5,88.5C 96.1407,84.4024 97.1407,80.9024 100.5,78C 100.043,77.586 99.7093,77.086 99.5,76.5C 100.201,73.6787 101.201,71.012 102.5,68.5C 101.722,66.853 100.556,65.5196 99,64.5C 98.586,64.9574 98.086,65.2907 97.5,65.5C 96.3526,63.2351 96.1859,60.9018 97,58.5C 97.9799,60.0589 98.8133,61.7256 99.5,63.5C 100.086,63.2907 100.586,62.9574 101,62.5C 100.257,55.841 100.424,49.1744 101.5,42.5 Z"/></g>
<g><path style="opacity:1" fill="#afcaba" d="M 44.5,42.5 C 44.5,42.1667 44.5,41.8333 44.5,41.5C 126.5,41.5 208.5,41.5 290.5,41.5C 290.5,41.8333 290.5,42.1667 290.5,42.5C 276.167,42.5 261.833,42.5 247.5,42.5C 244.705,55.3503 243.038,68.3503 242.5,81.5C 240.833,81.5 239.167,81.5 237.5,81.5C 235.533,81.2606 233.699,81.5939 232,82.5C 231.587,85.2321 230.92,87.8987 230,90.5C 229.333,86.5 228.667,86.5 228,90.5C 223.252,89.3651 218.419,89.1985 213.5,90C 209.819,91.8369 207.485,94.6702 206.5,98.5C 204.504,96.0831 203.504,96.7498 203.5,100.5C 203.167,100.5 202.833,100.5 202.5,100.5C 201.01,98.7202 199.01,98.0535 196.5,98.5C 196.5,100.833 196.5,103.167 196.5,105.5C 195.833,103.167 195.167,100.833 194.5,98.5C 194.719,97.325 194.386,96.325 193.5,95.5C 192.571,96.6888 192.238,98.0222 192.5,99.5C 190.482,98.0674 188.815,98.4008 187.5,100.5C 186.438,95.2332 185.438,95.2332 184.5,100.5C 184.167,100.5 183.833,100.5 183.5,100.5C 178.674,97.1934 176.84,98.5267 178,104.5C 179.011,105.337 180.178,105.67 181.5,105.5C 180.081,106.451 178.415,106.784 176.5,106.5C 177.036,103.302 176.369,100.635 174.5,98.5C 174.5,95.1667 174.5,91.8333 174.5,88.5C 176.288,88.7852 177.955,88.4519 179.5,87.5C 178.288,85.0769 176.288,84.0769 173.5,84.5C 174.268,77.0717 170.934,74.0717 163.5,75.5C 163.261,73.5328 163.594,71.6995 164.5,70C 168.287,69.8404 171.954,69.1737 175.5,68C 172.95,66.6296 170.283,65.4629 167.5,64.5C 166.32,61.5473 166.653,58.714 168.5,56C 167.67,54.5349 167.504,53.0349 168,51.5C 169.616,50.4552 171.283,49.4552 173,48.5C 173.36,46.5789 174.194,44.9122 175.5,43.5C 168.866,42.5033 162.2,42.17 155.5,42.5C 137.5,42.5 119.5,42.5 101.5,42.5C 82.5,42.5 63.5,42.5 44.5,42.5 Z"/></g>
<g><path style="opacity:1" fill="#7dbe7e" d="M 183.5,100.5 C 183.88,102.698 183.213,104.365 181.5,105.5C 180.178,105.67 179.011,105.337 178,104.5C 176.84,98.5267 178.674,97.1934 183.5,100.5 Z"/></g>
<g><path style="opacity:1" fill="#70ba70" d="M 187.5,100.5 C 186.928,102.119 186.595,103.785 186.5,105.5C 184.783,104.332 184.116,102.665 184.5,100.5C 185.438,95.2332 186.438,95.2332 187.5,100.5 Z"/></g>
<g><path style="opacity:1" fill="#76bc77" d="M 194.5,98.5 C 194.808,100.924 194.474,103.257 193.5,105.5C 192.534,103.604 192.201,101.604 192.5,99.5C 192.238,98.0222 192.571,96.6888 193.5,95.5C 194.386,96.325 194.719,97.325 194.5,98.5 Z"/></g>
<g><path style="opacity:1" fill="#c7dccd" d="M 216.5,42.5 C 219.833,42.5 223.167,42.5 226.5,42.5C 225.886,52.8447 222.053,61.8447 215,69.5C 211.222,76.7221 207.722,84.0554 204.5,91.5C 201.216,92.657 197.882,92.8236 194.5,92C 193.14,90.0624 193.473,88.3957 195.5,87C 194.376,86.7508 193.376,86.2508 192.5,85.5C 194.651,83.2277 196.151,80.561 197,77.5C 205.051,73.9178 209.884,67.7511 211.5,59C 213.203,57.6305 214.536,55.9638 215.5,54C 215.265,53.1268 214.931,52.2935 214.5,51.5C 215.423,48.5534 216.089,45.5534 216.5,42.5 Z"/></g>
<g><path style="opacity:1" fill="#292827" d="M 290.5,41.5 C 208.5,41.5 126.5,41.5 44.5,41.5C 44.5,35.5 44.5,29.5 44.5,23.5C 126.5,23.5 208.5,23.5 290.5,23.5C 290.5,29.5 290.5,35.5 290.5,41.5 Z"/></g>
<g><path style="opacity:1" fill="#55844c" d="M 61.5,27.5 C 69.2878,27.7462 70.9544,30.9129 66.5,37C 63.4495,37.8567 60.7828,37.19 58.5,35C 59.2735,32.4028 60.2735,29.9028 61.5,27.5 Z"/></g>
<g><path style="opacity:1" fill="#6b6969" d="M 261.5,30.5 C 262.833,30.5 264.167,30.5 265.5,30.5C 265.5,32.1667 265.5,33.8333 265.5,35.5C 264.167,35.5 262.833,35.5 261.5,35.5C 261.5,33.8333 261.5,32.1667 261.5,30.5 Z"/></g>
<g><path style="opacity:1" fill="#4a7242" d="M 160.5,30.5 C 163.393,31.523 166.226,31.523 169,30.5C 170.205,31.0712 171.372,31.7379 172.5,32.5C 168.555,33.4909 164.555,33.8242 160.5,33.5C 160.5,32.5 160.5,31.5 160.5,30.5 Z"/></g>
<g><path style="opacity:1" fill="#496f40" d="M 138.5,30.5 C 144.004,30.0684 149.337,30.7351 154.5,32.5C 149.208,33.4948 143.875,33.8282 138.5,33.5C 138.5,32.5 138.5,31.5 138.5,30.5 Z"/></g>
<g><path style="opacity:1" fill="#4d7843" d="M 99.5,30.5 C 103.186,31.6483 106.853,31.6483 110.5,30.5C 112.854,31.0601 115.187,31.7267 117.5,32.5C 111.833,33.3414 105.833,33.6748 99.5,33.5C 99.5,32.5 99.5,31.5 99.5,30.5 Z"/></g>
<g><path style="opacity:1" fill="#4a7142" d="M 84.5,30.5 C 97.7215,32.1315 97.7215,33.1315 84.5,33.5C 84.5,32.5 84.5,31.5 84.5,30.5 Z"/></g>
<g><path style="opacity:1" fill="#4a7242" d="M 173.5,30.5 C 178.394,31.6749 183.06,31.6749 187.5,30.5C 189.854,31.0601 192.187,31.7267 194.5,32.5C 187.532,33.497 180.532,33.8303 173.5,33.5C 173.5,32.5 173.5,31.5 173.5,30.5 Z"/></g>
<g><path style="opacity:1" fill="#517d47" d="M 124.5,30.5 C 127.371,31.6787 130.204,31.6787 133,30.5C 134.205,31.0712 135.372,31.7379 136.5,32.5C 132.555,33.4909 128.555,33.8242 124.5,33.5C 124.5,32.5 124.5,31.5 124.5,30.5 Z"/></g>
<g><path style="opacity:1" fill="#1b1b1b" d="M 293.5,184.5 C 209.5,184.5 125.5,184.5 41.5,184.5C 42.9516,183.698 44.6183,183.198 46.5,183C 127.167,182.333 207.833,182.333 288.5,183C 290.382,183.198 292.048,183.698 293.5,184.5 Z"/></g>
<g><path style="opacity:0.109" fill="#010101" d="M 15.5,186.5 C 15.0196,189.685 15.6863,192.519 17.5,195C 23.3792,196.41 29.3792,196.91 35.5,196.5C 123.167,196.5 210.833,196.5 298.5,196.5C 304.358,196.822 310.025,196.489 315.5,195.5C 318.706,193.416 320.039,190.416 319.5,186.5C 321.754,187.415 323.754,188.748 325.5,190.5C 325.5,196.5 325.5,202.5 325.5,208.5C 319.658,214.334 312.658,217.001 304.5,216.5C 293.833,216.5 283.167,216.5 272.5,216.5C 202.5,215.167 132.5,215.167 62.5,216.5C 51.8333,216.5 41.1667,216.5 30.5,216.5C 25.9382,215.817 21.2716,214.983 16.5,214C 8.9866,210.141 5.81993,203.975 7,195.5C 7.98114,190.687 10.8145,187.687 15.5,186.5 Z"/></g>
<g><path style="opacity:0.901" fill="#939495" d="M 315.5,183.5 C 317.973,183.088 319.306,184.088 319.5,186.5C 320.039,190.416 318.706,193.416 315.5,195.5C 316.564,191.441 316.564,187.441 315.5,183.5 Z"/></g>
<g><path style="opacity:1" fill="#a5a6a7" d="M 16.5,184.5 C 17.3138,186.631 17.8138,188.964 18,191.5C 18.5613,192.022 19.228,192.355 20,192.5C 116.947,192.826 213.947,192.492 311,191.5C 311.5,191.833 312,192.167 312.5,192.5C 215.5,193.167 118.5,193.833 21.5,194.5C 27.6535,195.167 33.6535,195.833 39.5,196.5C 38.1667,196.5 36.8333,196.5 35.5,196.5C 29.3792,196.91 23.3792,196.41 17.5,195C 15.6863,192.519 15.0196,189.685 15.5,186.5C 15.3284,185.508 15.6618,184.842 16.5,184.5 Z"/></g>
<g><path style="opacity:0.98" fill="#bebfbf" d="M 16.5,184.5 C 20.6344,183.515 24.9677,183.182 29.5,183.5C 32.728,184.414 36.0613,184.747 39.5,184.5C 39.8333,184.5 40.1667,184.5 40.5,184.5C 40.8333,184.5 41.1667,184.5 41.5,184.5C 125.5,184.5 209.5,184.5 293.5,184.5C 207.668,185.333 121.668,185.833 35.5,186C 34.1667,186.333 32.8333,186.667 31.5,187C 34.0277,189.057 37.0277,190.057 40.5,190C 130.499,190.5 220.499,190.667 310.5,190.5C 310.5,188.5 310.5,186.5 310.5,184.5C 310.5,184.167 310.5,183.833 310.5,183.5C 312.167,183.5 313.833,183.5 315.5,183.5C 316.564,187.441 316.564,191.441 315.5,195.5C 310.025,196.489 304.358,196.822 298.5,196.5C 212.165,195.181 125.831,195.181 39.5,196.5C 33.6535,195.833 27.6535,195.167 21.5,194.5C 118.5,193.833 215.5,193.167 312.5,192.5C 312,192.167 311.5,191.833 311,191.5C 213.947,192.492 116.947,192.826 20,192.5C 19.228,192.355 18.5613,192.022 18,191.5C 17.8138,188.964 17.3138,186.631 16.5,184.5 Z"/></g>
<g><path style="opacity:1" fill="#e2e3e3" d="M 293.5,184.5 C 293.833,184.5 294.167,184.5 294.5,184.5C 294.833,184.5 295.167,184.5 295.5,184.5C 300.5,184.5 305.5,184.5 310.5,184.5C 310.5,186.5 310.5,188.5 310.5,190.5C 220.499,190.667 130.499,190.5 40.5,190C 37.0277,190.057 34.0277,189.057 31.5,187C 32.8333,186.667 34.1667,186.333 35.5,186C 121.668,185.833 207.668,185.333 293.5,184.5 Z"/></g>
<g><path style="opacity:0.514" fill="#828384" d="M 298.5,196.5 C 210.833,196.5 123.167,196.5 35.5,196.5C 36.8333,196.5 38.1667,196.5 39.5,196.5C 125.831,195.181 212.165,195.181 298.5,196.5 Z"/></g>
</svg>
