<?xml version="1.0" encoding="UTF-8"?>
<!DOCTYPE svg PUBLIC "-//W3C//DTD SVG 1.1//EN" "http://www.w3.org/Graphics/SVG/1.1/DTD/svg11.dtd">
<svg xmlns="http://www.w3.org/2000/svg" version="1.1" width="48px" height="47px" style="shape-rendering:geometricPrecision; text-rendering:geometricPrecision; image-rendering:optimizeQuality; fill-rule:evenodd; clip-rule:evenodd" xmlns:xlink="http://www.w3.org/1999/xlink">
<g><path style="opacity:0.987" fill="#fd6de6" d="M 28.5,40.5 C 28.9292,36.7432 28.2625,33.2432 26.5,30C 30.0781,26.434 34.4114,24.7673 39.5,25C 37.5273,24.5045 35.5273,24.3379 33.5,24.5C 33.2989,20.4264 32.6322,16.4264 31.5,12.5C 30.1667,13.1667 28.8333,13.8333 27.5,14.5C 23.1339,14.0707 18.8005,13.7374 14.5,13.5C 14.4921,16.5448 14.1587,19.5448 13.5,22.5C 11.5,22.5 9.5,22.5 7.5,22.5C 7.15957,24.5476 7.49291,25.5476 8.5,25.5C 13.2856,25.2866 17.2856,26.9533 20.5,30.5C 19.5,30.8333 18.5,31.1667 17.5,31.5C 15.0724,31.1281 13.0724,30.2948 11.5,29C 12.5481,32.4561 14.8814,33.9561 18.5,33.5C 18.5,35.8333 18.5,38.1667 18.5,40.5C 7.60121,36.7142 3.43455,29.0476 6,17.5C 11.6193,5.12422 20.786,1.62422 33.5,7C 41.563,13.7974 43.7296,22.2974 40,32.5C 37.2328,36.7925 33.3995,39.4591 28.5,40.5 Z"/></g>
<g><path style="opacity:0.985" fill="#dad4d9" d="M 28.5,40.5 C 25.1667,41.8333 21.8333,41.8333 18.5,40.5C 18.5,38.1667 18.5,35.8333 18.5,33.5C 14.8814,33.9561 12.5481,32.4561 11.5,29C 13.0724,30.2948 15.0724,31.1281 17.5,31.5C 18.5,31.1667 19.5,30.8333 20.5,30.5C 17.2856,26.9533 13.2856,25.2866 8.5,25.5C 10.5313,25.0276 12.1979,24.0276 13.5,22.5C 14.1587,19.5448 14.4921,16.5448 14.5,13.5C 18.8005,13.7374 23.1339,14.0707 27.5,14.5C 28.8333,13.8333 30.1667,13.1667 31.5,12.5C 32.6322,16.4264 33.2989,20.4264 33.5,24.5C 35.5273,24.3379 37.5273,24.5045 39.5,25C 34.4114,24.7673 30.0781,26.434 26.5,30C 28.2625,33.2432 28.9292,36.7432 28.5,40.5 Z"/></g>
<g><path style="opacity:1" fill="#f093e1" d="M 13.5,22.5 C 12.1979,24.0276 10.5313,25.0276 8.5,25.5C 7.49291,25.5476 7.15957,24.5476 7.5,22.5C 9.5,22.5 11.5,22.5 13.5,22.5 Z"/></g>
</svg>
