<?xml version="1.0" encoding="UTF-8"?>
<!DOCTYPE svg PUBLIC "-//W3C//DTD SVG 1.1//EN" "http://www.w3.org/Graphics/SVG/1.1/DTD/svg11.dtd">
<svg xmlns="http://www.w3.org/2000/svg" version="1.1" width="42px" height="36px" style="shape-rendering:geometricPrecision; text-rendering:geometricPrecision; image-rendering:optimizeQuality; fill-rule:evenodd; clip-rule:evenodd" xmlns:xlink="http://www.w3.org/1999/xlink">
<g><path style="opacity:0.732" fill="#4ba8f6" d="M 19.5,-0.5 C 22.5,-0.5 25.5,-0.5 28.5,-0.5C 29.1217,0.626561 29.955,1.62656 31,2.5C 31.7341,10.5035 32.0674,18.5035 32,26.5C 30.8783,28.6238 29.3783,30.4571 27.5,32C 24.4985,32.7378 21.8318,33.9045 19.5,35.5C 16.8333,35.5 14.1667,35.5 11.5,35.5C 10.4955,34.3172 9.66218,32.9839 9,31.5C 8.72742,25.2576 8.56075,19.0909 8.5,13C 9.4861,6.19195 13.1528,1.69195 19.5,-0.5 Z"/></g>
<g><path style="opacity:1" fill="#f9f8f6" d="M 21.5,1.5 C 24.6516,0.958551 27.1516,1.95855 29,4.5C 29.7927,8.42303 29.626,12.2564 28.5,16C 31.6923,21.5006 30.6923,26.1673 25.5,30C 21.8954,30.4494 18.5621,31.616 15.5,33.5C 13.6171,33.1243 12.1171,32.1243 11,30.5C 10.557,23.144 10.8903,15.8107 12,8.5C 12.956,7.42138 13.7894,6.25471 14.5,5C 17.1868,4.27154 19.5201,3.10487 21.5,1.5 Z"/></g>
<g><path style="opacity:1" fill="#fc9d31" d="M 23.5,5.5 C 24.8032,8.3553 24.8032,11.3553 23.5,14.5C 22.7189,13.2713 22.2189,11.938 22,10.5C 19.2003,8.88212 17.7003,9.71545 17.5,13C 17.6667,13.8333 17.8333,14.6667 18,15.5C 20.0223,16.7865 22.1889,17.7865 24.5,18.5C 27.2833,21.342 26.9499,23.842 23.5,26C 21.2305,26.7581 19.0639,26.5914 17,25.5C 15.7946,30.5236 14.9613,30.1903 14.5,24.5C 14.8174,19.3557 15.8174,19.1891 17.5,24C 19.5,24.6667 21.5,24.6667 23.5,24C 24.8333,22.6667 24.8333,21.3333 23.5,20C 15.97,18.5219 13.97,14.5219 17.5,8C 19.9739,7.96331 21.9739,7.12997 23.5,5.5 Z"/></g>
</svg>
