<?xml version="1.0" encoding="UTF-8"?>
<svg version="1.1" xmlns="http://www.w3.org/2000/svg" width="48" height="48">
<path d="M0 0 C0.66 0.33 1.32 0.66 2 1 C2 2.98 2 4.96 2 7 C3.65 7 5.3 7 7 7 C6.154375 7.66 5.30875 8.32 4.4375 9 C1.81089794 11.6303496 1.81089794 11.6303496 1.890625 14.11328125 C2.15774969 16.09211284 2.57033783 18.04999475 3 20 C4.299375 19.979375 5.59875 19.95875 6.9375 19.9375 C8.29165633 19.91600546 9.64756083 19.92851801 11 20 C12 21 12 21 12.3125 23.375 C12 26 12 26 10.3125 27.8125 C7.65769564 29.17577792 5.94425817 29.24535485 3 29 C3.33 29.99 3.66 30.98 4 32 C1.20251159 32.93249614 -0.54320881 33.13476152 -3.4375 33.125 C-4.58025391 33.12886719 -4.58025391 33.12886719 -5.74609375 33.1328125 C-7.95315859 33.00276015 -9.87969276 32.60856199 -12 32 C-12 32.66 -12 33.32 -12 34 C-5.2314676 34.10152799 1.30324864 34.03026944 8 33 C8 32.34 8 31.68 8 31 C8.99 31 9.98 31 11 31 C10.67 32.32 10.34 33.64 10 35 C11.485 34.505 11.485 34.505 13 34 C12.75 35.875 12.75 35.875 12 38 C8.27354273 40.74682159 3.92175868 40.29504338 -0.5 40.25 C-1.63888672 40.26160156 -1.63888672 40.26160156 -2.80078125 40.2734375 C-6.66792278 40.25989235 -9.72791354 40.19299412 -13 38 C-13 37.34 -13 36.68 -13 36 C-14.32 35.67 -15.64 35.34 -17 35 C-17 33.68 -17 32.36 -17 31 C-14.69 30.34 -12.38 29.68 -10 29 C-10.66 28.67 -11.32 28.34 -12 28 C-12 27.01 -12 26.02 -12 25 C-12.99 24.34 -13.98 23.68 -15 23 C-15 22.34 -15 21.68 -15 21 C-12.04335481 19.5216774 -9.25770263 19.93967217 -6 20 C-5.88899737 18.73331619 -5.88899737 18.73331619 -7.5625 17.25 C-9 15 -9 15 -9.125 12.6875 C-7.65194839 9.16854337 -5.39500317 7.18563811 -2.59375 4.6484375 C-0.75450663 2.98362891 -0.75450663 2.98362891 0 0 Z M-4 12 C-5.40096246 15.07242053 -5.40096246 15.07242053 -3.5625 18.1875 C-3.046875 19.115625 -2.53125 20.04375 -2 21 C-1.34 20.34 -0.68 19.68 0 19 C-0.99 16.69 -1.98 14.38 -3 12 C-3.33 12 -3.66 12 -4 12 Z M-1 24 C-2.99369031 24.36920191 -4.99279077 24.71325582 -7 25 C-7 25.33 -7 25.66 -7 26 C-3.04 26 0.92 26 5 26 C5.33 26.66 5.66 27.32 6 28 C6.99 26.35 7.98 24.7 9 23 C5.14104159 21.51578523 2.78130395 22.63873058 -1 24 Z M-10 37 C-10 37.33 -10 37.66 -10 38 C-4.72 38 0.56 38 6 38 C6 37.67 6 37.34 6 37 C0.72 37 -4.56 37 -10 37 Z " fill="#1362C1" transform="translate(26,4)"/>
<path d="M0 0 C0 1.32 0 2.64 0 4 C6.7685324 4.10152799 13.30324864 4.03026944 20 3 C20 2.34 20 1.68 20 1 C20.99 1 21.98 1 23 1 C22.67 2.32 22.34 3.64 22 5 C22.99 4.67 23.98 4.34 25 4 C24.75 5.875 24.75 5.875 24 8 C20.27354273 10.74682159 15.92175868 10.29504338 11.5 10.25 C10.74074219 10.25773437 9.98148438 10.26546875 9.19921875 10.2734375 C5.33207722 10.25989235 2.27208646 10.19299412 -1 8 C-1 7.34 -1 6.68 -1 6 C-2.32 5.67 -3.64 5.34 -5 5 C-5 3.68 -5 2.36 -5 1 C-3 0 -3 0 0 0 Z M2 7 C2 7.33 2 7.66 2 8 C7.28 8 12.56 8 18 8 C18 7.67 18 7.34 18 7 C12.72 7 7.44 7 2 7 Z " fill="#1363C2" transform="translate(14,34)"/>
<path d="M0 0 C0.66 0.33 1.32 0.66 2 1 C2 2.98 2 4.96 2 7 C3.65 7 5.3 7 7 7 C6.154375 7.66 5.30875 8.32 4.4375 9 C1.79756307 11.62019355 1.79756307 11.62019355 1.9609375 14.04296875 C2.28702053 16.03207522 2.6422903 18.01633711 3 20 C2.34 20.66 1.68 21.32 1 22 C-2.88058621 22 -4.03507298 20.96645193 -6.875 18.25 C-9 15 -9 15 -9.25 12.5625 C-7.6210009 9.22305184 -5.33013022 7.12688024 -2.59375 4.6484375 C-0.75450663 2.98362891 -0.75450663 2.98362891 0 0 Z M-4 12 C-5.40096246 15.07242053 -5.40096246 15.07242053 -3.5625 18.1875 C-3.046875 19.115625 -2.53125 20.04375 -2 21 C-1.34 20.34 -0.68 19.68 0 19 C-0.99 16.69 -1.98 14.38 -3 12 C-3.33 12 -3.66 12 -4 12 Z " fill="#F44434" transform="translate(26,4)"/>
</svg>
