<?xml version="1.0" encoding="UTF-8"?>
<svg version="1.1" xmlns="http://www.w3.org/2000/svg" width="100" height="100">
<path d="M0 0 C10.05294404 7.42083876 16.46072903 16.33460649 19.4375 28.45703125 C20.65075412 42.16962431 18.39081065 53.61776824 9.4375 64.45703125 C0.29318761 73.9915462 -9.22611741 78.44067649 -22.4375 78.76953125 C-34.47649669 78.55134048 -44.52199664 74.40350192 -53.375 66.14453125 C-56.93560463 62.33258982 -59.37061984 58.16997504 -61.5625 53.45703125 C-61.88347656 52.79316406 -62.20445313 52.12929687 -62.53515625 51.4453125 C-66.61628303 41.47977035 -65.70288967 29.01859292 -61.88671875 19.13671875 C-56.12772027 7.48281623 -46.55032617 -0.03822662 -34.5625 -4.54296875 C-23.66203255 -8.07157368 -9.62586593 -5.79606256 0 0 Z " fill="#FC50D4" transform="translate(72.5625,13.54296875)"/>
<path d="M0 0 C2.64 0 5.28 0 8 0 C8.33 0.99 8.66 1.98 9 3 C9.474375 2.505 9.94875 2.01 10.4375 1.5 C14.2246173 -0.71684915 17.71227638 -0.70441174 22 0 C25.33600367 2.05838525 26.8262176 3.7393264 29 7 C29.22705078 9.54370117 29.22705078 9.54370117 29.1953125 12.54296875 C29.18886719 13.61611328 29.18242188 14.68925781 29.17578125 15.79492188 C29.15902344 16.91447266 29.14226562 18.03402344 29.125 19.1875 C29.11597656 20.31865234 29.10695313 21.44980469 29.09765625 22.61523438 C29.07406862 25.41036828 29.041153 28.20507845 29 31 C26.03 31 23.06 31 20 31 C19.95101562 29.57945313 19.90203125 28.15890625 19.8515625 26.6953125 C19.77654064 24.83852144 19.70099256 22.98175159 19.625 21.125 C19.5940625 20.18785156 19.563125 19.25070313 19.53125 18.28515625 C19.49257813 17.38925781 19.45390625 16.49335937 19.4140625 15.5703125 C19.3826416 14.74289551 19.3512207 13.91547852 19.31884766 13.06298828 C19.17400863 10.78013915 19.17400863 10.78013915 17 9 C13.43407381 9.16417032 13.43407381 9.16417032 10 10 C8.85345518 12.29308963 8.80270883 13.79909656 8.68359375 16.3515625 C8.64169922 17.20234375 8.59980469 18.053125 8.55664062 18.9296875 C8.51732422 19.81914063 8.47800781 20.70859375 8.4375 21.625 C8.39431641 22.5221875 8.35113281 23.419375 8.30664062 24.34375 C8.20043139 26.56234283 8.09838806 28.7810488 8 31 C5.36 31 2.72 31 0 31 C0 20.77 0 10.54 0 0 Z " fill="#FEF8FD" transform="translate(44,40)"/>
<path d="M0 0 C2.64 0 5.28 0 8 0 C8 10.23 8 20.46 8 31 C5.36 31 2.72 31 0 31 C0 20.77 0 10.54 0 0 Z " fill="#FEFAFD" transform="translate(29,40)"/>
<path d="M0 0 C2.00720923 0.28674418 4.0085944 0.61866701 6 1 C6.04254356 2.99954746 6.04080783 5.00041636 6 7 C5 8 5 8 2.5625 8.1875 C0 8 0 8 -2 6 C-1.44444444 1.44444444 -1.44444444 1.44444444 0 0 Z " fill="#FEF4FC" transform="translate(31,27)"/>
</svg>
