<?xml version="1.0" encoding="UTF-8"?>
<svg version="1.1" xmlns="http://www.w3.org/2000/svg" width="116" height="117">
<path d="M0 0 C0 0.66 0 1.32 0 2 C0.53367187 2.17015625 1.06734375 2.3403125 1.6171875 2.515625 C18.90447582 8.13848002 18.90447582 8.13848002 26 14 C26 14.66 26 15.32 26 16 C27.485 16.495 27.485 16.495 29 17 C35.67582014 25.34477517 36.78851916 34.26337001 35.73046875 44.64453125 C35.63378906 45.50433594 35.53710938 46.36414062 35.4375 47.25 C35.00795882 51.08007551 35.25667741 54.20079565 36 58 C36.4533357 67.21782586 35.16877464 75.74378112 29 83 C28.34 83 27.68 83 27 83 C27 83.99 27 84.98 27 86 C25.515 86.495 25.515 86.495 24 87 C23.484375 87.598125 22.96875 88.19625 22.4375 88.8125 C17.12772685 93.57768103 9.98659239 95.39247023 3 96 C3 96.66 3 97.32 3 98 C-4.73244588 104.100694 -13.92117096 108.89589591 -24 108 C-25.11375 107.9175 -26.2275 107.835 -27.375 107.75 C-33.30948557 106.5221754 -37.8482578 104.23210042 -42.1875 100 C-46.16659946 96.3578037 -50.67080386 95.47404077 -55.7734375 94.0546875 C-66.04465012 90.69726933 -72.23243321 83.37073472 -77 74 C-79.84633511 66.5995287 -79.44268713 59.00052178 -78.4375 51.25 C-77.93438346 47.31590815 -78.35758868 43.92584698 -79 40 C-79.81845177 30.01488841 -76.04115643 22.48995896 -69.70703125 14.90234375 C-64.02263978 8.56756424 -56.97561096 6.29365885 -48.875 4.1875 C-45.92385796 2.96855003 -44.1399549 1.58018234 -41.6875 -0.4375 C-28.49119578 -10.97697758 -13.50539592 -8.15951003 0 0 Z " fill="#F58A1F" transform="translate(79,8)"/>
<path d="M0 0 C0 0.66 0 1.32 0 2 C0.99 2.33 1.98 2.66 3 3 C2.67 3.99 2.34 4.98 2 6 C-0.40625 6.73828125 -0.40625 6.73828125 -3.5 7.3125 C-8.9320034 8.52176742 -12.65653263 10.34076916 -17.0625 13.6953125 C-19.14750583 15.09932853 -20.48875686 15.81178059 -23 16 C-24.82421875 14.890625 -24.82421875 14.890625 -26.6875 13.25 C-32.88832547 8.2939499 -39.12814861 6.4975414 -47 7 C-50.08900201 12.66507011 -52.57664615 17.50857435 -53 24 C-51.2365625 23.566875 -51.2365625 23.566875 -49.4375 23.125 C-46.63390238 22.75018748 -45.38980349 22.77631837 -42.91015625 24.19921875 C-41.11103424 25.71872261 -39.48288036 27.16956955 -38 29 C-38 29.66 -38 30.32 -38 31 C-37.175 30.57847656 -36.35 30.15695313 -35.5 29.72265625 C-26.56286054 25.4834997 -18.03011717 22.90173019 -8 24 C1.21269757 29.59576367 6.19200287 43.03613922 9 53 C9.48408611 57.69742819 8.86419767 60.23806873 6 64 C3.51171875 66.28125 3.51171875 66.28125 0.6875 68.5 C-2.37552784 70.90867196 -5.32851378 73.29016546 -8.125 76 C-12.18329477 78.82316158 -15.08084599 79.47076509 -20 79 C-25.46217281 77.66405061 -30.71101752 75.89568772 -36 74 C-37.54107422 73.47986328 -37.54107422 73.47986328 -39.11328125 72.94921875 C-43.94120177 71.21116736 -47.59537736 69.80924528 -50 65 C-50.53435011 62.20318878 -50.71247851 59.76609303 -50 57 C-47.96875 54.25 -47.96875 54.25 -46 52 C-46.78246094 51.13117187 -47.56492187 50.26234375 -48.37109375 49.3671875 C-49.39385721 48.20367677 -50.41595795 47.03958325 -51.4375 45.875 C-51.95376953 45.30523437 -52.47003906 44.73546875 -53.00195312 44.1484375 C-56.16198862 40.51336399 -57.70454683 37.98482534 -58 33 C-65.62433432 37.68423154 -72.50181522 42.56908017 -75 51.625 C-75.33 52.73875 -75.66 53.8525 -76 55 C-76.99 55.495 -76.99 55.495 -78 56 C-77.98839844 55.43152344 -77.97679688 54.86304688 -77.96484375 54.27734375 C-77.90778477 49.39472495 -78.29598115 44.84012957 -79 40 C-79.81845177 30.01488841 -76.04115643 22.48995896 -69.70703125 14.90234375 C-64.02263978 8.56756424 -56.97561096 6.29365885 -48.875 4.1875 C-45.92385796 2.96855003 -44.1399549 1.58018234 -41.6875 -0.4375 C-28.49119578 -10.97697758 -13.50539592 -8.15951003 0 0 Z " fill="#FAB118" transform="translate(79,8)"/>
<path d="M0 0 C8.03750471 0.03486987 14.50194522 2.18286564 21 7 C21.69449255 8.31905357 22.36634931 9.65066349 23 11 C23.99 11.33 24.98 11.66 26 12 C32.67582014 20.34477517 33.78851916 29.26337001 32.73046875 39.64453125 C32.63378906 40.50433594 32.53710938 41.36414062 32.4375 42.25 C32.00795882 46.08007551 32.25667741 49.20079565 33 53 C33.4533357 62.21782586 32.16877464 70.74378112 26 78 C25.34 78 24.68 78 24 78 C24 78.99 24 79.98 24 81 C22.515 81.495 22.515 81.495 21 82 C20.484375 82.598125 19.96875 83.19625 19.4375 83.8125 C14.12772685 88.57768103 6.98659239 90.39247023 0 91 C0 91.66 0 92.32 0 93 C-7.73244588 99.100694 -16.92117096 103.89589591 -27 103 C-28.11375 102.9175 -29.2275 102.835 -30.375 102.75 C-36.30948557 101.5221754 -40.8482578 99.23210042 -45.1875 95 C-49.16659946 91.3578037 -53.67080386 90.47404077 -58.7734375 89.0546875 C-69.04465012 85.69726933 -75.23243321 78.37073472 -80 69 C-82.22261794 63.22119335 -82.99967066 57.13390154 -82 51 C-79.5 48.3125 -79.5 48.3125 -77 47 C-76.69449219 47.56847656 -76.38898438 48.13695312 -76.07421875 48.72265625 C-71.83155487 55.8814046 -65.80345736 61.29195904 -57.6640625 63.6875 C-57.11492188 63.790625 -56.56578125 63.89375 -56 64 C-55.98582031 64.89460938 -55.97164062 65.78921875 -55.95703125 66.7109375 C-55.63143803 74.96516556 -54.38997599 80.96955875 -50 88 C-39.50341158 88.57254119 -32.38706702 85.12672272 -24 79 C-23.35933594 79.48210937 -22.71867187 79.96421875 -22.05859375 80.4609375 C-14.33915369 86.09808449 -8.53672288 88.33462186 1 88 C5.3564869 80.19337716 5.3564869 80.19337716 6.98828125 71.58203125 C7.00060198 68.80165332 7.09717881 66.63765407 8 64 C10.39012544 62.21183208 12.73677808 61.19289785 15.49609375 60.06640625 C18.82896136 58.64694781 20.69362745 56.76764706 23 54 C23.47566406 53.44054687 23.95132813 52.88109375 24.44140625 52.3046875 C27.27740607 48.77293808 27.27740607 48.77293808 28.0625 44.4375 C25.39049262 38.30760073 21.47566808 33.76796476 16 30 C14.56710369 29.48695575 13.12952931 28.98678303 11.6875 28.5 C9.6484375 27.5703125 9.6484375 27.5703125 8 26 C7.10948608 22.53689032 6.79697538 19.19362698 6.4921875 15.6328125 C5.78714905 10.4289573 3.64740015 6.46460514 1 2 C0.505 1.01 0.505 1.01 0 0 Z " fill="#FAB118" transform="translate(82,13)"/>
<path d="M0 0 C3.52558786 0.17750356 4.86976713 0.88055204 7.5 3.29296875 C8.325 4.24816406 9.15 5.20335937 10 6.1875 C11.29550781 7.6725 11.29550781 7.6725 12.6171875 9.1875 C13.40351562 10.115625 14.18984375 11.04375 15 12 C15.58007812 12.680625 16.16015625 13.36125 16.7578125 14.0625 C17.85238502 15.36347762 18.92921965 16.6793709 20 18 C18.62845496 15.04590299 17.01136276 12.55991624 15 10 C16.875 6.125 16.875 6.125 18 5 C20.25 4.5 20.25 4.5 23 5 C24.97873238 7.14496735 26.50232307 9.50174742 28 12 C24.92307692 7.69230769 24.92307692 7.69230769 25.3125 4.1875 C25.539375 3.465625 25.76625 2.74375 26 2 C27.65 1.67 29.3 1.34 31 1 C33.475 4.465 33.475 4.465 36 8 C35.505 6.515 35.505 6.515 35 5 C35.4375 2.3125 35.4375 2.3125 36 0 C38.83767928 0.33018528 40.52443139 0.52910528 42.58984375 2.57421875 C52.87920384 18.70912835 52.87920384 18.70912835 53.05859375 26.56640625 C51.45439478 30.25428801 48.73161507 32.22698052 45.625 34.6875 C45.03460938 35.17283203 44.44421875 35.65816406 43.8359375 36.15820312 C36.66666509 42.01149423 36.66666509 42.01149423 32.375 41.9375 C27.53154857 41.2730265 22.87868484 39.96725817 18.1875 38.625 C17.07544189 38.31163696 17.07544189 38.31163696 15.94091797 37.99194336 C12.0851995 36.84241511 9.05538874 35.74263241 6 33 C6.33 31.35 6.66 29.7 7 28 C10.33333333 28 13.66666667 28 17 28 C16.29875 27.17757812 15.5975 26.35515625 14.875 25.5078125 C12.39292049 22.59202687 9.92597953 19.66376824 7.46289062 16.73193359 C6.1371248 15.16234368 4.79598069 13.60577518 3.453125 12.05078125 C2.36257812 10.75720703 2.36257812 10.75720703 1.25 9.4375 C0.59515625 8.67308594 -0.0596875 7.90867187 -0.734375 7.12109375 C-2 5 -2 5 -1.765625 2.78515625 C-1 1 -1 1 0 0 Z " fill="#F05723" transform="translate(29,38)"/>
<path d="M0 0 C2.58052963 1.75260971 4.91268637 3.67808916 7 6 C7 6.66 7 7.32 7 8 C7.825 7.57847656 8.65 7.15695313 9.5 6.72265625 C18.43713946 2.4834997 26.96988283 -0.09826981 37 1 C46.21269757 6.59576367 51.19200287 20.03613922 54 30 C54.48408611 34.69742819 53.86419767 37.23806873 51 41 C48.51171875 43.28125 48.51171875 43.28125 45.6875 45.5 C42.62447216 47.90867196 39.67148622 50.29016546 36.875 53 C32.81670523 55.82316158 29.91915401 56.47076509 25 56 C19.53782719 54.66405061 14.28898248 52.89568772 9 51 C7.45892578 50.47986328 7.45892578 50.47986328 5.88671875 49.94921875 C1.05879823 48.21116736 -2.59537736 46.80924528 -5 42 C-5.53435011 39.20318878 -5.71247851 36.76609303 -5 34 C-2.96875 31.25 -2.96875 31.25 -1 29 C-2.17369141 27.62714844 -2.17369141 27.62714844 -3.37109375 26.2265625 C-4.39333531 25.02613205 -5.41546493 23.82560626 -6.4375 22.625 C-6.95376953 22.02171875 -7.47003906 21.4184375 -8.00195312 20.796875 C-12.9027095 15.03127926 -12.9027095 15.03127926 -13.3125 10.6875 C-12.9475203 6.38073959 -12.06016472 4.97516014 -9 2 C-5.98390804 -0.04315907 -3.59819979 -0.66943252 0 0 Z M-5 7 C-5.66 7.66 -6.32 8.32 -7 9 C-6.66108232 12.38303066 -5.16348807 14.34556682 -3.015625 16.8984375 C-2.40976562 17.62546875 -1.80390625 18.3525 -1.1796875 19.1015625 C-0.54289062 19.85179687 0.09390625 20.60203125 0.75 21.375 C1.37132812 22.1175 1.99265625 22.86 2.6328125 23.625 C3.84932027 25.07762321 5.06864014 26.52789691 6.29101562 27.97558594 C8.54013734 30.63983126 10.77041798 33.31939566 13 36 C12.484375 35.835 11.96875 35.67 11.4375 35.5 C8.26636124 34.84951 5.22781666 34.9379266 2 35 C1.67 36.65 1.34 38.3 1 40 C3.76468734 42.25589988 6.1447547 43.57359895 9.5546875 44.60546875 C10.41707031 44.86650391 11.27945313 45.12753906 12.16796875 45.39648438 C13.06128906 45.65751953 13.95460938 45.91855469 14.875 46.1875 C16.20337891 46.59645508 16.20337891 46.59645508 17.55859375 47.01367188 C24.17185445 49.05499689 24.17185445 49.05499689 31 49 C33.87487327 47.24438553 33.87487327 47.24438553 36.5 44.8125 C37.44359375 43.9875 38.3871875 43.1625 39.359375 42.3125 C40.23078125 41.549375 41.1021875 40.78625 42 40 C43.24695939 39.09993909 44.49622003 38.20303531 45.75 37.3125 C46.4925 36.549375 47.235 35.78625 48 35 C47.70035008 29.92842517 45.77513961 25.58457138 43.75 21 C43.46253906 20.31421875 43.17507812 19.6284375 42.87890625 18.921875 C40.84105222 14.25883783 38.41810654 10.77170377 35 7 C33.35 7.33 31.7 7.66 30 8 C30.2475 9.4540625 30.2475 9.4540625 30.5 10.9375 C31 14 31 14 31 15 C29.35 12.69 27.7 10.38 26 8 C24.35 8.33 22.7 8.66 21 9 C19.99782936 12.58327753 19.99782936 12.58327753 21 16 C20.608125 15.34 20.21625 14.68 19.8125 14 C18.15906454 11.76410881 18.15906454 11.76410881 15.5 11.5625 C12.65233722 12.06084099 11.76529621 12.77015215 10 15 C11.3697164 18.99500618 13.25722422 21.80009492 16 25 C12.41204354 22.30435271 9.66509826 19.55726533 6.9375 16 C3.28705768 11.20356861 3.28705768 11.20356861 -1 7 C-2.32 7 -3.64 7 -5 7 Z " fill="#FEF6F0" transform="translate(34,31)"/>
<path d="M0 0 C2.88089438 0.25071823 4.50574687 0.51060439 6.58984375 2.57421875 C16.87920384 18.70912835 16.87920384 18.70912835 17.05859375 26.56640625 C15.45439478 30.25428801 12.73161507 32.22698052 9.625 34.6875 C9.03460938 35.17283203 8.44421875 35.65816406 7.8359375 36.15820312 C0.66666509 42.01149423 0.66666509 42.01149423 -3.625 41.9375 C-8.46845143 41.2730265 -13.12131516 39.96725817 -17.8125 38.625 C-18.92455811 38.31163696 -18.92455811 38.31163696 -20.05908203 37.99194336 C-23.9148005 36.84241511 -26.94461126 35.74263241 -30 33 C-29.67 31.35 -29.34 29.7 -29 28 C-25.66666667 28 -22.33333333 28 -19 28 C-19.33 27.34 -19.66 26.68 -20 26 C-18.68 26.33 -17.36 26.66 -16 27 C-16 29.97 -16 32.94 -16 36 C-13.03 34.02 -10.06 32.04 -7 30 C-4.36 31.98 -1.72 33.96 1 36 C1 33.03 1 30.06 1 27 C4.3 25.35 7.6 23.7 11 22 C11 20.68 11 19.36 11 18 C10.28972656 17.70867188 9.57945313 17.41734375 8.84765625 17.1171875 C6.09202639 15.88816885 3.53076641 14.64543004 1 13 C-0.0625 10.0625 -0.0625 10.0625 0 7 C-0.20625 5.906875 -0.4125 4.81375 -0.625 3.6875 C-0.74875 2.800625 -0.8725 1.91375 -1 1 C-0.67 0.67 -0.34 0.34 0 0 Z " fill="#F27428" transform="translate(65,38)"/>
<path d="M0 0 C3.61087826 0.16413083 4.93191328 0.93815792 7.640625 3.3984375 C8.50171875 4.38070312 9.3628125 5.36296875 10.25 6.375 C11.55710937 7.84066406 11.55710937 7.84066406 12.890625 9.3359375 C15 12 15 12 16 15 C15.01 15.33 14.02 15.66 13 16 C11.31461399 17.99665314 11.31461399 17.99665314 10 20 C7.33333333 16.66666667 4.66666667 13.33333333 2 10 C1.24847656 9.11183594 0.49695313 8.22367188 -0.27734375 7.30859375 C-2 5 -2 5 -1.8125 2.75 C-1 1 -1 1 0 0 Z " fill="#F2732A" transform="translate(29,38)"/>
<path d="M0 0 C2.5625 0.5 2.5625 0.5 4.4375 2.625 C5.82412195 6.16858943 5.62162013 7.86873099 4.5625 11.5 C3.1875 14.375 3.1875 14.375 1.5625 16.5 C0.5725 16.5 -0.4175 16.5 -1.4375 16.5 C-5.47164097 10.3876652 -5.47164097 10.3876652 -5.3125 6.25 C-3.55595387 0.72942643 -3.55595387 0.72942643 0 0 Z " fill="#ED3A22" transform="translate(57.4375,50.5)"/>
<path d="M0 0 C1.45823212 -0.0270043 2.91660675 -0.04639787 4.375 -0.0625 C5.18710938 -0.07410156 5.99921875 -0.08570313 6.8359375 -0.09765625 C9 0 9 0 11 1 C10.74225629 2.41910652 10.46816835 3.83524899 10.1875 5.25 C10.03667969 6.03890625 9.88585937 6.8278125 9.73046875 7.640625 C8.91980019 10.25904109 7.74878103 11.91104512 6 14 C4.9923048 12.2335343 3.99408286 10.46166177 3 8.6875 C2.443125 7.70136719 1.88625 6.71523438 1.3125 5.69921875 C0 3 0 3 0 0 Z " fill="#F27023" transform="translate(78,38)"/>
<path d="M0 0 C1.2065625 0.0309375 1.2065625 0.0309375 2.4375 0.0625 C3.7575 2.3725 5.0775 4.6825 6.4375 7.0625 C4.4575 7.3925 2.4775 7.7225 0.4375 8.0625 C0.1075 9.3825 -0.2225 10.7025 -0.5625 12.0625 C-2.2125 9.7525 -3.8625 7.4425 -5.5625 5.0625 C-3.15007962 0.07683121 -3.15007962 0.07683121 0 0 Z " fill="#F1622E" transform="translate(49.5625,42.9375)"/>
<path d="M0 0 C0.33 2.64 0.66 5.28 1 8 C-2.63 8 -6.26 8 -10 8 C-3.56521739 0 -3.56521739 0 0 0 Z " fill="#F27225" transform="translate(88,70)"/>
<path d="M0 0 C2.4375 0.125 2.4375 0.125 5 1 C6.3125 3.5625 6.3125 3.5625 7 6 C6.38125 6.28875 5.7625 6.5775 5.125 6.875 C2.86674235 7.93720042 2.86674235 7.93720042 1 10 C-0.5625 8.3125 -0.5625 8.3125 -2 6 C-1.58974359 1.58974359 -1.58974359 1.58974359 0 0 Z " fill="#F37A35" transform="translate(56,39)"/>
<path d="M0 0 C-0.680625 0.86625 -1.36125 1.7325 -2.0625 2.625 C-4.28543661 5.8039742 -4.28543661 5.8039742 -3.875 9.125 C-3.11728848 11.61462357 -2.29737907 13.75120962 -1 16 C-2.98 16 -4.96 16 -7 16 C-7 11.05 -7 6.1 -7 1 C-4.53721199 -0.231394 -2.7204945 -0.07159196 0 0 Z " fill="#EE4B25" transform="translate(57,50)"/>
<path d="M0 0 C2.5 2.3125 2.5 2.3125 5 5 C5 5.99 5 6.98 5 8 C2.03 8 -0.94 8 -4 8 C-3.07377893 4.29511572 -2.32789515 2.83395931 0 0 Z " fill="#F26E20" transform="translate(57,25)"/>
<path d="M0 0 C0 0.99 0 1.98 0 3 C-0.99 3.33 -1.98 3.66 -3 4 C-4.84399021 5.9466718 -6.49469912 8.00800719 -8.18359375 10.08984375 C-10.02321723 12.02441554 -11.55756696 12.97471492 -14 14 C-12.64527694 8.41176736 -8.41886827 5.30998246 -4 2 C-2.68535911 1.29719025 -1.3567815 0.61754853 0 0 Z " fill="#F5B42F" transform="translate(20,15)"/>
<path d="M0 0 C2.72426311 2.35277269 3.8141763 4.62496331 5 8 C3.02 8 1.04 8 -1 8 C-0.67 5.36 -0.34 2.72 0 0 Z " fill="#F27325" transform="translate(27,70)"/>
<path d="M0 0 C0 2.64 0 5.28 0 8 C-0.99 8 -1.98 8 -3 8 C-3.66 6.35 -4.32 4.7 -5 3 C-2.25 0 -2.25 0 0 0 Z " fill="#F37730" transform="translate(49,43)"/>
<path d="M0 0 C0.66 0.33 1.32 0.66 2 1 C0.17328621 3.53926173 -1.66877878 5.9050512 -4 8 C-7.375 8.4375 -7.375 8.4375 -10 8 C-6.66666667 5.33333333 -3.33333333 2.66666667 0 0 Z " fill="#F3B92C" transform="translate(39,6)"/>
<path d="M0 0 C5.75 0.75 5.75 0.75 8 3 C6.68 3.99 5.36 4.98 4 6 C0 1.125 0 1.125 0 0 Z " fill="#F27124" transform="translate(53,85)"/>
<path d="M0 0 C0.66 0.33 1.32 0.66 2 1 C2.59355614 3.64860427 2.74209269 6.29197322 3 9 C2.01 9 1.02 9 0 9 C-1.125 7.3125 -1.125 7.3125 -2 5 C-1.125 2.25 -1.125 2.25 0 0 Z " fill="#F3B22E" transform="translate(112,55)"/>
<path d="M0 0 C0.66 0 1.32 0 2 0 C2.56016748 1.40945366 3.09748502 2.8280031 3.625 4.25 C3.92664063 5.03890625 4.22828125 5.8278125 4.5390625 6.640625 C5 9 5 9 3 13 C2.01 8.71 1.02 4.42 0 0 Z " fill="#EBB131" transform="translate(110,31)"/>
<path d="M0 0 C2.66735273 2.48952921 4.55746343 4.63408134 6 8 C2.63279613 6.60667426 1.0140476 5.0210714 -1 2 C-0.67 1.34 -0.34 0.68 0 0 Z " fill="#FBDCCF" transform="translate(45,49)"/>
</svg>
