<?xml version="1.0" encoding="UTF-8"?>
<svg version="1.1" xmlns="http://www.w3.org/2000/svg" width="100" height="100">
<path d="M0 0 C4.48741845 2.48615324 7.11474899 5.40674698 8.75 10.3125 C8.87774831 12.46391811 8.95192797 14.61868255 8.99609375 16.7734375 C9.02896484 18.04960937 9.06183594 19.32578125 9.09570312 20.640625 C9.14304203 22.66368859 9.18748494 24.68672503 9.22680664 26.70996094 C9.26671961 28.66880362 9.3187736 30.62738694 9.37109375 32.5859375 C9.3961499 33.75560059 9.42120605 34.92526367 9.44702148 36.13037109 C9.74557934 39.26607065 10.49901552 41.4503945 11.75 44.3125 C12.73261005 53.77297816 12.16443186 61.72889931 6.171875 69.30859375 C1.90086539 73.93552082 -2.41818766 76.07218461 -8.41015625 78.01171875 C-9.16167969 78.25535156 -9.91320313 78.49898438 -10.6875 78.75 C-11.82832031 79.11351563 -11.82832031 79.11351563 -12.9921875 79.484375 C-15.245714 80.31092797 -17.21812244 81.33371916 -19.3125 82.5 C-23.37671597 84.58441968 -26.7428336 85.17724704 -31.25 84.3125 C-36.54291242 82.50634193 -40.18295452 80.09709095 -43.25 75.3125 C-45.05015379 69.91203864 -44.43467173 64.0883764 -44.4375 58.4375 C-44.44974609 57.15746094 -44.46199219 55.87742188 -44.47460938 54.55859375 C-44.47654297 53.32496094 -44.47847656 52.09132812 -44.48046875 50.8203125 C-44.48663208 49.12865967 -44.48663208 49.12865967 -44.49291992 47.40283203 C-44.24818993 44.28947299 -43.47730119 42.15454212 -42.25 39.3125 C-42.33466601 36.54796224 -42.33466601 36.54796224 -42.8125 33.6875 C-43.66182993 25.14177289 -42.07040107 18.36393121 -37 11.375 C-32.05192032 5.56773494 -26.50887101 3.19466424 -19.30859375 0.97265625 C-17.12868232 0.32025615 -17.12868232 0.32025615 -14.6875 -0.875 C-9.42561053 -2.62896316 -4.95190787 -2.27769319 0 0 Z " fill="#FBFCFB" transform="translate(66.25,8.6875)"/>
<path d="M0 0 C4.48741845 2.48615324 7.11474899 5.40674698 8.75 10.3125 C8.87774831 12.46391811 8.95192797 14.61868255 8.99609375 16.7734375 C9.02896484 18.04960937 9.06183594 19.32578125 9.09570312 20.640625 C9.14304203 22.66368859 9.18748494 24.68672503 9.22680664 26.70996094 C9.26671961 28.66880362 9.3187736 30.62738694 9.37109375 32.5859375 C9.3961499 33.75560059 9.42120605 34.92526367 9.44702148 36.13037109 C9.74557934 39.26607065 10.49901552 41.4503945 11.75 44.3125 C12.73261005 53.77297816 12.16443186 61.72889931 6.171875 69.30859375 C1.90086539 73.93552082 -2.41818766 76.07218461 -8.41015625 78.01171875 C-9.16167969 78.25535156 -9.91320313 78.49898438 -10.6875 78.75 C-11.82832031 79.11351563 -11.82832031 79.11351563 -12.9921875 79.484375 C-15.245714 80.31092797 -17.21812244 81.33371916 -19.3125 82.5 C-23.37671597 84.58441968 -26.7428336 85.17724704 -31.25 84.3125 C-36.54291242 82.50634193 -40.18295452 80.09709095 -43.25 75.3125 C-45.05015379 69.91203864 -44.43467173 64.0883764 -44.4375 58.4375 C-44.44974609 57.15746094 -44.46199219 55.87742188 -44.47460938 54.55859375 C-44.47654297 53.32496094 -44.47847656 52.09132812 -44.48046875 50.8203125 C-44.48663208 49.12865967 -44.48663208 49.12865967 -44.49291992 47.40283203 C-44.24818993 44.28947299 -43.47730119 42.15454212 -42.25 39.3125 C-42.33466601 36.54796224 -42.33466601 36.54796224 -42.8125 33.6875 C-43.66182993 25.14177289 -42.07040107 18.36393121 -37 11.375 C-32.05192032 5.56773494 -26.50887101 3.19466424 -19.30859375 0.97265625 C-17.12868232 0.32025615 -17.12868232 0.32025615 -14.6875 -0.875 C-9.42561053 -2.62896316 -4.95190787 -2.27769319 0 0 Z M-17.25 6.3125 C-18.70142329 6.61820775 -20.16118526 6.88555644 -21.625 7.125 C-27.772525 8.40147944 -31.2271514 11.43442174 -34.79296875 16.5078125 C-38.53589659 23.02910414 -38.98276267 28.91159708 -38.25 36.3125 C-37.89808594 37.57126953 -37.89808594 37.57126953 -37.5390625 38.85546875 C-37.25 41.3125 -37.25 41.3125 -38.6640625 43.41015625 C-41.17062439 47.99728799 -40.68298515 52.61187155 -40.625 57.75 C-40.63660156 58.77416016 -40.64820313 59.79832031 -40.66015625 60.85351562 C-40.63331634 67.76479354 -39.87168676 72.3823795 -35.125 77.6875 C-31.11086275 79.95636019 -27.76106143 80.11974257 -23.25 79.3125 C-20.77223925 78.23037592 -19.32663481 77.12289958 -17.25 75.3125 C-17.25 74.6525 -17.25 73.9925 -17.25 73.3125 C-16.26 73.374375 -15.27 73.43625 -14.25 73.5 C-8.6918879 73.48874876 -4.17995934 71.49679323 0.5 68.625 C6.71749245 62.23479943 7.18148701 56.23670966 7.0859375 47.484375 C6.97479312 44.43222433 6.97479312 44.43222433 5.73242188 42.50830078 C4.41112389 39.55508159 4.59126598 37.23325449 4.6953125 34.0078125 C4.73205078 32.17283203 4.73205078 32.17283203 4.76953125 30.30078125 C4.83963679 27.73284145 4.91771514 25.16510648 5.00390625 22.59765625 C5.3104677 13.60510621 5.3104677 13.60510621 0.75 6.3125 C-2.8217974 3.33600217 -5.83704274 2.84763195 -10.34765625 3.015625 C-13.07894059 3.44186239 -14.92989463 4.84121367 -17.25 6.3125 Z " fill="#45A6F5" transform="translate(66.25,8.6875)"/>
<path d="M0 0 C0.99 0.33 1.98 0.66 3 1 C3 7.6 3 14.2 3 21 C1.68 21 0.36 21 -1 21 C-1.10957031 20.38511719 -1.21914063 19.77023438 -1.33203125 19.13671875 C-1.49058594 18.32847656 -1.64914063 17.52023438 -1.8125 16.6875 C-1.96332031 15.88699219 -2.11414063 15.08648437 -2.26953125 14.26171875 C-3.08836446 11.72640094 -3.8849856 10.59928429 -6 9 C-8.59117313 9.00156224 -8.59117313 9.00156224 -11 10 C-13.40355927 13.6053389 -13.75085268 16.79361025 -13 21 C-11.41114966 23.95072207 -10.36919336 24.85512665 -7.22265625 26.08984375 C-6.17980469 26.36957031 -5.13695312 26.64929688 -4.0625 26.9375 C-0.42868402 28.0755391 1.78092649 28.82075804 4.75 31.25 C6.41432383 34.91151243 6.76441474 38.0938407 6 42 C3.89797548 46.05390444 2.2288323 48.3177273 -2 50 C-4.21875 50.265625 -4.21875 50.265625 -6.5 50.25 C-7.2528125 50.25515625 -8.005625 50.2603125 -8.78125 50.265625 C-11.2296721 49.97250404 -12.87304054 49.21816769 -15 48 C-15.33 50.31 -15.66 52.62 -16 55 C-17.32 55 -18.64 55 -20 55 C-20 48.4 -20 41.8 -20 35 C-18.68 35 -17.36 35 -16 35 C-15.71125 36.11375 -15.4225 37.2275 -15.125 38.375 C-14.30758671 42.00291092 -14.30758671 42.00291092 -12 44 C-9.66595946 44.357148 -9.66595946 44.357148 -7.0625 44.3125 C-5.74958984 44.33763672 -5.74958984 44.33763672 -4.41015625 44.36328125 C-1.958503 44.18760993 -1.958503 44.18760993 -0.21484375 42.66796875 C1.2418885 40.92949641 1.2418885 40.92949641 1.5 38 C1.31184183 34.91052147 1.31184183 34.91052147 -0.9375 33.3125 C-3.47526083 32.22488821 -5.86087682 31.45412343 -8.5 30.6875 C-12.11421217 29.49281885 -14.87496444 28.21346407 -17.18359375 25.00390625 C-19.0264382 20.48056078 -18.83028033 15.7416791 -18 11 C-16.34973661 7.77834611 -14.28402818 5.64201409 -11 4 C-6.94857881 3.74139865 -5.45662331 3.69558446 -2 6 C-1.34 4.02 -0.68 2.04 0 0 Z " fill="#FB920F" transform="translate(57,22)"/>
</svg>
